<!-- Generated by IcoMoon.io -->
<svg version="1.1" xmlns="http://www.w3.org/2000/svg" width="1024" height="1024" viewBox="0 0 1024 1024">
<title></title>
<path fill="#e6efe9" fill-opacity="0.6" d="M614.455 973.736c7.44 0 14.64 7.151 14.64 7.151 0 7.149-7.193 14.288-14.64 14.288h-43.915c7.44 7.391-7.193 28.825-7.193 28.825h-102.213l-0.368-0.557c-2.287-3.408-14.26-21.584-14.26-28.272h-43.915c-7.44 0-14.64-7.151-14.64-14.288 0 0 7.193-7.151 14.64-7.151h211.864zM614.455 923.466c7.44 0 14.64 7.393 14.64 14.784s-7.193 14.782-14.64 14.782v0h-211.864c-7.44 0-14.64-7.391-14.64-14.782s7.193-14.784 14.64-14.784v0zM614.455 873.203c7.44 0 14.64 6.65 14.64 13.303 0 6.65-7.193 13.302-14.64 13.302v0h-211.864c-7.44 0-14.64-6.65-14.64-13.302s7.193-13.303 14.64-13.303v0zM514.48 141.923l5.207 0.039c100.328 1.443 177.553 44.598 229.776 117.455 40.66 56.737 63.216 129.583 63.216 186.062 0 38.697-13.040 78.555-38.192 125.962-9.103 17.143-18.064 32.464-33.040 56.763v0l-11.99 19.344c-48.673 78.424-65.048 110.613-70.471 147.844v0l-0.118 0.912-0.058 3.152c-0.944 31.984-12.378 44.195-49.056 44.195v0l-207.634-0.032c-18.576-0.496-28.819-6.704-33.968-20.432v0l-0.221-0.636-4.464-4.435-0.499-7.376-0.148-2.049c-2.905-36.139-17.454-68.755-60.179-142.5v0l-14.064-24.070c-6.768-11.568-11.578-19.876-16.102-27.873v0l-6.647-11.92c-33.296-60.568-49.52-105.312-49.52-149.451 0-56.72 16.4-126.511 51.502-183.281 49.088-79.381 128.829-126.206 241.4-127.631v0l5.296-0.033zM514.48 181.344l-5.040 0.033c-98.573 1.296-165.791 40.841-207.839 108.84-30.886 49.942-45.627 112.704-45.627 162.648 0 36.976 15.248 77.84 47.536 135.733v0l2.38 4.24c2.777 4.944 5.62 9.916 8.957 15.677v0l17.418 29.805c48.033 82.304 65.262 118.999 69.667 162.312v0l0.144 1.456 0.356 0.624 0.752 1.471 1.402 0.017 207.297-0.016c2.714-0.048 4.944-0.17 6.719-0.356v0l0.464-0.065 0.064-1.972 0.048-8.257 0.88-6.16c6.474-41.872 23.242-75.658 69.979-151.428v0l19.481-31.466c13.392-21.793 21.635-35.943 29.857-51.44v0l2.448-4.656c20.784-40.112 31.174-72.976 31.174-102.922 0-48.427-20.080-113.264-55.859-163.196-45.072-62.881-110.64-99.579-197.777-100.894v0l-4.863-0.038zM785.539 697.142l49.241 48.91c7.696 7.642 7.738 20.080 0.095 27.782l-0.217 0.215c-7.696 7.644-20.119 7.644-27.824 0l-49.241-48.909c-7.696-7.644-7.738-20.080-0.095-27.783 0.032-0.031 0.064-0.063 0.095-0.095l0.122-0.121c7.696-7.642 20.119-7.642 27.824 0zM266.285 697.142l0.122 0.121c7.696 7.644 7.738 20.080 0.095 27.782l-0.095 0.096-49.241 48.909c-7.696 7.644-20.119 7.644-27.824 0l-0.122-0.121c-7.696-7.642-7.738-20.080-0.095-27.782 0.032-0.032 0.064-0.064 0.095-0.095l49.241-48.91c7.696-7.642 20.119-7.642 27.824 0zM565.84 263.633c7.193-14.784 29.271-21.932 43.915-14.784 131.73 58.392 124.538 196.623 102.458 254.768 0 14.541-14.64 21.932-29.271 21.932v0h-7.193c-14.64-7.391-22.080-21.932-22.080-36.464 7.44-7.151 43.915-130.831-65.994-181.839-21.836-7.393-21.836-29.072-21.836-43.609zM948.77 433.645c10.889 0 19.71 8.822 19.71 19.71s-8.822 19.71-19.71 19.71h-69.739c-10.889 0-19.71-8.822-19.71-19.71s8.822-19.71 19.71-19.71h69.739zM144.969 433.645c10.889 0 19.71 8.822 19.71 19.71s-8.822 19.71-19.71 19.71h-69.739c-10.889 0-19.71-8.822-19.71-19.71s8.822-19.71 19.71-19.71h69.739zM217.168 132.656l49.241 48.909c7.696 7.644 7.738 20.080 0.095 27.782l-0.217 0.218c-7.696 7.642-20.119 7.642-27.824 0l-49.241-48.91c-7.696-7.642-7.738-20.080-0.095-27.782l0.217-0.215c7.696-7.644 20.119-7.644 27.824 0zM834.657 132.656l0.122 0.121c7.696 7.642 7.738 20.080 0.095 27.782l-0.095 0.095-49.241 48.91c-7.696 7.642-20.119 7.642-27.824 0l-0.122-0.121c-7.696-7.644-7.738-20.080-0.095-27.782l0.095-0.096 49.241-48.909c7.696-7.644 20.119-7.644 27.824 0zM512.111 0c10.897 0 19.738 8.839 19.738 19.738v68.934c0 10.896-8.841 19.738-19.738 19.738h-0.211c-10.897 0-19.738-8.841-19.738-19.738v-68.934c0-10.899 8.841-19.738 19.738-19.738h0.211z"></path>
</svg>
