<!-- Generated by IcoMoon.io -->
<svg version="1.1" xmlns="http://www.w3.org/2000/svg" width="1024" height="1024" viewBox="0 0 1024 1024">
<title></title>
<g id="icomoon-ignore">
</g>
<path d="M358.4 460.8h-102.4v102.4h102.4v-102.4zM563.2 460.8h-102.4v102.4h102.4v-102.4zM768 460.8h-102.4v102.4h102.4v-102.4zM870.401 102.4h-51.2v-102.4h-102.4v102.4h-409.6v-102.4h-102.4v102.4h-51.2c-56.832 0-101.889 46.080-101.889 102.4l-0.512 716.8c0 56.32 45.568 102.4 102.4 102.4h716.8c56.32 0 102.4-46.080 102.4-102.4v-716.8c0-56.32-46.080-102.4-102.4-102.4zM870.401 921.6h-716.8v-563.199h716.8v563.199z"></path>
</svg>
