<!-- Generated by IcoMoon.io -->
<svg version="1.1" xmlns="http://www.w3.org/2000/svg" width="1024" height="1024" viewBox="0 0 1024 1024">
<title></title>
<g id="icomoon-ignore">
</g>
<path d="M149.976 149.977c199.969-199.969 524.156-199.969 724.051 0.005 199.964 199.964 199.964 524.151 0 724.035-199.895 199.975-524.081 199.975-724.045 0.010-199.975-199.895-199.975-524.081-0.005-724.051zM820.775 203.212c-170.49-170.558-446.995-170.558-617.559 0.005s-170.563 447.068 0 617.564c170.563 170.563 447.068 170.563 617.569-0.005 170.558-170.49 170.558-446.995-0.010-617.564zM489.205 639.089c16.343 0 29.246 4.408 38.707 13.225s14.193 20.751 14.193 35.804c0 15.053-4.731 27.095-14.193 36.126s-22.364 13.547-38.707 13.547c-15.483 0-27.955-4.516-37.417-13.547s-14.193-21.073-14.193-36.126c0-15.053 4.731-26.987 14.193-35.804s21.934-13.225 37.417-13.225zM511.139 270.080c40.427 0 72.038 9.784 94.833 29.353s34.191 45.911 34.191 79.027c0 21.934-2.903 40.105-8.709 54.513s-13.009 26.665-21.611 36.772c-8.602 10.107-18.063 19.031-28.386 26.773s-19.784 16.021-28.386 24.837c-8.602 8.817-15.913 19.031-21.934 30.643s-9.032 26.449-9.032 44.514v0h-71.608l-0.903-13.019c-0.688-16.825 0.688-31.516 4.129-44.075 4.301-15.697 10.214-29.246 17.741-40.642s16.128-21.289 25.805-29.675c9.677-8.386 18.709-16.45 27.095-24.192s15.375-15.806 20.966-24.192c5.591-8.386 8.386-18.385 8.386-29.998 0-15.053-4.194-27.095-12.58-36.126s-23.332-13.547-44.836-13.547c-6.882 0-14.193 0.753-21.934 2.257s-15.483 3.656-23.224 6.451c-7.742 2.795-15.16 6.021-22.257 9.677s-13.44 7.419-19.031 11.29v0l-32.256-61.931 10.103-6.477c13.866-8.326 29.314-15.414 46.345-21.264 21.289-7.311 46.986-10.967 77.092-10.967z"></path>
</svg>
