<!-- Generated by IcoMoon.io -->
<svg version="1.1" xmlns="http://www.w3.org/2000/svg" width="1024" height="1024" viewBox="0 0 1024 1024">
<title></title>
<g id="icomoon-ignore">
</g>
<path d="M149.976 149.977c199.969-199.97 524.154-199.97 724.049 0.005 199.965 199.965 199.965 524.15 0 724.036-199.894 199.974-524.079 199.974-724.044 0.010-199.974-199.895-199.974-524.079-0.005-724.050zM825.746 198.244c-173.234-173.303-454.187-173.303-627.496 0.005s-173.308 454.262 0 627.502c173.308 173.308 454.261 173.308 627.506-0.005 173.303-173.234 173.303-454.188-0.010-627.502zM546.134 505.173v286.72h-68.267v-286.72h68.267zM560.27 258.93c26.663 26.663 26.663 69.887 0 96.539-26.652 26.663-69.876 26.663-96.539 0-26.663-26.652-26.663-69.877 0-96.539s69.887-26.663 96.539 0z"></path>
</svg>
