<?xml version="1.0" encoding="utf-8"?>
<!-- Generator: Adobe Illustrator 24.3.0, SVG Export Plug-In . SVG Version: 6.00 Build 0)  -->
<svg version="1.1" id="Layer_1" xmlns="http://www.w3.org/2000/svg" xmlns:xlink="http://www.w3.org/1999/xlink" x="0px" y="0px"
	 width="328.7px" height="328.7px" viewBox="0 0 328.7 328.7" style="enable-background:new 0 0 328.7 328.7;" xml:space="preserve"
	>
<style type="text/css">
	.st0{fill:#E8E8E8;}
</style>
<g id="Portal">
	<g id="cssz-portal-homepage" transform="translate(-75 -2060)">
		<g id="sluzby" transform="translate(75 2060)">
		</g>
	</g>
</g>
<g id="Portal_2_">
	<g id="cssz-portal-homepage_2_" transform="translate(-75 -2994)">
		<g id="Page-1" transform="translate(75 2988)">
		</g>
	</g>
</g>
<g id="Portal_3_">
	<g id="cssz-portal-kontakty-vyber-kraje-v2" transform="translate(-75 -984)">
		<g id="Page-1_2_" transform="translate(75 981)">
		</g>
	</g>
</g>
<g id="Portal_1_">
	<g id="cssz-portal-homepage_1_" transform="translate(-127 -2727)">
		<g id="Group" transform="translate(123 2726)">
			<g id="Page-1_1_" transform="translate(5 2)">
				<path class="st0" d="M163.1,293.7c-81,0-146.9-65.9-146.9-146.9S82.1-0.1,163.1-0.1S310,65.8,310,146.8
					C310.1,227.7,244.2,293.7,163.1,293.7z M163.1,8.7c-76.1,0-138,61.9-138,138s61.9,138,138,138s138-61.9,138-138
					S239.2,8.7,163.1,8.7z"/>
				<path class="st0" d="M163.1,259.6c-62.3,0-112.9-50.6-112.9-112.9S100.8,33.8,163.1,33.8S276,84.4,276,146.7
					S225.4,259.6,163.1,259.6z M163.1,42.8c-57.3,0-103.9,46.6-103.9,103.9s46.6,103.9,103.9,103.9S267,204,267,146.7
					C267.1,89.4,220.5,42.8,163.1,42.8L163.1,42.8z"/>
				<path class="st0" d="M209.8,326.3h-93.3c-2.5,0-4.5-2-4.5-4.5v-21.7c0-2.5,2-4.5,4.5-4.5s4.5,2,4.5,4.5v17.2h84.4v-17.2
					c0-2.5,2-4.5,4.5-4.5s4.5,2,4.5,4.5v21.7C214.3,324.3,212.3,326.3,209.8,326.3L209.8,326.3z"/>
				<path id="Fill-7" class="st0" d="M177.9,97.4c0,4-1.5,7.4-4.6,10.2c-3.1,2.8-6.7,4.2-10.9,4.2c-4.3,0-7.9-1.4-11-4.2
					c-3.1-2.8-4.6-6.2-4.6-10.2s1.5-7.4,4.6-10.3c3.1-2.8,6.8-4.3,11-4.3c4.3,0,7.9,1.4,11,4.3C176.3,90,177.9,93.4,177.9,97.4
					L177.9,97.4z M189.4,205.2h-49.9v-5.8c1.4-0.1,2.7-0.2,4-0.4s2.4-0.4,3.4-0.8c1.7-0.6,2.9-1.5,3.6-2.7s1-2.7,1-4.7v-46
					c0-1.8-0.4-3.5-1.3-4.9c-0.8-1.4-1.9-2.5-3.2-3.4c-0.9-0.6-2.4-1.2-4.3-1.8c-1.9-0.6-3.7-0.9-5.3-1.1v-5.8l38.7-2.1l1.2,1.2
					v62.7c0,1.9,0.4,3.4,1.2,4.7s1.9,2.3,3.4,2.9c1.1,0.5,2.2,0.9,3.5,1.3c1.3,0.4,2.6,0.6,3.9,0.8L189.4,205.2L189.4,205.2z"/>
			</g>
		</g>
	</g>
</g>
</svg>
