<!-- Generated by IcoMoon.io -->
<svg version="1.1" xmlns="http://www.w3.org/2000/svg" width="1024" height="1024" viewBox="0 0 1024 1024">
<title></title>
<g id="icomoon-ignore">
</g>
<path d="M810.667 0h-597.334c-117.802 0-213.333 95.53-213.333 213.333v597.334c0 117.802 95.53 213.333 213.333 213.333h597.334c117.846 0 213.333-95.53 213.333-213.333v-597.334c0-117.802-95.488-213.333-213.333-213.333zM341.336 810.664h-128v-469.333h128v469.333zM277.337 287.232c-41.216 0-74.666-33.706-74.666-75.264s33.45-75.264 74.666-75.264c41.216 0 74.666 33.706 74.666 75.264s-33.408 75.264-74.666 75.264zM853.335 810.664h-128v-239.103c0-143.702-170.666-132.822-170.666 0v239.103h-128v-469.333h128v75.306c59.562-110.336 298.665-118.486 298.665 105.642v288.383z"></path>
</svg>
