<?xml version="1.0" encoding="utf-8"?>
<!-- Generator: Adobe Illustrator 24.3.0, SVG Export Plug-In . SVG Version: 6.00 Build 0)  -->
<svg version="1.1" id="Vrstva_1" xmlns="http://www.w3.org/2000/svg" xmlns:xlink="http://www.w3.org/1999/xlink" x="0px" y="0px"
	 width="34px" height="34px" viewBox="0 0 34 34" style="enable-background:new 0 0 34 34;" xml:space="preserve">
<g>
	<path d="M16.5,7.1c0,0-0.1-0.1-0.3-0.1c-0.2,0-0.4,0-0.5,0.3c-0.4,0.7-0.5,2.2,0.2,4.4C17,8.1,16.6,7.3,16.5,7.1z"/>
	<path d="M6.4,27L6.4,27c0.6,0,2-0.7,3.8-3.2C7,25.3,6.3,26.7,6.4,27z"/>
	<path d="M17.5,18.3c-0.5-0.8-1-1.6-1.4-2.4l0,0.1l0,0c-0.3,0.8-0.7,1.7-1.2,2.7c-0.3,0.8-0.7,1.5-1,2.1l0.1,0l-0.1,0.1
		c0.7-0.2,1.5-0.4,2.3-0.6c0.8-0.2,1.6-0.3,2.4-0.4l0,0l0.1,0C18.2,19.3,17.9,18.8,17.5,18.3z"/>
	<path d="M21.9,21.2C21.9,21.2,21.9,21.2,21.9,21.2c2.5,2.5,4.2,2.7,4.7,2.7c0.3,0,0.7-0.1,1-0.4c0.1-0.1,0.1-0.3,0-0.6
		C27.1,22.1,25.1,21.2,21.9,21.2z"/>
	<path d="M0,0v34h34V0H0z M28.9,24.3c-0.5,0.7-1.3,1.2-2.3,1.2c-2,0-4.4-1.5-6.8-4.2c-1,0.1-2.2,0.3-3.3,0.5c-1.4,0.3-2.7,0.6-3.8,1
		c-2.2,3.7-4.5,5.7-6.3,5.7c-0.6,0-1.2-0.3-1.4-0.8c-0.3-0.4-0.3-1-0.1-1.6c0.6-1.7,3.1-3.4,6.7-4.7c0.6-1.1,1.2-2.3,1.8-3.6
		c0.7-1.5,1.2-2.8,1.7-4c-1.4-3.2-1.7-6-0.8-7.5c0.4-0.7,1.1-1.1,1.9-1.1c0.9,0,1.3,0.4,1.6,0.8c0.5,0.8,1,2.4-1,7.7
		c0.5,1.1,1.2,2.3,2,3.5c0.6,0.8,1.1,1.6,1.7,2.3c4.2-0.3,7.4,0.7,8.4,2.5C29.3,22.9,29.3,23.7,28.9,24.3z"/>
</g>
</svg>
