<!-- Generated by IcoMoon.io -->
<svg version="1.1" xmlns="http://www.w3.org/2000/svg" width="1024" height="1024" viewBox="0 0 1024 1024">
<title></title>
<path d="M727.268 863.403c0-313.231-253.44-568.089-564.963-568.089v-134.712c385.819 0 699.673 315.281 699.673 702.801h-134.712zM489.36 863.231c0-88.064-34.075-170.779-95.917-232.904-61.779-62.065-143.928-96.2-231.368-96.2v-134.712c254.747 0 461.997 208.045 461.997 463.816h-134.712zM348.56 769.306c0 51.539-41.755 93.297-93.24 93.297-51.539 0-93.357-41.755-93.357-93.297s41.811-93.295 93.297-93.295c51.539 0 93.295 41.755 93.295 93.295v0zM883.995 0h-743.99c-77.368 0-140.005 62.693-140.005 140.005v743.99c0 77.368 62.637 140.005 140.005 140.005h743.99c77.312 0 140.005-62.637 140.005-140.005v-743.99c0-77.312-62.693-140.005-140.005-140.005v0z"></path>
</svg>
