<?xml version="1.0" encoding="utf-8"?>
<!-- Generator: Adobe Illustrator 24.2.3, SVG Export Plug-In . SVG Version: 6.00 Build 0)  -->
<svg version="1.1" id="Vrstva_1" xmlns="http://www.w3.org/2000/svg" xmlns:xlink="http://www.w3.org/1999/xlink" x="0px" y="0px"
	 width="18px" height="18px" viewBox="0 0 18 18" style="enable-background:new 0 0 18 18;" xml:space="preserve">
<style type="text/css">
	.st0{fill:#231F20;}
</style>
<path class="st0" d="M17.5,16.7l-5-5c2.3-2.7,2.2-6.7-0.3-9.2c-1.3-1.3-3-2-4.8-2s-3.5,0.7-4.8,2s-2,3-2,4.8s0.7,3.5,2,4.8
	c1.3,1.3,3.1,2,4.8,2c1.6,0,3.2-0.6,4.4-1.7l5,5L17.5,16.7z M3.2,11.4c-1.1-1.1-1.7-2.6-1.7-4.1s0.6-3,1.7-4.1s2.6-1.7,4.1-1.7
	s3,0.6,4.1,1.7c2.3,2.3,2.3,5.9,0,8.2C9.1,13.7,5.5,13.7,3.2,11.4z"/>
</svg>
