<!-- Generated by IcoMoon.io -->
<svg version="1.1" xmlns="http://www.w3.org/2000/svg" width="1024" height="1024" viewBox="0 0 1024 1024">
<title></title>
<path fill="#000" d="M1023.425 245.368c-2.086-4.867-6.257-9.038-11.819-9.734-11.124-1.391-254.466-36.153-372.66 86.907-22.248-15.991-79.26-60.488-114.718-116.109-2.781-4.172-6.953-6.953-12.515-6.953-4.867 0-9.734 2.781-12.515 6.953-34.763 54.925-91.079 98.727-114.023 115.413-118.194-122.366-361.535-88.298-371.964-86.212-1.391 0-2.781 0.695-4.172 1.391 0 0 0 0-0.695 0-1.391 0.695-2.086 1.391-3.476 2.086-0.695 0.695-1.391 1.391-1.391 1.391-0.695 0.695-0.695 1.391-1.391 2.086 0 0.695-0.695 1.391-1.391 1.391 0 0.695 0 1.391 0 2.086s0 1.391-0.695 2.086c0 0.695 0 2.086 0 2.781s0 1.391 0.695 2.086c0 0.695 0.695 1.391 0.695 2.086 0.695 1.391 1.391 2.086 2.086 3.476 0.695 0.695 41.020 49.363 48.668 257.247 3.476 98.032 34.763 165.472 91.079 199.54 30.591 18.772 65.354 25.029 96.641 25.029 37.544 0 70.916-9.038 90.384-15.991 36.153 38.239 89.688 72.307 175.206 99.422 1.391 0.695 2.781 0.695 4.172 0.695s2.781 0 4.172-0.695c85.517-27.115 139.052-61.878 175.206-100.118 19.467 7.648 53.535 16.686 91.079 16.686 31.287 0 66.050-6.257 96.641-25.029 57.012-34.068 87.603-101.508 91.079-199.54 7.648-205.797 47.973-255.856 48.668-257.247 7.648-2.781 8.343-8.343 6.953-13.21zM161.301 691.725c-47.973-29.201-73.697-88.298-77.174-175.901-4.867-126.538-21.553-197.454-35.459-235.694 50.754 25.725 139.747 81.346 177.291 168.253 13.905 31.982 21.553 66.050 28.506 98.727 11.819 52.144 23.639 105.679 59.097 154.348-34.068 11.124-100.118 22.248-152.262-9.734zM282.276 540.854c-7.648-34.068-15.991-69.526-30.591-103.594-38.935-89.688-124.452-147.395-179.377-177.291 82.736-3.476 237.084 4.867 308.696 100.813 52.84 70.222 71.612 138.357 55.621 200.93-15.296 61.878-62.573 107.766-95.946 127.928-35.459-45.192-46.582-95.946-58.402-148.786zM512.407 796.015c-72.307-23.639-119.585-52.144-152.262-84.126 35.459-22.944 86.907-70.916 104.984-143.224 17.381-71.612-2.781-146.7-59.792-223.874 22.944-16.686 70.916-54.925 107.070-104.289 36.849 50.059 85.517 88.298 107.766 104.984-57.012 77.174-77.174 152.262-59.792 223.874s68.831 119.585 104.289 142.528c-31.982 31.287-79.26 60.488-152.262 84.126zM683.441 688.944c-33.372-20.163-79.955-66.050-95.251-127.233-15.296-62.573 3.476-130.709 55.621-200.93 64.659-85.517 194.673-101.508 280.19-101.508 9.734 0 19.467 0 27.81 0.695-55.621 29.201-140.443 86.907-179.377 177.291-14.6 34.068-22.944 69.526-30.591 103.594-11.819 52.144-22.944 102.899-58.402 148.091zM942.080 515.824c-3.476 87.603-29.201 146.7-77.174 175.901-52.84 31.982-119.585 20.163-152.957 9.734 35.459-48.668 47.278-101.508 59.097-153.653 7.648-32.678 15.296-66.745 28.506-98.727 38.239-87.603 127.928-143.224 178.682-168.948-14.6 37.544-31.287 108.46-36.153 235.694z"></path>
</svg>
