<!-- Generated by IcoMoon.io -->
<svg version="1.1" xmlns="http://www.w3.org/2000/svg" width="1673" height="1024" viewBox="0 0 1673 1024">
<title></title>
<g id="icomoon-ignore">
</g>
<path fill="#000" d="M1672.075 76.374c-3.406-7.952-10.225-14.766-19.311-15.905-18.174-2.273-415.749-59.067-608.857 141.993-36.35-26.124-129.495-98.825-187.428-189.702-4.546-6.814-11.359-11.359-20.444-11.359-7.952 0-15.905 4.546-20.444 11.359-56.795 89.737-148.806 161.302-186.29 188.562-193.11-199.922-590.681-144.26-607.722-140.852-2.273 0-4.546 1.134-6.814 2.273 0 0 0 0-1.134 0-2.273 1.134-3.406 2.273-5.68 3.406-1.134 1.134-2.273 2.273-2.273 2.273-1.134 1.134-1.134 2.273-2.273 3.406 0 1.134-1.134 2.273-2.273 2.273 0 1.134 0 2.273 0 3.406s0 2.273-1.134 3.406c0 1.134 0 3.406 0 4.546s0 2.273 1.134 3.406c0 1.134 1.134 2.273 1.134 3.406 1.134 2.273 2.273 3.406 3.406 5.68 1.134 1.134 67.021 80.651 79.512 420.295 5.68 160.166 56.795 270.349 148.806 326.009 49.982 30.671 106.776 40.896 157.891 40.896 61.341 0 115.863-14.766 147.672-26.124 59.067 62.474 146.532 118.136 286.252 162.438 2.273 1.134 4.546 1.134 6.814 1.134s4.546 0 6.814-1.134c139.72-44.302 227.187-101.097 286.252-163.571 31.804 12.494 87.465 27.264 148.806 27.264 51.115 0 107.912-10.225 157.891-40.896 93.145-55.662 143.127-165.844 148.806-326.009 12.494-336.234 78.379-418.021 79.512-420.295 12.494-4.546 13.632-13.632 11.359-21.585zM263.534 805.639c-78.379-47.71-120.408-144.26-126.088-287.387-7.952-206.742-35.215-322.603-57.935-385.079 82.925 42.030 228.32 132.902 289.659 274.895 22.719 52.255 35.215 107.912 46.575 161.302 19.311 85.192 38.623 172.662 96.551 252.177-55.662 18.174-163.571 36.35-248.77-15.905zM461.18 559.143c-12.494-55.662-26.124-113.592-49.982-169.251-63.614-146.532-203.33-240.818-293.066-289.659 135.175-5.68 387.351 7.952 504.352 164.711 86.331 114.729 117.002 226.051 90.872 328.282-24.991 101.097-102.232 176.071-156.758 209.010-57.935-73.834-76.106-156.758-95.417-243.090zM837.173 976.024c-118.136-38.623-195.383-85.192-248.77-137.447 57.935-37.483 141.993-115.863 171.523-233.999 28.396-117.002-4.546-239.679-97.69-365.765 37.483-27.264 115.863-89.737 174.93-170.391 60.202 81.786 139.72 144.26 176.071 171.523-93.145 126.088-126.088 248.77-97.69 365.765s112.456 195.383 170.391 232.865c-52.255 51.115-129.495 98.825-248.77 137.447zM1116.613 801.094c-54.522-32.944-130.633-107.912-155.62-207.874-24.991-102.232 5.68-213.554 90.872-328.282 105.642-139.72 318.057-165.844 457.777-165.844 15.905 0 31.804 0 45.435 1.134-90.872 47.71-229.459 141.993-293.066 289.659-23.855 55.662-37.483 113.592-49.982 169.251-19.311 85.192-37.483 168.118-95.417 241.952zM1539.175 518.247c-5.68 143.127-47.71 239.679-126.088 287.387-86.331 52.255-195.383 32.944-249.904 15.905 57.935-79.512 77.245-165.844 96.551-251.039 12.494-53.389 24.991-109.050 46.575-161.302 62.474-143.127 209.010-233.999 291.932-276.027-23.855 61.341-51.115 177.203-59.067 385.079z"></path>
</svg>
