<?xml version="1.0" encoding="utf-8"?>
<!-- Generator: Adobe Illustrator 24.3.0, SVG Export Plug-In . SVG Version: 6.00 Build 0)  -->
<svg version="1.1" id="Vrstva_1" xmlns="http://www.w3.org/2000/svg" xmlns:xlink="http://www.w3.org/1999/xlink" x="0px" y="0px"
	 width="1024px" height="1024px" viewBox="0 0 1024 1024" style="enable-background:new 0 0 1024 1024;" xml:space="preserve">
<g id="icomoon-ignore">
</g>
<path d="M1019,388.4c-12-37.1-44.1-64.1-82.6-69.7l-229.8-33.4L603.8,77.2c-17.2-35-52.8-57.1-91.8-57.1l0,0
	c-39,0-74.6,22.1-91.8,57.1L317.4,285.3L87.7,318.7C49.1,324.3,17,351.3,5,388.4c-12,37.1-2,77.8,25.9,105l166.3,162l-39.3,228.8
	c-6.6,38.5,9.2,77.3,40.8,100.2c17.8,13,39,19.5,60.2,19.5c16.3,0,32.7-3.8,47.6-11.7l205.5-108l205.5,108
	c15,7.9,31.3,11.7,47.6,11.7c21.2,0,42.4-6.6,60.2-19.5c31.5-22.9,47.3-61.8,40.8-100.2l-39.3-228.8l166.3-162
	C1021,466.2,1031,425.5,1019,388.4z M716.8,619.7l48.3,281.8L512,768.5l-253.1,133l48.3-281.8L102.4,420.1l283-41.2L512,122.5
	l126.6,256.4l283,41.2L716.8,619.7z"/>
</svg>
