<svg xmlns="http://www.w3.org/2000/svg" width="20" height="20" viewBox="0 0 20 20"><defs><style>.a{fill:#231f20;}</style></defs><path class="a" d="M10,0A10,10,0,1,0,20,10,10,10,0,0,0,10,0Zm0,18a8,8,0,1,1,8-8A8,8,0,0,1,10,18Z" transform="translate(0)"/><rect class="a" x="9.12" y="9.6" width="1.76" height="5.52"/><path class="a" d="M11.05,5.32a1.47,1.47,0,0,0-2.1,0,1.43,1.43,0,0,0-.44,1A1.47,1.47,0,0,0,9,7.42a1.5,1.5,0,0,0,2.1,0,1.47,1.47,0,0,0,.44-1.06A1.43,1.43,0,0,0,11.05,5.32Z" transform="translate(0)"/></svg>