<!-- Generated by IcoMoon.io -->
<svg version="1.1" xmlns="http://www.w3.org/2000/svg" width="1024" height="1024" viewBox="0 0 1024 1024">
<title></title>
<path d="M765.979 767.149h-252.302c-35.214 0-64.796-12.516-89.771-37.49-25.031-25.031-36.409-54.556-36.409-89.771v-89.828h359.14c32.939 0 60.245-11.378 84.139-35.214 22.699-23.893 35.214-51.143 35.214-84.139 0-32.939-11.321-60.188-35.214-84.082-22.756-22.756-51.2-35.214-84.139-35.214h-360.22v-183.012c0-35.214-12.572-64.74-37.547-89.771-23.836-26.169-54.556-38.628-88.633-38.628-35.214 0-65.934 12.459-90.908 37.49-25.031 25.031-37.49 54.556-37.49 90.908v512.569c0 105.756 37.49 195.527 111.332 270.507 75.036 74.98 164.807 112.526 269.369 112.526h252.302c35.271 0 64.796-12.516 89.828-37.547 24.974-24.974 37.49-54.556 37.49-89.771s-12.516-64.74-37.49-89.771c-23.893-27.25-54.556-39.765-88.69-39.765z"></path>
</svg>
