<?xml version="1.0" standalone="no"?>
<!DOCTYPE svg PUBLIC "-//W3C//DTD SVG 20010904//EN"
 "http://www.w3.org/TR/2001/REC-SVG-20010904/DTD/svg10.dtd">
<svg version="1.0" xmlns="http://www.w3.org/2000/svg"
 width="284.000000pt" height="284.000000pt" viewBox="0 0 284.000000 284.000000"
 preserveAspectRatio="xMidYMid meet">
<metadata>
Created by potrace 1.11, written by Peter Selinger 2001-2013
</metadata>
<g transform="translate(0.000000,284.000000) scale(0.100000,-0.100000)"
fill="#000000" stroke="none">
<path d="M193 2824 c-63 -23 -128 -86 -163 -159 l-30 -63 0 -1187 0 -1186 26
-54 c32 -68 97 -126 172 -154 l59 -21 1175 0 c661 0 1178 4 1184 9 5 5 25 14
46 20 54 17 123 84 152 146 l26 54 0 1186 0 1187 -30 63 c-19 39 -48 79 -76
104 -86 76 1 71 -1318 70 -1016 0 -1187 -3 -1223 -15z m2458 -47 c85 -41 130
-102 148 -202 4 -22 6 -553 6 -1180 -1 -930 -4 -1148 -15 -1183 -19 -62 -83
-124 -155 -152 l-60 -23 -1155 0 -1155 0 -59 23 c-78 30 -138 89 -156 155 -20
69 -22 2377 -2 2397 6 6 12 19 12 27 0 9 16 37 34 62 38 51 105 90 171 99 22
3 555 5 1185 4 l1145 0 56 -27z"/>
<path d="M1384 2453 c-34 -56 -143 -174 -182 -197 -7 -5 -33 6 -65 27 -139 92
-282 130 -487 130 -59 0 -202 -12 -207 -17 -2 -2 7 -16 20 -32 56 -67 83 -169
102 -384 12 -136 18 -180 35 -252 46 -190 131 -267 299 -273 42 -1 100 4 130
11 44 12 57 12 71 2 104 -76 203 -132 287 -162 37 -13 44 -12 104 12 71 28
212 109 246 141 20 19 25 19 85 7 134 -28 262 -4 331 62 63 59 105 182 122
357 14 135 17 163 20 194 17 140 37 207 80 270 l34 49 -62 7 c-268 28 -487
-15 -644 -128 l-42 -29 -28 20 c-45 32 -129 125 -171 190 l-38 60 -40 -65z
m141 -176 c22 -21 50 -46 63 -54 12 -8 22 -19 22 -23 0 -4 -16 -31 -35 -60
-132 -196 -83 -473 109 -613 18 -13 16 -16 -27 -45 -63 -44 -207 -114 -232
-114 -25 0 -169 70 -232 114 -38 26 -43 33 -31 42 86 64 154 160 175 249 15
66 15 176 -2 233 -17 58 -54 135 -81 165 -20 23 -18 27 28 68 50 44 120 117
132 139 7 13 14 9 40 -23 17 -22 49 -57 71 -78z m695 67 c0 -6 -17 -19 -37
-28 -55 -25 -162 -114 -205 -171 -56 -74 -76 -124 -119 -295 -42 -166 -89
-280 -117 -280 -31 0 -128 112 -151 175 -85 228 23 449 269 549 118 48 360 82
360 50z m-1410 -10 c178 -20 350 -120 424 -247 60 -101 71 -246 26 -338 -11
-24 -18 -45 -15 -47 8 -8 -121 -132 -137 -132 -28 0 -75 110 -112 265 -59 244
-127 354 -281 451 -41 26 -72 51 -69 55 4 7 56 5 164 -7z m-138 -90 c124 -80
202 -176 232 -288 8 -28 26 -103 41 -166 15 -63 43 -145 61 -182 19 -37 34
-69 34 -72 0 -9 -56 -17 -122 -17 -143 -1 -237 85 -262 236 -3 17 -8 46 -11
65 -3 19 -8 57 -10 85 -9 120 -17 210 -22 229 -2 12 -5 28 -5 36 0 8 -6 37
-14 64 -8 27 -14 51 -14 53 0 11 31 -3 92 -43z m1588 12 c0 -8 -4 -25 -9 -38
-10 -27 -20 -109 -35 -303 -17 -202 -58 -308 -141 -360 -43 -27 -58 -30 -135
-32 -48 -1 -97 1 -108 4 -21 5 -21 6 10 67 37 73 40 84 78 247 44 193 95 278
230 376 75 54 110 67 110 39z"/>
<path d="M468 1242 c-10 -2 -18 -6 -18 -8 0 -3 34 -50 76 -105 70 -91 79 -99
111 -99 40 0 58 17 151 143 24 32 41 61 39 64 -3 2 -17 6 -31 7 -20 3 -37 -11
-88 -67 l-62 -69 -61 64 c-60 64 -83 78 -117 70z"/>
<path d="M603 969 c-182 -33 -300 -206 -271 -397 24 -157 139 -254 303 -256
66 0 90 4 136 26 51 23 57 29 61 62 6 55 -3 60 -59 31 -96 -50 -219 -29 -276
47 -37 49 -50 102 -45 177 10 132 80 211 193 217 48 2 115 -21 130 -46 9 -15
42 -12 59 6 37 36 0 102 -69 124 -43 14 -114 18 -162 9z"/>
<path d="M1100 963 c-98 -25 -156 -93 -152 -181 3 -90 61 -147 194 -191 96
-32 120 -53 116 -104 -4 -57 -39 -81 -124 -84 -53 -1 -73 3 -121 27 -31 16
-60 27 -64 25 -6 -4 -6 -23 0 -81 2 -19 95 -53 158 -59 70 -6 148 12 197 45
66 46 89 146 51 221 -19 36 -88 82 -159 105 -105 34 -136 59 -136 108 0 40 38
86 72 87 13 0 34 2 47 3 13 2 48 -10 77 -26 62 -33 67 -33 88 -12 52 52 -32
122 -155 129 -20 1 -60 -4 -89 -12z"/>
<path d="M1670 969 c-60 -12 -129 -56 -151 -99 -12 -21 -19 -55 -19 -86 0 -83
52 -142 158 -179 86 -31 121 -48 138 -66 25 -28 20 -78 -11 -108 -23 -23 -33
-26 -103 -26 -67 0 -84 4 -125 28 -27 16 -50 27 -52 25 -2 -2 -6 -20 -8 -41
-3 -25 1 -41 12 -51 50 -44 187 -65 269 -40 114 34 171 124 140 224 -20 66
-55 92 -204 149 -67 26 -84 37 -94 61 -43 103 81 160 201 92 52 -29 75 -25 85
14 9 36 -4 55 -57 81 -52 25 -117 33 -179 22z"/>
<path d="M2049 946 c-5 -6 -9 -26 -9 -46 l0 -37 175 2 c96 1 175 0 175 -3 0
-4 -131 -179 -167 -222 -79 -96 -211 -285 -206 -296 4 -12 47 -14 262 -12
l256 3 3 41 3 42 -175 -2 c-185 -2 -194 0 -158 41 46 54 338 447 344 464 5 14
3 22 -8 26 -27 10 -484 9 -495 -1z"/>
</g>
</svg>
