<svg width="265" height="156" viewBox="0 0 265 156" fill="none" xmlns="http://www.w3.org/2000/svg">
  <path fill-rule="evenodd" clip-rule="evenodd" d="M34.3088 16.0754C30.8589 20.6754 31.5632 22.139 34.3088 25.0958C37.0544 28.0526 39.678 28.9678 42.23 29.3198C41.174 35.5678 39.3788 48.2222 40.646 48.8558C42.23 49.6478 52.526 54.6638 54.374 50.9678C55.8524 48.011 56.926 41.1118 57.278 38.0318C57.894 37.4158 59.39 36.5534 60.446 38.0318C61.0303 38.8499 60.8386 40.6509 60.6496 42.4271C60.4116 44.6635 60.1777 46.8607 61.502 47.0078C62.094 47.0736 62.8501 47.2541 63.6761 47.4514C66.1647 48.0457 69.2887 48.7917 70.478 47.0078C71.7452 45.107 72.414 38.9998 72.59 36.1838H74.702C78.5066 36.4797 84.8701 37.125 91.8608 38.1136C92.9646 38.2697 93.0125 37.4135 93.0702 36.3827C93.17 34.5981 93.299 32.2901 98.9888 33.8074C104.075 35.1637 105.565 37.5492 106.612 39.2243C107.195 40.1575 107.64 40.8702 108.493 41.0614C110.526 41.5172 112.479 42.0034 114.302 42.5198C116.929 43.2643 119.673 43.8254 122.636 44.4313C125.738 45.0656 129.08 45.749 132.781 46.7434C133.848 47.0301 134.733 46.4264 135.778 45.7132C137.149 44.7778 138.797 43.6541 141.493 44.1034C146.019 45.7798 146.755 48.1945 147.271 49.8879C147.567 50.8613 147.791 51.5964 148.621 51.8158C152.914 52.9516 156.693 53.9447 159.446 54.6638C157.686 62.3198 161.117 78.9602 173.156 84.4514C188.204 91.3154 195.35 93.4718 202.478 90.0398C209.606 86.6078 216.734 49.1845 216.734 34.0718C216.734 18.2315 209.398 3.71521 191.654 0.942323C173.58 -1.88207 167.447 16.0364 163.602 27.2679C162.056 31.7856 160.88 35.2215 159.446 35.7903C157.308 36.6385 134.728 32.311 109.319 27.4411C75.3325 20.9275 36.2829 13.4434 34.3088 16.0754ZM177.381 43.2674C179.757 27.1634 183.189 17.6594 192.693 19.5074C202.197 21.3554 206.685 29.0115 202.461 51.7155C198.237 74.4195 195.861 79.1715 186.621 76.2675C177.381 73.3635 172.365 67.0274 177.381 43.2674Z" fill="#F2C45E"/>
  <path d="M137.253 75.476C137.675 71.4632 134.348 69.6674 133.557 67.8195C133.292 65.9715 135.365 63.531 136.988 63.8591C138.057 64.0752 135.652 65.5708 136.988 66.7636C137.321 67.0608 139.161 67.4318 139.364 68.0835C139.55 68.6794 138.146 69.5533 137.516 69.9316C138.918 72.0769 141.778 73.7176 142.532 73.8916C143.585 74.1346 145.964 72.3076 147.548 71.7796C148.132 71.3319 147.284 70.7236 146.492 69.4036C147.252 68.979 148.059 71.1701 148.868 70.4596C150.331 69.1743 148.604 65.1796 148.604 64.1236C149.66 65.4436 153.092 67.5555 152.828 69.4036C152.565 71.2517 150.716 70.46 150.98 75.476C151.191 79.4888 153.708 85.772 154.94 88.412C153.62 88.764 152.036 92.372 148.868 92.372C145.7 92.372 142.796 89.204 141.74 87.62C141.916 88.236 142.004 90.0488 140.948 92.372C139.628 95.276 135.405 94.748 133.557 92.372C131.709 89.996 136.725 80.492 137.253 75.476Z" fill="#C1497F"/>
  <path d="M232.027 82.4072L231.226 81.8921C231.964 80.5041 232.535 75.8725 233.856 71.4307C234.996 67.5946 236.668 63.9396 236.921 62.5983C237.218 61.0198 237.061 59.6611 235.922 58.6015C235.863 58.5456 235.84 58.558 235.854 58.6388C236.213 60.6314 236.914 61.7989 235.959 63.8567C235.31 65.2534 234.537 66.5787 233.64 67.8325C233.319 68.283 233.08 68.7002 232.925 69.0839C231.851 71.7515 230.698 74.3849 229.466 76.9842C227.74 80.6365 230.597 72.6601 231.091 71.4517C231.12 71.3786 231.109 71.3717 231.056 71.4307C228.609 74.1317 226.39 76.8024 223.575 79.3775C223.418 79.5205 223.166 79.6712 222.818 79.8297C222.167 80.1256 221.92 80.6873 221.384 80.9762C221.06 81.1502 220.757 81.2745 220.478 81.3491C216.462 82.4118 212.449 83.4924 208.441 84.5908C207.966 84.7213 207.492 84.8145 207.222 85.2153C205.013 88.4803 202.165 91.2466 198.236 92.0086C183.997 94.7749 168.182 91.3771 161.918 76.7278C161.021 74.6327 160.466 72.4235 160.007 70.1163C159.258 66.372 158.791 62.6814 158.604 59.0443C158.547 57.9304 158.556 57.232 158.632 56.9492C159.135 55.0616 162.032 55.812 163.412 56.1685C165.924 56.8187 168.495 57.6204 171.07 57.9537C172.759 58.1727 173.235 57.3804 173.89 56.1242C173.897 56.1107 173.901 56.0959 173.902 56.0808C173.902 56.0656 173.9 56.0505 173.895 56.0362C173.89 56.022 173.882 56.009 173.871 55.998C173.86 55.9871 173.848 55.9785 173.834 55.9728C172.947 55.6185 172.123 55.363 171.363 55.206C167.605 54.4277 163.633 53.8085 159.445 53.3487C159.41 53.3445 159.375 53.3501 159.343 53.3649C159.311 53.3797 159.283 53.4031 159.264 53.4326C158.46 54.6102 157.99 55.45 157.851 55.9518C156.829 59.6743 155.266 63.1514 153.163 66.3829C153.153 66.3974 153.148 66.4138 153.146 66.4307C153.144 66.4477 153.146 66.4649 153.151 66.4808C153.157 66.4968 153.166 66.5112 153.178 66.5229C153.19 66.5347 153.205 66.5434 153.221 66.5484L154.029 66.8071C154.133 66.8404 154.22 66.9128 154.271 67.0089C154.323 67.105 154.334 67.2173 154.304 67.3221C153.018 71.8199 152.223 76.7931 153.647 81.2489C154.659 84.4113 156.024 87.4549 157.369 90.4962C157.51 90.8162 157.471 91.113 157.25 91.3864C156.863 91.8665 156.366 92.1679 155.759 92.2906C155.741 92.2943 155.725 92.3021 155.712 92.3133C155.698 92.3246 155.687 92.3389 155.681 92.355C155.674 92.3712 155.671 92.3886 155.673 92.4059C155.675 92.4231 155.681 92.4395 155.691 92.4537C156.915 94.2808 156.586 97.9653 156.502 99.6385C156.194 105.858 155.714 112.067 155.062 118.266C155.028 118.589 155.076 118.901 155.206 119.2C157.862 125.312 160.478 131.439 163.055 137.581L162.589 138.513L154.27 118.988C154.238 118.917 154.228 118.843 154.237 118.767C155.104 110.937 155.908 102.89 155.726 95.0079C155.706 94.1115 155.426 93.3238 154.887 92.6448C154.855 92.6043 154.813 92.5728 154.765 92.5532C154.718 92.5336 154.666 92.5266 154.614 92.533C151.559 92.9035 148.66 93.2181 145.889 91.5821C145.861 91.5651 145.829 91.5574 145.796 91.5599C145.763 91.5624 145.732 91.5751 145.707 91.5961C144.873 92.2999 143.47 94.2925 143.121 94.642C142.771 94.9916 142.305 94.642 142.305 94.2925C142.305 93.9429 144.022 92.042 144.99 91.1673C145.001 91.1572 145.01 91.1449 145.016 91.1312C145.022 91.1174 145.026 91.1025 145.026 91.0874C145.026 91.0723 145.023 91.0574 145.017 91.0434C145.012 91.0295 145.003 91.0169 144.992 91.0065L142.419 88.5199C142.321 88.4251 142.271 88.4453 142.268 88.5805C142.193 91.4703 140.809 93.4395 138.117 94.4649C138.105 94.4691 138.094 94.4763 138.086 94.486C138.077 94.4956 138.072 94.5073 138.069 94.5199C138.067 94.5324 138.068 94.5454 138.072 94.5574C138.077 94.5695 138.084 94.5802 138.094 94.5884C138.763 95.1748 141.951 95.5715 142.398 95.6535C142.845 95.7355 142.597 96.5534 142.561 97.0331L142.258 102.176C142.171 103.915 142.239 106.056 142.314 107.786C142.47 111.242 142.969 114.437 144.356 117.35C148.043 125.089 153.645 133.999 158.385 141.251C158.596 141.669 158.559 141.687 158.152 142.067C153.528 135.201 149.112 128.093 145.388 121.207C143.778 118.233 142.137 114.7 141.846 111.247C141.773 110.369 141.681 109.687 141.571 109.203C141.552 109.123 141.525 109.12 141.489 109.193L136.661 118.97C136.641 119.009 136.631 119.053 136.632 119.097C136.633 119.14 136.644 119.183 136.665 119.221L136.996 119.806C137.218 120.204 137.142 120.533 136.768 120.794L135.866 121.421C135.803 121.465 135.757 121.529 135.738 121.603C135.584 122.184 135.455 122.771 135.351 123.363C134.248 129.621 133.349 135.907 132.655 142.223C132.44 144.185 132.333 146.158 132.333 148.142C132.331 148.987 131.599 149.111 131.596 148.385C131.589 147.231 131.541 146.061 131.648 144.933C132.404 136.971 133.524 129.059 135.006 121.198C135.013 121.161 135.026 121.127 135.046 121.096C135.066 121.065 135.092 121.039 135.122 121.018L136.253 120.24C136.269 120.228 136.283 120.213 136.294 120.196C136.304 120.179 136.311 120.16 136.314 120.14C136.316 120.12 136.315 120.1 136.309 120.08C136.303 120.061 136.294 120.043 136.281 120.028C136.06 119.77 135.909 119.478 135.826 119.151C135.805 119.072 135.813 118.987 135.85 118.911C137.672 115.157 139.597 111.445 141.291 107.634C141.652 106.826 141.431 105.66 141.433 104.782C141.437 101.611 141.489 100.119 141.713 96.8886C141.632 96.6344 138.26 95.5754 137.614 95.2526L136.02 94.4556C136.006 94.449 135.992 94.4456 135.977 94.4456C135.962 94.4457 135.947 94.4492 135.933 94.456C135.92 94.4627 135.908 94.4725 135.899 94.4845C135.89 94.4966 135.883 94.5106 135.88 94.5255C135.601 95.8587 134.958 97.1867 134.526 98.4826C133.941 100.235 133.551 99.1717 133.922 98.0235L135.16 94.2225C135.187 94.1393 135.183 94.049 135.149 93.9684C135.115 93.8878 135.052 93.8224 134.973 93.7844L133.118 92.8825C133.021 92.8358 132.94 92.7623 132.883 92.6707C132.826 92.5792 132.796 92.4732 132.797 92.3652C132.803 91.4345 132.931 90.5094 133.181 89.5896C134.033 86.4575 134.885 83.3277 135.738 80.2002C136.185 78.5627 136.45 76.901 136.532 75.2153C136.658 72.6262 133.584 68.0515 131.492 66.6533C128.623 64.7353 123.263 60.9763 122.682 57.42C122.192 54.4075 121.873 51.3756 121.727 48.3242C121.706 47.9187 121.65 46.4016 122.445 46.644C123.256 46.8933 123.957 53.1552 124.146 54.1946C124.712 57.2965 126.227 58.8602 128.7 61.7243C130.143 63.3976 131.595 65.0639 133.055 66.7232C133.181 66.8661 133.262 66.8444 133.298 66.6579C133.533 65.4204 133.449 64.3671 134.775 63.8031C135.532 63.4815 136.319 63.2345 137.136 63.062C137.45 62.9952 137.635 63.1195 137.691 63.4349C137.786 63.9709 136.922 65.5253 136.649 66.0916C136.641 66.1095 136.636 66.1289 136.635 66.1486C136.634 66.1684 136.637 66.188 136.644 66.2064C136.651 66.2249 136.661 66.2417 136.674 66.256C136.687 66.2703 136.703 66.2818 136.721 66.2897L139.271 67.4223C139.659 67.5948 139.783 67.8814 139.644 68.2822C139.546 68.5635 139.369 68.7926 139.112 68.9697C138.77 69.2043 138.494 69.3869 138.283 69.5174C138.238 69.5449 138.2 69.5825 138.172 69.6271C138.144 69.6717 138.127 69.7222 138.122 69.7747C138.117 69.8272 138.124 69.8803 138.142 69.9299C138.161 69.9794 138.19 70.024 138.229 70.0604C139.509 71.2582 140.909 72.2984 142.428 73.1809C142.461 73.1998 142.496 73.2113 142.534 73.2145C142.571 73.2177 142.608 73.2126 142.643 73.1995L146.998 71.5495C147.016 71.5427 147.032 71.5322 147.045 71.5186C147.058 71.5051 147.068 71.4888 147.074 71.471C147.08 71.4533 147.082 71.4344 147.079 71.4157C147.077 71.3971 147.071 71.3791 147.061 71.3631L145.957 69.592C145.777 69.3014 145.855 69.1282 146.192 69.0723C146.502 69.0233 147.847 69.804 148.311 69.9276C148.339 69.9351 148.368 69.9366 148.397 69.9321C148.426 69.9277 148.454 69.9172 148.479 69.9015C148.504 69.8858 148.525 69.8651 148.542 69.8407C148.559 69.8163 148.57 69.7888 148.576 69.7598C148.935 67.8814 148.436 65.6861 148.348 63.7728C148.347 63.7321 148.359 63.6921 148.382 63.6592C148.406 63.6264 148.44 63.6024 148.478 63.591L148.8 63.4978C148.847 63.4838 148.897 63.4878 148.941 63.5089C148.985 63.53 149.019 63.5668 149.038 63.612L149.515 64.8238C149.55 64.9082 149.613 64.9775 149.692 65.0196C150.145 65.2613 151.865 65.8007 152.372 65.8446C153.093 65.6279 156.87 57.8208 157.548 51.8921C157.281 49.1546 156.756 46.4086 155.973 43.654C155.832 43.1599 155.677 42.7412 155.509 42.3979C155.459 42.2954 155.374 42.214 155.27 42.1679C155.165 42.1219 155.048 42.1142 154.938 42.1462C153.675 42.519 151.531 42.9665 152.063 44.7749C152.759 47.1473 153.463 49.7295 153.116 52.2137C153.009 52.9812 152.696 53.9616 152.179 55.1548C150.727 58.4967 148.94 61.6684 147.532 65.0196C146.807 66.7418 145.209 70.9716 143.617 71.9154C143.267 72.1221 142.991 72.0498 142.787 71.6987C141.305 69.1336 139.955 66.5103 138.737 63.8287C138.557 63.4341 138.585 63.1855 138.821 63.083C139.097 62.9618 139.33 63.0193 139.518 63.2554C140.461 64.4409 141.48 65.5579 142.575 66.6067C142.612 66.642 142.657 66.6672 142.707 66.6797C142.756 66.6922 142.808 66.6916 142.857 66.678C142.907 66.6643 142.951 66.6381 142.987 66.6019C143.023 66.5657 143.049 66.5207 143.062 66.4715L143.552 64.67C143.557 64.6519 143.557 64.633 143.554 64.6145C143.551 64.596 143.544 64.5784 143.534 64.5627C143.524 64.5471 143.51 64.5339 143.494 64.5238C143.479 64.5138 143.461 64.5072 143.442 64.5046C142.659 64.3974 141.729 64.169 141.37 63.4069C140.832 62.265 142.212 61.489 142.797 60.7689C142.849 60.7036 142.842 60.6951 142.773 60.7432C141 61.9877 139.077 63.2438 137.425 61.0135C135.857 58.8952 134.342 55.4368 135.101 52.8406C135.414 51.7764 135.684 50.6974 135.912 49.6036C135.921 49.5609 135.939 49.5206 135.965 49.4854C135.991 49.4502 136.024 49.4209 136.061 49.3995C136.099 49.378 136.142 49.365 136.185 49.3612C136.228 49.3575 136.272 49.363 136.313 49.3776C136.577 49.4708 136.675 49.6596 136.605 49.9439C136.171 51.708 137.663 52.8453 139.168 53.4046C141.66 54.3275 143.307 56.0435 144.109 58.5526C144.242 58.9651 144.538 59.0933 144.521 59.5757C144.484 60.897 144.29 62.1951 144.409 63.5188C144.411 63.5421 144.419 63.5647 144.431 63.5847C144.443 63.6047 144.46 63.6215 144.48 63.634C144.5 63.6464 144.522 63.654 144.546 63.6563C144.569 63.6585 144.593 63.6553 144.614 63.647C147.688 62.4817 148.996 60.2484 148.541 56.9469C148.196 54.4455 147.389 52.1089 146.12 49.9369C144.106 46.4925 140.154 44.4184 136.908 48.0469C136.878 48.0799 136.837 48.1012 136.793 48.1072C136.749 48.1132 136.705 48.1034 136.668 48.0795L136.034 47.66C136.008 47.643 135.979 47.633 135.948 47.6309C135.917 47.6289 135.887 47.6349 135.859 47.6484C134.085 48.5433 133.314 52.7661 133.379 54.4044C133.395 54.8161 133.479 55.2138 133.631 55.5976C134.344 57.3858 135.066 59.1515 135.796 60.8947C135.962 61.294 136.242 61.7414 136.635 62.237C136.66 62.2687 136.672 62.3085 136.669 62.3486C136.666 62.3887 136.648 62.4262 136.619 62.4538L136.446 62.6122C136.404 62.6507 136.352 62.6755 136.296 62.6834C136.24 62.6913 136.182 62.6819 136.132 62.6565C134.496 61.8548 132.909 60.9374 131.373 59.9042C130.201 59.115 129.376 57.9948 128.898 56.5437C127.784 53.1661 126.989 49.9509 126.514 46.898C126.503 46.8233 126.513 46.7476 126.542 46.6789L126.686 46.3526C126.692 46.3392 126.694 46.3247 126.694 46.3102C126.694 46.2957 126.69 46.2814 126.684 46.2684C126.678 46.2554 126.669 46.2439 126.658 46.2348C126.647 46.2256 126.635 46.2189 126.621 46.2151L106.232 40.5521C106.185 40.5397 106.17 40.556 106.185 40.6011C107.082 43.0791 106.877 45.3762 105.57 47.4922C104.151 49.7854 101.659 49.8483 99.5364 48.5503C99.5067 48.5319 99.4817 48.5068 99.4635 48.4769C99.4454 48.4471 99.4346 48.4135 99.4321 48.3788C99.4296 48.3441 99.4354 48.3094 99.4491 48.2776C99.4628 48.2458 99.4839 48.2179 99.5107 48.196C99.8277 47.9327 101.701 45.8283 101.24 45.4484C101.213 45.4257 101.18 45.4125 101.145 45.4108C101.11 45.4091 101.075 45.4191 101.047 45.4391C100.725 45.6605 99.6576 46.6486 99.315 46.4179C99.0167 46.2198 99.3196 45.3832 99.3173 45.0895C99.3033 43.2718 97.5788 43.4536 97.3597 41.9108C97.3225 41.6544 97.4297 41.3585 97.425 41.0695C97.4244 41.0321 97.412 40.9957 97.3895 40.9652C97.3669 40.9348 97.3354 40.9118 97.2991 40.8994C96.1774 40.5187 95.3144 39.8227 94.71 38.8113C94.6665 38.7383 94.6246 38.739 94.5842 38.8136C93.4189 40.953 90.9207 46.038 91.7061 48.4104C91.7178 48.4457 91.7367 48.4782 91.7615 48.5059C91.7864 48.5336 91.8167 48.5558 91.8505 48.5712C93.0764 49.1119 94.6611 48.8462 95.563 48.9208C95.9187 48.9503 96.1339 49.1437 96.2085 49.5011C96.2165 49.5413 96.2154 49.583 96.2054 49.6232C96.1953 49.6635 96.1765 49.7013 96.1502 49.7341L95.4721 50.5778C95.461 50.5914 95.4529 50.6071 95.4483 50.6241C95.4437 50.641 95.4427 50.6587 95.4453 50.676C95.448 50.6933 95.4542 50.7099 95.4636 50.7247C95.473 50.7395 95.4854 50.7522 95.5 50.7619C97.1749 51.8696 98.9647 52.7404 100.869 53.3743C101.247 53.5002 101.361 53.379 101.212 53.0108C101.028 52.554 100.126 50.7595 100.592 50.2235C100.791 49.9951 100.985 49.9983 101.175 50.2329C101.729 50.9196 102.061 51.6871 102.17 52.5353C102.312 53.6237 103.03 55.791 103.906 56.4971C106.101 58.2683 106.437 61.6684 106.467 64.2878C106.511 67.9047 106.057 71.6404 106.388 75.2317C106.929 81.1262 107.552 87.0121 108.259 92.8895C108.777 97.1985 99.1658 97.1077 96.6653 96.7907C94.0272 96.4551 91.7457 95.4554 90.4569 93.055C90.3591 92.8748 90.3171 92.8872 90.3311 93.0923L90.5059 95.9005C90.5077 95.9318 90.5213 95.9612 90.5439 95.9824C90.5665 96.0037 90.5963 96.0153 90.6271 96.0147C92.5217 95.9657 94.3278 97.0937 95.8333 98.0608C98.3642 99.6851 101.932 98.217 104.223 96.8397C104.534 96.6517 104.685 96.7394 104.677 97.103C104.665 97.58 104.636 98.0554 104.591 98.5292C103.847 106.4 103.107 114.414 102.373 122.573C102.365 122.658 102.375 122.744 102.401 122.825C102.428 122.907 102.47 122.982 102.526 123.046L103.025 123.612C103.08 123.675 103.109 123.757 103.104 123.84C103.072 124.565 102.881 125.187 103.111 125.896C105.328 132.642 108.266 139.161 110.378 145.94C110.599 146.653 110.333 147.131 109.8 147.553C109.635 147.683 109.658 147.737 109.867 147.714C110.65 147.623 111.04 148.981 111.405 150.056C111.416 150.088 111.437 150.116 111.464 150.136C111.491 150.156 111.523 150.167 111.557 150.167L125.614 150.545C125.69 150.548 125.765 150.527 125.829 150.484C126.767 149.863 127.214 149 127.169 147.895C126.979 143.335 126.675 137.624 126.257 130.762C126.094 128.082 125.824 122.736 126.12 118.855C126.165 118.274 126.299 117.689 126.523 117.098C128.178 112.745 129.868 108.406 131.594 104.08C132.713 103.767 132.641 103.47 132.3 104.346C130.741 108.319 129.252 112.342 127.611 116.28C127.066 117.59 126.782 118.927 126.758 120.291C126.703 123.602 126.783 127.157 127.001 130.955C127.298 136.121 127.583 141.287 127.856 146.453C127.945 148.1 128.196 149.431 126.835 150.657C126.778 150.708 126.786 150.743 126.861 150.762C128.488 151.172 130.937 151.549 132.403 150.568C132.431 150.549 132.464 150.537 132.497 150.532C132.531 150.528 132.566 150.531 132.598 150.541C132.631 150.552 132.661 150.569 132.685 150.593C132.71 150.617 132.729 150.646 132.741 150.678C133.284 152.141 133.654 154.609 131.475 154.933C128.495 155.373 125.502 155.557 122.494 155.486C121.974 155.472 121.524 155.348 121.091 155.115C120.729 154.919 120.68 154.664 120.944 154.348C121.32 153.896 121.746 153.499 122.223 153.157C123.064 152.555 123.821 152.023 124.493 151.563C124.733 151.399 124.707 151.313 124.416 151.305L112.119 150.96C112.068 150.958 112.018 150.968 111.972 150.988C111.925 151.008 111.884 151.037 111.85 151.075C111.816 151.112 111.791 151.157 111.777 151.205C111.762 151.253 111.758 151.304 111.764 151.354C111.988 152.985 111.594 153.006 110.189 153.589C108.709 154.204 102.766 156.446 102.067 154.689C101.608 153.535 103.768 151.547 104.549 150.89C104.667 150.79 104.649 150.739 104.496 150.736L92.4611 150.433C92.1224 150.425 91.8591 150.281 91.6711 150C91.2003 149.297 90.8772 148.442 90.7016 147.434C90.161 144.314 89.8324 141.174 89.7159 138.014C89.6863 137.209 89.6475 136.532 89.5993 135.982C89.1868 131.184 89.1262 126.329 88.9025 121.515C88.9017 121.495 88.9051 121.476 88.9125 121.458C88.9199 121.44 88.931 121.424 88.9451 121.411C88.9593 121.397 88.9761 121.387 88.9945 121.381C89.0129 121.375 89.0324 121.373 89.0517 121.375L89.6483 121.442C89.66 121.444 89.6718 121.442 89.6829 121.438C89.6939 121.434 89.7039 121.427 89.712 121.419C89.7201 121.41 89.7262 121.4 89.7297 121.389C89.7331 121.377 89.734 121.365 89.7321 121.354C89.6133 120.622 89.4898 119.932 89.4572 119.184C89.1837 112.789 89.0229 106.391 88.9748 99.9904C88.9631 98.3055 88.8466 97.4805 89.6739 96.3759C89.7145 96.3233 89.7351 96.2573 89.7321 96.1895L89.5364 92.3722C89.5286 92.2122 89.4983 92.2075 89.4455 92.3582C88.6625 94.5745 87.954 96.525 85.0363 95.7909C85.022 95.7876 85.0072 95.7871 84.9928 95.7897C84.9783 95.7922 84.9646 95.7977 84.9524 95.8058C84.9401 95.8139 84.9297 95.8244 84.9217 95.8367C84.9137 95.8489 84.9083 95.8627 84.9058 95.8772C83.8509 102.814 82.8853 109.763 82.009 116.723C81.6152 119.855 81.7527 122.167 82.263 125.129C83.6473 133.139 85.3905 141.095 86.6699 149.116C86.7849 149.844 86.6513 150.51 86.2691 151.116C86.2613 151.128 86.2562 151.142 86.2542 151.156C86.2521 151.17 86.2531 151.185 86.257 151.199C86.261 151.212 86.2679 151.225 86.2772 151.236C86.2866 151.246 86.2981 151.255 86.311 151.26C87.2246 151.675 89.4339 152.493 90.1703 151.806C90.1977 151.781 90.2188 151.749 90.2318 151.714C90.2447 151.679 90.2492 151.641 90.2449 151.603C90.2029 151.213 90.3334 150.908 90.6364 150.687C90.6717 150.661 90.7148 150.647 90.759 150.648C90.8033 150.649 90.8461 150.664 90.8811 150.692C91.2742 151.001 91.3316 151.384 91.0535 151.841C91.0352 151.871 91.0232 151.905 91.0184 151.94C91.0136 151.975 91.016 152.011 91.0256 152.046C91.2679 152.958 91.2275 153.728 90.9044 154.355C90.4196 155.294 89.3919 155.306 88.2267 155.357C85.5731 155.474 82.8822 155.399 80.154 155.131C79.9374 155.11 79.7326 155.02 79.569 154.875C79.2474 154.591 79.5014 154.213 79.837 154.085C81.4559 153.473 83.0111 152.728 84.5026 151.85C84.7186 151.723 84.7015 151.661 84.4513 151.664C79.6087 151.717 69.9303 151.638 69.9303 151.638C69.9303 151.638 24.3768 151.673 1.6036 151.845L0.568879 151.789C0.489643 151.785 0.478771 151.755 0.536256 151.699C0.881164 151.372 1.2952 151.188 1.77839 151.146L85.2787 150.878C85.3459 150.878 85.412 150.861 85.471 150.829C85.53 150.797 85.5801 150.751 85.6166 150.694C86.3553 149.529 85.1924 144.863 84.4537 141.065C83.5339 136.331 82.653 131.59 81.8109 126.842C81.24 123.633 80.7599 121.242 81.0769 118.354C81.9088 110.757 83.0904 103.197 84.1391 95.6278C84.1426 95.6023 84.1386 95.5763 84.1274 95.553C84.1162 95.5298 84.0984 95.5104 84.0761 95.4973L83.0321 94.8797C82.5085 94.5721 82.486 94.2311 82.9645 93.8567C83.4244 93.4993 83.9511 93.2803 84.5446 93.1995C84.8724 93.1544 85.0363 93.2974 85.0363 93.6283L85.034 94.8984C85.0339 94.9268 85.0426 94.9545 85.0589 94.9775C85.0752 95.0006 85.0983 95.0177 85.1248 95.0266C88.3059 96.0892 88.6462 91.9317 89.1216 90.0068C89.2428 89.5174 89.2855 89.0264 89.2498 88.5339C89.1006 86.48 88.946 84.4541 88.786 82.4561C88.7689 82.2432 88.7037 82.2269 88.5902 82.4071C87.0521 84.8463 85.4278 87.2257 83.7172 89.5453C83.5106 89.8265 83.2589 89.8739 82.9622 89.6875L82.8014 89.5873C82.7643 89.5635 82.7357 89.5286 82.7198 89.4875C82.7039 89.4465 82.7014 89.4014 82.7128 89.3589C83.081 87.9684 83.3669 86.5592 83.5704 85.1314C84.2602 80.2794 84.8638 75.2853 86.0827 70.5358C86.1728 70.1847 86.3134 69.8545 86.5045 69.5453C86.7158 69.2036 87.0024 69.0855 87.3644 69.1911C88.1521 69.9206 88.3758 72.0389 88.539 73.0853L89.28 79.4684C89.3002 79.6471 89.3585 79.6611 89.4548 79.5104C89.6809 79.1538 90.4383 77.3967 90.9603 77.6833C91.0455 77.7293 91.1114 77.8042 91.1465 77.8947C91.1815 77.9852 91.1832 78.0854 91.1514 78.1774C90.6667 79.557 89.5038 82.9618 89.9582 84.3018C90.1011 84.7228 90.3552 84.8067 90.7203 84.5535C92.0416 83.64 93.7452 82.5237 94.1903 81.0788C94.5678 79.8483 93.9037 79.797 93.0577 79.3542C93.0249 79.3367 92.9964 79.3123 92.9743 79.2829C92.9521 79.2535 92.9368 79.2198 92.9296 79.1841C92.8441 78.7833 92.9723 78.4951 93.3141 78.3195C95.8123 77.0378 99.4874 75.8586 102.202 73.6027C102.4 73.4395 102.37 73.3533 102.114 73.344C101.205 73.3114 98.243 73.2811 97.5928 72.7404C96.2062 71.5868 100.576 66.1802 101.387 65.0685C101.432 65.0064 101.418 64.9854 101.345 65.0056C99.8129 65.4235 98.2601 65.5175 96.6862 65.2876L92.9086 72.9105C92.4953 73.6703 92.089 74.4354 91.6897 75.206C91.0209 76.4924 90.3055 73.358 90.2099 73.0853L87.9563 65.4531C87.6441 64.2816 87.3869 63.0954 87.185 61.8945C87.0195 60.9063 87.7862 59.7225 88.3595 58.9791C88.3812 58.9509 88.3949 58.9174 88.399 58.8821C88.4031 58.8468 88.3975 58.811 88.3828 58.7786L88.2011 58.3825C88.1937 58.3659 88.1827 58.3513 88.1687 58.3397C88.1548 58.3282 88.1383 58.3201 88.1207 58.316C88.103 58.3119 88.0847 58.312 88.0671 58.3163C88.0495 58.3205 88.0331 58.3288 88.0193 58.3405C87.4134 58.8322 86.36 59.9043 85.4162 59.1935C83.7988 57.9723 81.7985 56.3985 79.4152 54.472C78.4947 53.7309 78.0496 53.1413 77.7163 51.9411C76.36 47.058 75.2064 42.1291 74.2556 37.1543C74.2482 37.1163 74.2289 37.0815 74.2005 37.0547C74.1721 37.028 74.136 37.0107 74.0971 37.0052L73.2861 36.898C73.2688 36.8957 73.2512 36.8969 73.2343 36.9016C73.2175 36.9063 73.2017 36.9143 73.188 36.9252C73.1743 36.936 73.163 36.9495 73.1546 36.9649C73.1462 36.9802 73.141 36.9971 73.1393 37.0145C72.7827 40.403 72.4239 44.3018 71.2749 47.5179C71.1444 47.8861 70.8842 48.0927 70.4942 48.1378C67.6868 48.4563 64.8833 48.398 62.0836 47.963C61.1188 47.8138 60.8485 47.2778 60.8159 46.3223C60.7413 44.211 60.6962 41.9737 60.6807 39.6106C60.6791 39.2564 60.5067 39.035 60.1633 38.9465C59.2513 38.7088 58.3277 38.6147 57.3924 38.6645C57.3408 38.667 57.2916 38.6871 57.253 38.7214C57.2145 38.7558 57.1888 38.8023 57.1803 38.8532C56.7174 41.5488 56.2272 44.2343 55.7098 46.9096C55.4535 48.2473 54.8359 51.2559 53.913 51.8782C52.5544 52.7894 45.4675 51.8082 43.659 51.461C42.5055 51.2396 40.2193 50.7479 40.2612 49.1981C40.2938 47.9847 40.3731 46.7752 40.4989 45.5696C41.0287 40.4613 41.6486 35.3793 42.3586 30.3238C42.3642 30.2845 42.3546 30.2445 42.3317 30.2117C42.3088 30.1789 42.2744 30.1557 42.2351 30.1467C40.0655 29.6642 31.1445 27.3035 31.3146 24.3508C31.4987 21.1511 32.3517 14.7796 34.4957 12.6309C35.2158 11.9085 35.81 11.806 36.7795 11.9807C42.5948 13.0357 46.736 13.807 49.2032 14.2949C82.9544 20.9662 116.664 27.723 150.331 34.5652C150.394 34.5781 150.46 34.5701 150.518 34.5423C150.577 34.5146 150.625 34.4687 150.655 34.4114C151.342 33.104 152.44 34.43 152.967 35.0173C153.015 35.0703 153.08 35.107 153.151 35.1222L161.676 36.8677C161.69 36.8707 161.706 36.8708 161.72 36.8678C161.735 36.8648 161.749 36.8589 161.761 36.8504C161.774 36.842 161.784 36.8311 161.792 36.8184C161.801 36.8058 161.806 36.7916 161.809 36.7768C162.988 29.6689 164.733 22.6799 167.43 16.0637C169.627 10.6687 173.002 5.1059 178.527 2.64261C186.253 -0.801808 195.747 0.14669 203.165 3.77055C210.256 7.23594 215.034 13.0225 216.593 20.8784C217.21 23.981 217.598 27.406 217.758 31.1534C218.246 42.5291 217.318 53.7837 214.973 64.9171C214.958 64.9948 214.979 65.0072 215.036 64.9543C215.409 64.6157 215.756 64.2614 216.078 63.8917C217.842 61.8642 219.725 59.9579 221.536 58.224C221.798 57.9739 222.119 57.7323 222.498 57.4992C222.53 57.4802 222.566 57.4685 222.603 57.4649C222.64 57.4613 222.678 57.4658 222.713 57.4782C223.5 57.7626 222.883 58.4104 223.03 58.6714C223.075 58.7507 223.117 58.7491 223.158 58.6668C223.52 57.9304 224.003 57.298 224.607 56.7698C225.616 55.8889 225.414 58.0539 225.556 58.4454C225.568 58.4776 225.586 58.5069 225.61 58.5317C225.634 58.5564 225.663 58.5759 225.694 58.5891C225.726 58.6022 225.76 58.6086 225.794 58.6079C225.829 58.6073 225.863 58.5995 225.894 58.5852C228.206 57.5295 229.576 55.234 231.871 54.1806C231.887 54.1737 231.9 54.1637 231.912 54.1512C231.923 54.1387 231.932 54.1241 231.937 54.1082C231.943 54.0922 231.945 54.0754 231.944 54.0586C231.942 54.0418 231.937 54.0254 231.93 54.0105C231.541 53.2865 231.333 52.5136 231.305 51.6917C231.302 51.5861 231.259 51.5667 231.177 51.6335C229.804 52.7521 225.88 55.4624 224.076 54.416C221.993 53.2042 221.492 46.8863 221.55 44.7563C221.587 43.358 222.051 42.547 223.51 42.4794C224.708 42.4235 225.745 42.4274 226.623 42.4911C226.641 42.4924 226.659 42.49 226.676 42.4839C226.692 42.4779 226.708 42.4685 226.721 42.4562C226.734 42.4439 226.744 42.4291 226.751 42.4126C226.758 42.3961 226.761 42.3784 226.761 42.3606L226.756 42.0926C226.755 42.0544 226.74 42.0181 226.713 41.9908C226.687 41.9636 226.651 41.9475 226.614 41.9458C224.882 41.8587 223.152 41.7267 221.426 41.5496C218.753 41.2792 218.217 39.6153 219.564 37.4969C220.769 35.5999 221.459 35.4438 223.265 36.891C223.294 36.9144 223.327 36.9315 223.363 36.9411C223.398 36.9508 223.436 36.9527 223.472 36.9469C224.341 36.8087 225.205 36.6758 226.064 36.5484C227.849 36.2851 228.991 37.2149 230.345 38.1448C230.375 38.1657 230.409 38.1794 230.445 38.1847C230.481 38.1899 230.518 38.1866 230.552 38.1751C235.425 36.5158 234.421 44.5745 233.913 46.8141C233.751 47.5241 233.379 48.1378 232.797 48.6551C232.771 48.6766 232.754 48.7058 232.747 48.7386C232.74 48.7713 232.743 48.8058 232.757 48.8369C233.025 49.4568 232.78 49.9975 232.813 50.5009C232.945 52.4429 233.229 54.0253 233.666 55.248C233.985 56.1429 234.798 56.7162 235.81 57.4316C237.271 58.753 237.621 59.4521 237.737 60.6174C237.965 62.8919 235.836 66.7288 234.418 71.6264C232.986 76.5679 232.478 81.3245 232.027 82.4072ZM203.897 31.5449C204.145 33.9065 204.242 36.2757 204.188 38.6528C204.022 42.2743 203.593 46.6051 202.901 51.6451C202.103 57.4666 201.44 61.5255 200.914 63.8218C199.159 71.4796 195.395 77.7742 186.229 75.7793C180.823 74.6024 176.94 72.251 175.164 66.7255L174.475 63.9383C174.147 61.7989 174.04 59.6844 174.153 57.5948C174.167 57.3353 174.102 57.3136 173.957 57.5295C172.997 58.9721 171.89 58.8299 170.315 58.6295C167.635 58.2892 164.593 57.0867 161.489 56.5694C160.902 56.4715 160.35 56.4793 159.832 56.5927C159.548 56.6548 159.4 56.8319 159.39 57.124C159.226 61.8688 160.058 67.0331 161.133 71.6451C164.123 84.4859 174.246 91.4819 187.113 92.0669C191.241 92.2533 194.93 91.9853 198.18 91.2629C201.582 90.5055 204.239 88.1354 206.155 85.3435C206.268 85.1773 206.235 85.1377 206.055 85.2247L204.512 85.9727C204.477 85.9896 204.44 85.9991 204.402 86.0007C204.364 86.0023 204.326 85.996 204.29 85.9821C203.824 85.8026 203.878 85.3831 204.207 85.0872C204.233 85.0627 204.253 85.0322 204.265 84.9986C204.278 84.9649 204.281 84.9289 204.276 84.8937C204.162 84.0757 204.008 82.7404 203.06 82.4771C203.037 82.4703 203.012 82.4699 202.988 82.4757C202.965 82.4816 202.943 82.4936 202.926 82.5105C202.908 82.5274 202.895 82.5487 202.888 82.5722C202.881 82.5958 202.88 82.6208 202.885 82.6448L203.591 85.7886C203.61 85.8702 203.596 85.9557 203.552 86.0268C203.508 86.0978 203.439 86.1487 203.358 86.1685C200.913 86.7806 198.444 87.2389 195.952 87.5435C195.428 87.6087 194.929 87.5435 194.454 87.3477C194.11 87.2063 194.037 86.9787 194.234 86.6649C194.955 85.5183 197.341 84.2342 198.513 83.4302C198.563 83.3976 198.56 83.3704 198.504 83.3486L195.526 82.223C195.179 82.091 195.08 81.8548 195.227 81.5146L195.281 81.3934C195.388 81.1479 195.575 81.0252 195.843 81.0252C197.809 81.0205 199.77 81.1308 201.725 81.3561C201.76 81.3596 201.795 81.3535 201.827 81.3382C201.859 81.323 201.885 81.2993 201.904 81.2699C202.15 80.8908 202.501 80.5886 202.96 80.3633C205.444 79.1406 207.907 78.0197 210.35 77.0005C210.442 76.9614 210.525 76.904 210.594 76.8319C210.663 76.7597 210.716 76.6744 210.75 76.581C211.824 73.6741 212.725 70.7183 213.454 67.7136C216.522 55.0453 217.659 42.1982 216.866 29.1725C216.662 25.8586 216.281 22.9386 215.721 20.4123C213.065 8.43146 201.839 1.68246 190.14 1.26997C183.47 1.03226 176.686 2.89197 172.55 8.4804C169.609 12.4538 167.569 17.2383 166.066 21.9877C164.463 27.0572 163.272 32.2006 162.494 37.4177C162.486 37.4663 162.469 37.513 162.443 37.5548C162.418 37.5966 162.384 37.6327 162.343 37.6609C162.303 37.689 162.258 37.7086 162.21 37.7185C162.162 37.7284 162.113 37.7283 162.065 37.7183L153.827 36.0311C153.642 35.9922 153.597 36.0551 153.692 36.2198C154.586 37.7533 155.393 39.9159 153.955 41.489C153.904 41.5449 153.915 41.5674 153.99 41.5566C154.719 41.454 155.868 40.9879 156.239 42.039C157.409 45.3762 158.133 49.0777 158.413 53.1436C158.416 53.1871 158.441 53.2112 158.488 53.2158C158.502 53.2176 158.516 53.2162 158.529 53.2117C158.543 53.2071 158.555 53.1995 158.566 53.1895C158.576 53.1794 158.584 53.1672 158.589 53.1536C158.851 52.8103 158.933 52.5488 159.944 52.6495C164.712 53.1809 169.644 53.8194 174.239 55.2294C174.269 55.2385 174.302 55.2358 174.329 55.2219C174.357 55.208 174.378 55.1839 174.388 55.1548C176.588 48.6645 177.495 41.7873 178.718 35.0662C179.184 32.5058 179.485 30.9817 179.62 30.4939C181.841 22.5424 190.312 15.9798 198.476 20.9344C202.121 23.1483 203.57 27.5086 203.897 31.5449ZM88.3549 57.5388L88.8116 57.9956C89.7904 59.7434 90.2495 61.7989 90.8018 63.7146L91.1794 65.3832C91.1871 65.4164 91.1851 65.4511 91.1735 65.483C91.1619 65.5149 91.1413 65.5426 91.1141 65.5626L90.3637 66.1266C90.3541 66.1339 90.3427 66.1387 90.3307 66.1405C90.3188 66.1422 90.3065 66.141 90.2951 66.1368C90.2838 66.1326 90.2736 66.1257 90.2657 66.1166C90.2577 66.1074 90.2521 66.0965 90.2495 66.0846L89.6622 63.7192L88.786 59.9485C88.7658 59.8646 88.7308 59.8576 88.6811 59.9276C87.6697 61.3328 87.8655 62.2883 88.4131 63.8311C89.235 67.232 90.2161 70.601 91.3565 73.9382C91.4 74.0688 91.452 74.0727 91.5126 73.9499L92.7687 71.3491C93.8423 69.1116 95 66.9841 96.057 64.6258C96.089 64.5543 96.1449 64.4961 96.215 64.4613C96.2852 64.4264 96.3652 64.417 96.4415 64.4347C97.4996 64.684 99.9955 64.9893 100.89 64.2482C100.953 64.1969 100.944 64.1791 100.865 64.1946C98.3176 64.684 97.1686 64.5931 95.3439 63.2881C93.0911 61.6101 90.958 59.8188 88.9445 57.914C88.931 57.9005 88.913 57.8915 88.8932 57.8884L88.8303 57.8791L88.4224 57.4713C86.9333 55.9471 84.8801 54.2482 83.906 52.4212C81.9438 48.7359 80.0662 44.6491 78.2733 40.1606C78.0286 39.5477 77.9167 38.8742 77.7816 38.2287C77.5439 37.0984 76.9729 36.059 76.5394 34.9847C76.3468 34.5093 76.0508 33.9181 75.6515 33.2112C74.5391 31.2412 74.0233 29.0917 74.1041 26.7628C74.1787 24.6165 75.4092 25.1944 76.2505 26.3946C76.9993 27.4604 77.7427 28.5526 78.4807 29.6712C78.5957 29.8437 78.6928 29.8344 78.772 29.6433L79.576 27.723C79.7314 27.3501 79.9753 27.2794 80.3078 27.5109C80.3839 27.5637 80.4515 27.6298 80.5106 27.709C80.9091 28.2403 80.909 31.3119 80.9347 32.1042C80.9487 32.5517 81.1304 32.8966 81.3052 33.2904C81.3225 33.3286 81.3294 33.3707 81.3254 33.4124C81.3214 33.4542 81.3064 33.4941 81.2822 33.5283C81.2579 33.5624 81.2251 33.5897 81.187 33.6072C81.1489 33.6248 81.1069 33.6321 81.0652 33.6284C79.9 33.5258 78.7573 33.6408 77.6371 33.9733C77.2782 34.0805 77.1726 34.3065 77.3202 34.6514L77.8561 35.9075C77.8691 35.9386 77.8936 35.9633 77.9246 35.9763C77.9555 35.9894 77.9904 35.9898 78.0216 35.9775L80.8718 34.8542C81.2617 34.7004 81.5686 34.8006 81.7923 35.1548C82.2926 35.9472 82.74 36.7333 83.1346 37.5132C84.9089 41.0244 86.7096 44.5248 88.5366 48.0143C89.1752 49.2308 90.133 49.6293 91.3705 50.2026C94.9547 51.8665 98.5087 53.3254 102.077 55.2666C102.193 55.3303 102.227 55.3 102.177 55.1758L101.813 54.2645C101.799 54.2297 101.775 54.1999 101.744 54.1791C101.712 54.1583 101.674 54.1475 101.636 54.148C99.7135 54.176 97.0987 52.6542 95.4814 51.6591C94.8405 51.2652 94.1227 50.5731 94.9501 49.9182C95.2297 49.6976 95.1924 49.6098 94.8382 49.6549C93.2978 49.8553 90.7762 49.8413 90.7529 47.66C90.7179 44.6095 92.7361 40.5638 94.1344 37.8744C94.1695 37.8058 94.1848 37.7292 94.1787 37.6531C94.1297 37.1613 93.9899 36.651 94.0342 36.1965C94.1678 34.7765 94.9951 34.0642 96.5161 34.0595C100.476 34.0455 103.533 36.616 105.875 39.564C105.924 39.6246 105.989 39.6686 106.062 39.6899C113.817 41.9256 121.599 44.0649 129.406 46.1079C130.946 46.5111 132.475 46.7255 134.032 46.9516C134.37 47.0005 134.771 47.2825 135.141 47.1473C135.808 46.9026 136.006 46.8164 136.616 47.0751C136.647 47.0881 136.682 47.0918 136.715 47.0855C136.748 47.0793 136.778 47.0635 136.803 47.0401C139.837 44.1061 143.605 45.3319 145.91 48.3149C148.119 51.1744 149.578 55.4647 149.38 59.049C149.369 59.2245 149.403 59.2339 149.483 59.0769C150.597 56.884 152.077 54.0944 152.372 51.9061C152.666 49.7411 151.974 47.0821 151.37 45.0779C151.164 44.3865 151.191 43.7433 151.452 43.1483C151.466 43.1154 151.469 43.0789 151.461 43.0444C151.452 43.0098 151.433 42.9792 151.405 42.9572C150.248 42.0141 149.317 40.8846 148.613 39.5687C148.472 39.3046 148.445 39.0296 148.532 38.7437C148.867 37.6321 150.641 38.7274 151.044 39.2354C151.142 39.3566 151.179 39.3403 151.154 39.1865L150.564 35.4904C150.559 35.4588 150.544 35.4294 150.521 35.4062C150.499 35.3829 150.47 35.3668 150.438 35.3599C119.74 29.1112 89.0253 22.9401 58.2943 16.8467C51.0559 15.4112 43.8058 14.0323 36.5441 12.7102C36.207 12.6496 35.9483 12.6418 35.7681 12.6869C33.3864 13.2788 32.1885 22.0856 32.051 24.1481C31.8809 26.7512 40.9371 29.0979 42.9879 29.606C43.0492 29.6215 43.1026 29.6591 43.1379 29.7115C43.1731 29.764 43.1878 29.8277 43.179 29.8903C42.3322 35.7242 41.6339 41.5923 41.0839 47.4946C41.0256 48.1261 41.0512 48.788 41.0466 49.4335C41.0466 49.5084 41.0758 49.581 41.1281 49.6363C42.7175 51.2722 49.8767 51.4424 52.1186 51.4004C52.9506 51.3841 53.5518 51.4447 53.8618 50.7199C55.2158 47.5365 55.3742 43.3697 56.5371 38.4407C56.6117 38.1222 56.8121 37.9482 57.1384 37.9187C58.3797 37.8069 59.5916 37.9506 60.7739 38.3499C61.1763 38.4866 61.3853 38.7678 61.4008 39.1935C61.4847 41.5985 61.5422 44.002 61.5733 46.4039C61.5795 46.9026 61.8467 47.1916 62.3749 47.2708C64.9897 47.6639 67.6169 47.7035 70.2565 47.3897C70.342 47.3799 70.4229 47.3457 70.4895 47.2912C70.556 47.2366 70.6054 47.164 70.6317 47.0821C71.7084 43.7169 72.0743 39.8786 72.4448 36.369C72.4492 36.3278 72.4616 36.2878 72.4815 36.2515C72.5013 36.2151 72.5281 36.183 72.5604 36.157C72.5926 36.131 72.6297 36.1117 72.6695 36.1001C72.7092 36.0884 72.7509 36.0848 72.7921 36.0893L73.9293 36.2152C74.0171 36.2242 74.1054 36.2046 74.181 36.1592C74.7465 35.8236 75.2251 35.9495 75.6166 36.5368C75.8232 36.8459 75.7432 37.0308 75.3765 37.0914L75.1342 37.1334C75.1196 37.1359 75.1058 37.1413 75.0933 37.1492C75.0809 37.157 75.0701 37.1672 75.0617 37.1791C75.0532 37.191 75.0472 37.2044 75.0441 37.2186C75.0409 37.2327 75.0407 37.2473 75.0433 37.2615C75.9817 42.0809 77.1042 46.8584 78.4108 51.5938C78.751 52.8313 79.2125 53.3067 80.161 54.0735C82.0937 55.6411 84.0552 57.1815 86.0454 58.6947C86.0759 58.718 86.1134 58.7305 86.1518 58.73C86.1902 58.7296 86.2274 58.7164 86.2574 58.6924C86.7538 58.2986 87.707 57.4736 88.3549 57.5388ZM174.997 56.2897C174.463 62.2836 175.446 70.5894 181.676 73.5071C184.768 74.9543 189.154 75.9494 192.37 74.959C197.357 73.4209 199.285 67.7253 200.277 63.1809C200.813 60.7277 201.471 56.6494 202.251 50.946C203.291 43.344 204.125 36.5041 202.794 29.3986C202.1 25.6862 200.51 22.6636 196.942 21.0229C189.145 17.434 182.004 24.0805 180.219 31.2536C178.728 37.2522 177.726 47.7999 174.966 55.8399C174.91 56.0007 175.013 56.1173 174.997 56.2897ZM78.5623 30.5755C78.1614 30.4372 77.8445 30.1824 77.6115 29.8111C76.8502 28.6008 76.0469 27.4107 75.2018 26.2408C75.0542 26.0388 74.9695 26.0621 74.9477 26.3107C74.7178 28.9208 75.3074 31.3057 76.7166 33.4652C76.7251 33.4785 76.7361 33.4899 76.7491 33.4988C76.762 33.5077 76.7766 33.514 76.792 33.5173C76.8074 33.5205 76.8233 33.5207 76.8387 33.5177C76.8542 33.5148 76.8689 33.5088 76.882 33.5002C77.7676 32.9246 79.0237 32.8756 80.1213 32.822C80.1469 32.8202 80.1708 32.8083 80.1878 32.7887C80.2048 32.769 80.2136 32.7434 80.2122 32.7171L79.9815 29.1306C79.9722 28.9892 79.9365 28.9814 79.8743 29.1073L79.3057 30.2678C79.1488 30.5894 78.901 30.692 78.5623 30.5755ZM97.8654 34.9707C96.7771 34.5559 94.5912 34.8262 94.8522 36.4389C94.8693 36.5414 94.9081 36.5507 94.9687 36.4668C95.674 35.5083 96.635 35.0352 97.8515 35.0476C98.0006 35.0492 98.0053 35.0235 97.8654 34.9707ZM85.5397 53.2834C88.6019 56.9119 92.7781 60.4473 96.1712 62.8849C98.4084 64.4953 100.298 63.3953 102.65 63.0317C102.686 63.0265 102.721 63.014 102.753 62.9948C102.784 62.9755 102.812 62.9501 102.834 62.9199C103.351 62.2161 104.176 60.9366 103.96 60.0231C103.702 58.9387 103.335 57.883 102.86 56.856C102.785 56.6934 102.663 56.5563 102.51 56.4622C98.9375 54.2762 94.957 52.6775 91.1351 50.9669C88.7068 49.8786 88.1987 49.1888 86.9752 46.7348C85.1559 43.0869 83.2877 39.4561 81.3705 35.8423C81.3265 35.7587 81.253 35.6945 81.1642 35.6621C81.0754 35.6298 80.9778 35.6317 80.8904 35.6675L78.285 36.7232C78.2584 36.734 78.2369 36.7546 78.2248 36.781C78.2127 36.8073 78.2109 36.8374 78.2197 36.8654C78.5879 38.0306 78.7371 39.2704 79.1798 40.3494C80.6403 43.8886 82.2304 47.3703 83.9503 50.7945C84.4537 51.7966 84.9835 52.6262 85.5397 53.2834ZM151.412 40.4613C150.939 40.1816 149.923 39.0886 149.52 39.0816C149.306 39.077 149.253 39.1671 149.362 39.352C150 40.4348 150.787 41.3965 151.722 42.2371C151.786 42.2947 151.87 42.3253 151.956 42.3222C152.042 42.3192 152.124 42.2828 152.184 42.2207C152.769 41.6102 154.113 40.3587 154.025 39.4708C153.918 38.4112 153.501 37.3221 152.776 36.2035C152.459 35.7141 152.046 35.6069 151.501 35.6302C151.486 35.631 151.471 35.6349 151.458 35.6418C151.445 35.6486 151.433 35.6581 151.423 35.6697C151.414 35.6814 151.407 35.6949 151.403 35.7093C151.399 35.7238 151.398 35.7389 151.401 35.7537C151.643 37.3687 152.326 39.9159 151.61 40.4519C151.582 40.4726 151.548 40.4845 151.513 40.4862C151.478 40.4878 151.443 40.4792 151.412 40.4613ZM95.1411 37.8861C95.6259 39.2005 96.9123 40.107 98.2803 40.3843C98.3263 40.3938 98.3693 40.4146 98.4052 40.4449C98.4411 40.4752 98.4689 40.514 98.4861 40.5577C98.5032 40.6015 98.5092 40.6489 98.5033 40.6955C98.4975 40.7422 98.4801 40.7866 98.4527 40.8248C97.7303 41.8269 98.2337 42.272 99.075 42.8919C99.7477 43.3875 100.096 44.0913 100.121 45.0033C100.121 45.0156 100.125 45.0275 100.131 45.0381C100.137 45.0487 100.146 45.0576 100.157 45.0639C100.167 45.0701 100.18 45.0737 100.192 45.0741C100.205 45.0745 100.217 45.0718 100.229 45.0662C100.511 44.9241 100.741 44.712 101.019 44.6328C101.769 44.416 102.137 45.0406 102.018 45.7118C101.858 46.6331 101.423 47.4192 100.713 48.0702C100.704 48.0791 100.696 48.0903 100.692 48.1027C100.687 48.1151 100.686 48.1284 100.688 48.1415C100.69 48.1546 100.695 48.167 100.702 48.1777C100.71 48.1884 100.72 48.1971 100.732 48.203C103.862 49.818 105.754 46.6183 105.947 44.0502C106.271 39.6945 102.93 37.406 99.2591 36.1429C97.3434 35.4826 95.9747 35.9914 95.1528 37.6694C95.1366 37.7026 95.1272 37.7388 95.1252 37.776C95.1232 37.8132 95.1286 37.8506 95.1411 37.8861ZM220.079 40.3657C220.233 40.4999 220.421 40.5893 220.622 40.6244C224.258 41.2489 227.982 41.0625 231.662 41.6917C232.709 41.8704 233.317 42.4926 233.486 43.5584C233.488 43.5664 233.489 43.5739 233.491 43.5798C233.494 43.5857 233.496 43.5896 233.498 43.5911L233.556 43.6097C233.559 43.6105 233.562 43.6108 233.564 43.6104C233.567 43.6101 233.569 43.6092 233.571 43.6078C233.574 43.6064 233.575 43.6046 233.576 43.6025C233.577 43.6004 233.578 43.598 233.577 43.5957C233.612 41.6964 233.74 37.9653 230.862 38.9115C230.699 38.9659 230.525 39.0102 230.34 39.0443C230.305 39.0515 230.268 39.0505 230.232 39.0412C230.197 39.0319 230.164 39.0147 230.135 38.9907C229.313 38.2869 227.938 37.2499 226.8 37.3175C225.618 37.3874 224.44 37.5412 223.265 37.7789C223.234 37.7854 223.203 37.7855 223.172 37.7791C223.142 37.7727 223.113 37.7599 223.088 37.7416L221.704 36.7535C221.418 36.5484 221.163 36.5818 220.939 36.8537C220.287 37.6554 219.017 39.4335 220.079 40.3657ZM231.356 44.458C232.361 44.973 231.68 47.7766 231.965 47.8605C231.973 47.8629 231.981 47.8636 231.99 47.8625C231.998 47.8614 232.006 47.8586 232.013 47.8542C232.021 47.8498 232.027 47.844 232.032 47.837C232.037 47.8301 232.04 47.8222 232.042 47.8138C232.256 46.6238 232.464 45.4352 232.666 44.2482C232.831 43.2788 232.486 42.6938 231.631 42.4934C230.785 42.293 229.68 42.1462 228.317 42.053C228.291 42.0515 228.264 42.0602 228.243 42.0774C228.222 42.0946 228.208 42.1191 228.203 42.1462L228.063 42.9758C228.057 43.0156 228.058 43.0565 228.068 43.0961C228.077 43.1357 228.095 43.1733 228.119 43.2065C228.795 44.1247 229.316 45.1222 229.681 46.1988C229.723 46.3216 229.764 46.3216 229.804 46.1988C230.017 45.5634 230.356 45.0111 230.82 44.5419C230.89 44.4729 230.979 44.4276 231.075 44.4125C231.171 44.3974 231.27 44.4133 231.356 44.458ZM231.272 48.6435C231.137 47.6259 231.105 46.6051 231.177 45.5813C231.178 45.5736 231.176 45.5659 231.172 45.5595C231.167 45.5531 231.161 45.5485 231.154 45.5463L231.088 45.5253C231.07 45.5192 231.05 45.5198 231.032 45.5271C231.013 45.5343 230.998 45.5477 230.988 45.5649C230.727 46.0334 230.133 47.9676 229.571 47.8651C229.479 47.8478 229.393 47.8036 229.326 47.738C229.259 47.6725 229.213 47.5886 229.194 47.4969C228.875 45.9759 228.235 44.6056 227.273 43.386C227.25 43.3565 227.221 43.3323 227.187 43.3146C227.154 43.297 227.117 43.2864 227.08 43.2834C225.975 43.2159 223.845 42.9642 222.873 43.4C222.543 43.5491 222.367 43.8055 222.347 44.169C222.202 46.8793 222.545 51.2979 224.19 53.5677C224.406 53.8629 224.694 53.9802 225.052 53.9196C226.607 53.6586 232.139 50.9972 232.009 49.1445C232.007 49.1112 231.995 49.0791 231.975 49.0522C231.956 49.0253 231.928 49.0047 231.897 48.993L231.412 48.8183C231.375 48.8048 231.342 48.7814 231.318 48.7506C231.293 48.7197 231.277 48.6827 231.272 48.6435ZM233.475 45.0974C233.478 45.0816 233.475 45.0653 233.466 45.052C233.457 45.0388 233.443 45.0296 233.427 45.0267L233.4 45.0215C233.384 45.0185 233.368 45.0219 233.354 45.031C233.341 45.04 233.332 45.054 233.329 45.0697L233.008 46.7689C233.005 46.7847 233.008 46.801 233.017 46.8143C233.026 46.8275 233.04 46.8367 233.056 46.8397L233.084 46.8449C233.099 46.8478 233.116 46.8444 233.129 46.8354C233.142 46.8263 233.151 46.8124 233.154 46.7966L233.475 45.0974ZM130.135 57.4153C130.834 58.9511 133.491 60.4193 134.964 61.1394C135.028 61.1705 135.046 61.1534 135.018 61.0881C134.27 59.3061 133.549 57.5148 132.855 55.7141C132.009 53.5165 133.144 50.0464 134.272 48.1098C134.279 48.0975 134.283 48.0837 134.284 48.0696C134.285 48.0554 134.282 48.0414 134.277 48.0285C134.271 48.0155 134.263 48.0042 134.253 47.9952C134.242 47.9863 134.229 47.98 134.216 47.977C132 47.472 129.761 47.1279 127.497 46.9446C127.471 46.9424 127.445 46.9463 127.42 46.9559C127.396 46.9654 127.374 46.9805 127.356 46.9998C127.338 47.0191 127.325 47.0423 127.318 47.0674C127.31 47.0926 127.309 47.1191 127.313 47.145C127.893 50.5778 128.695 54.2552 130.135 57.4153ZM130.089 64.5768C128.694 62.9641 127.328 61.3585 125.992 59.7598C123.307 56.5461 123.267 53.076 122.571 49.1935C122.558 49.1173 122.554 49.1181 122.557 49.1958C122.672 52.1058 123.02 54.9885 123.601 57.8441C124.078 60.2049 128.18 63.351 130.019 64.6537C130.25 64.8169 130.274 64.7912 130.089 64.5768ZM138.579 61.0741C139.909 62.1764 142.282 60.2701 143.039 59.331C143.314 58.9892 143.363 58.6178 143.186 58.217C142.174 55.9448 140.907 55.0802 138.763 54.1387C137.778 53.7052 136.928 53.0752 136.213 52.2487C136.205 52.2394 136.195 52.2323 136.184 52.2282C136.172 52.224 136.16 52.223 136.148 52.2251C136.136 52.2272 136.124 52.2325 136.115 52.2403C136.106 52.2481 136.098 52.2582 136.094 52.2697C135.087 54.8705 136.292 58.1098 137.84 60.2795C138.051 60.5762 138.297 60.8411 138.579 61.0741ZM225.031 59.028C224.809 58.7204 224.691 58.3747 224.677 57.9909C224.668 57.7719 224.609 57.7571 224.5 57.9467C223.228 60.1583 221.916 62.4887 221.102 64.8844C220.764 65.8819 220.461 66.8925 220.193 67.9164C220.151 68.0795 220.19 68.102 220.31 67.9839C223.736 64.6444 226.926 61.0578 230.238 57.6041C231.016 56.7931 231.858 56.0543 232.764 55.3878C232.797 55.3627 232.821 55.3269 232.831 55.2866C232.842 55.2462 232.838 55.2038 232.82 55.1664L232.706 54.9217C232.689 54.8858 232.66 54.8574 232.623 54.8423C232.587 54.8271 232.545 54.8264 232.508 54.8402C230 55.763 228.597 58.2986 226.101 59.331C225.665 59.5112 225.308 59.4102 225.031 59.028ZM232.934 56.2105L231.627 57.3407C231.479 57.4697 231.495 57.4969 231.676 57.4223L233.167 56.8024C233.201 56.7887 233.229 56.7637 233.247 56.7315C233.265 56.6993 233.271 56.6618 233.265 56.6253L233.209 56.3084C233.176 56.1126 233.085 56.08 232.934 56.2105ZM233.386 57.6018C231.697 58.0492 230.235 59.4661 229.086 60.8225C226.158 64.284 223.354 67.8464 220.676 71.5099C220.635 71.5654 220.575 71.6036 220.508 71.6171L219.033 71.8944C218.944 71.911 218.862 71.9543 218.798 72.0184C218.734 72.0826 218.692 72.1645 218.676 72.2533C218.425 73.7006 217.742 74.4696 216.374 75.1384C214.729 75.9432 213.078 76.6859 211.422 77.3664C211.362 77.3906 211.308 77.4269 211.263 77.473C211.217 77.519 211.182 77.574 211.158 77.6344C210.316 79.7675 209.311 81.8206 208.143 83.7938C208.102 83.8606 208.12 83.8839 208.196 83.8637C212.045 82.815 215.898 81.7733 219.755 80.7385C221.389 80.3004 222.65 79.1911 223.866 78.0329C226.838 75.2021 229.484 72.2029 231.804 69.035C233.081 67.2918 233.712 64.4743 234.276 62.2883C234.713 60.6042 234.475 59.0645 233.563 57.6693C233.545 57.641 233.518 57.6192 233.486 57.6071C233.454 57.595 233.419 57.5931 233.386 57.6018ZM98.2523 72.2091C99.5729 72.4095 100.869 72.533 102.14 72.5796C102.419 72.5889 102.895 72.8336 103.027 73.0364C103.2 73.3005 103.184 73.5529 102.981 73.7938C100.928 76.2314 96.9379 77.5062 94.0948 78.7996C94.0264 78.8307 94.0249 78.8648 94.0901 78.9021C95.3579 79.6292 95.2926 81.0601 94.6401 82.1508C94.0691 83.104 92.7571 83.9942 91.8086 84.7492C91.1949 85.2371 90.568 85.4562 89.9279 85.4064C89.9139 85.4054 89.8998 85.4074 89.8866 85.4123C89.8734 85.4172 89.8614 85.4249 89.8514 85.4348C89.8415 85.4448 89.8338 85.4568 89.8289 85.47C89.824 85.4832 89.822 85.4973 89.823 85.5113C90.14 90.2048 90.2262 94.7213 95.8379 95.8189C99.1286 96.4652 102.341 96.2873 105.477 95.2852C106.605 94.924 107.607 94.2132 107.446 92.8499C106.891 88.102 106.318 82.5423 105.726 76.1708C105.239 70.9366 106.157 65.8469 105.311 60.629C105.239 60.1862 104.691 58.0912 104.256 57.9676C104.169 57.9412 104.141 57.9715 104.172 58.0585C104.631 59.3333 105.083 60.4076 104.461 61.6451C102.964 64.6327 100.72 67.2475 98.8909 70.0394C98.5017 70.6337 98.2104 71.2676 98.0496 71.9014C98.0407 71.9348 98.039 71.9698 98.0447 72.0039C98.0503 72.0381 98.063 72.0707 98.0822 72.0997C98.1013 72.1287 98.1263 72.1534 98.1556 72.1722C98.1849 72.1911 98.2178 72.2036 98.2523 72.2091ZM222.205 58.6854C220.056 60.5708 218.054 62.8033 216.162 64.9474C215.885 65.2596 215.651 65.6014 215.458 65.9728C214.53 67.7501 213.834 69.6137 213.368 71.5635C213.366 71.5721 213.366 71.5811 213.369 71.5895C213.371 71.5979 213.376 71.6055 213.382 71.6117C213.388 71.618 213.396 71.6226 213.405 71.6251C213.413 71.6277 213.422 71.6281 213.43 71.6264C217.492 70.6803 218.718 67.4526 220.34 64.1154C221.17 62.4095 221.704 60.5591 222.268 58.7274C222.296 58.6373 222.275 58.6233 222.205 58.6854ZM235.304 60.9879C235.08 62.4685 234.715 63.9134 234.206 65.3226C234.204 65.3297 234.202 65.3373 234.203 65.345C234.203 65.3527 234.205 65.3603 234.209 65.3673C234.212 65.3743 234.217 65.3805 234.223 65.3857C234.229 65.3908 234.236 65.3947 234.244 65.3971C234.47 65.4717 235.421 63.1436 235.507 62.8919C235.819 61.983 235.714 61.1417 235.451 60.2562C235.428 60.1754 235.405 60.1754 235.383 60.2562C235.323 60.4729 235.325 60.8504 235.304 60.9879ZM142.074 63.1226C142.453 63.4986 142.91 63.6912 143.445 63.7006C143.456 63.7009 143.468 63.6989 143.479 63.6947C143.489 63.6906 143.499 63.6843 143.508 63.6763C143.516 63.6683 143.523 63.6587 143.528 63.6481C143.533 63.6374 143.535 63.626 143.535 63.6143L143.601 61.2979C143.602 61.2047 143.567 61.1876 143.496 61.2466C142.95 61.6894 142.467 62.192 142.046 62.7544C142.006 62.8084 141.986 62.8755 141.991 62.9432C141.996 63.0109 142.026 63.0746 142.074 63.1226ZM142.855 67.5994C141.941 67.2568 141.382 66.4901 140.66 65.8842C140.542 65.7848 140.518 65.8034 140.59 65.9401L143.277 71.0415C143.291 71.0675 143.311 71.0894 143.336 71.1052C143.361 71.1211 143.39 71.1303 143.419 71.1319C143.448 71.1335 143.478 71.1276 143.504 71.1146C143.531 71.1016 143.554 71.0821 143.57 71.0578C145.244 68.6272 146.416 65.7024 147.541 62.9805C147.587 62.8717 147.564 62.8554 147.474 62.9315C146.604 63.6695 145.613 64.1698 144.5 64.4323C144.463 64.4408 144.429 64.4598 144.402 64.487C144.376 64.5142 144.357 64.5486 144.349 64.5861C144.151 65.4787 143.967 66.8071 143.347 67.4806C143.285 67.5468 143.206 67.5935 143.118 67.6146C143.031 67.6358 142.939 67.6305 142.855 67.5994ZM219.539 69.0443C219.338 68.9278 219.289 68.5611 219.392 67.9443C219.429 67.7222 219.393 67.7097 219.285 67.907C217.849 70.5102 216.09 71.9481 213.132 72.4608C213.095 72.4672 213.061 72.4831 213.033 72.5069C213.005 72.5307 212.983 72.5614 212.971 72.5959L211.685 76.2967C211.66 76.3666 211.682 76.3876 211.75 76.3596C213.173 75.7754 214.581 75.147 215.973 74.4743C217.094 73.9313 217.798 73.1622 217.994 71.99C218.073 71.5177 218.348 71.2349 218.818 71.1417L220.002 70.9087C220.087 70.8921 220.162 70.8457 220.214 70.7782L225.467 63.9173C225.512 63.8583 225.508 63.8544 225.453 63.9056C224.596 64.7337 223.761 65.5859 222.95 66.4622C222.093 67.3873 221.265 68.1284 220.35 68.9604C220.099 69.1857 219.829 69.2136 219.539 69.0443ZM136.409 93.6772C138.336 94.2389 140.422 92.4724 141.053 90.8574C141.335 90.1326 141.382 86.6323 142.878 87.9466C143.68 88.6504 144.518 89.4389 145.393 90.312C145.627 90.5482 145.893 90.5909 146.19 90.4402C147.576 89.7364 150.233 90.0114 151.743 90.2748C153.013 90.4969 154.09 90.956 154.976 91.6521C155.009 91.6782 155.049 91.695 155.09 91.7008C155.132 91.7065 155.175 91.701 155.213 91.6847L156.553 91.1324C156.583 91.1205 156.61 91.1027 156.632 91.0801C156.655 91.0575 156.672 91.0305 156.684 91.0009C156.696 90.9712 156.702 90.9395 156.701 90.9076C156.7 90.8758 156.693 90.8444 156.679 90.8154C154.666 86.3549 151.902 80.8574 152.111 75.8562C152.23 73.0612 152.665 70.309 153.417 67.5994C153.425 67.5666 153.424 67.5319 153.411 67.5004C153.399 67.469 153.377 67.4424 153.349 67.4246C152.847 67.1139 152.344 67.0898 151.839 67.3524C151.804 67.3706 151.764 67.3754 151.726 67.366C151.688 67.3565 151.654 67.3335 151.631 67.3011L151.28 66.8047C151.231 66.7364 151.17 66.6828 151.095 66.6439L149.413 65.7793C149.341 65.742 149.308 65.7638 149.313 65.8446C149.383 67.2988 149.623 68.6807 149.278 70.1326C149.161 70.6236 148.858 70.8053 148.369 70.6779L147.539 70.4612C147.432 70.4333 147.408 70.4667 147.467 70.5614L148.026 71.4656C148.194 71.7391 148.128 71.9333 147.828 72.0483L142.543 74.0734C142.511 74.0857 142.476 74.0907 142.442 74.0878C142.408 74.085 142.374 74.0745 142.345 74.0571C141.44 73.5188 135.656 70.1792 137.723 68.8998C138.087 68.6745 138.423 68.4524 138.732 68.2333C138.9 68.1121 138.885 68.0212 138.688 67.9606C137.785 67.681 136.93 67.2949 136.122 66.8024C135.721 66.5569 135.63 66.226 135.847 65.8096L136.742 64.0967C136.792 64.0004 136.764 63.9639 136.658 63.9872C135.899 64.1519 135.185 64.4339 134.519 64.8332C134.482 64.8547 134.452 64.8852 134.43 64.9218C134.408 64.9584 134.395 65 134.393 65.0429C134.345 65.9098 134.112 66.7177 133.694 67.4666C133.679 67.4943 133.672 67.5261 133.675 67.558C133.678 67.5899 133.69 67.6205 133.71 67.646C135.083 69.3566 136.684 71.6171 137.187 73.8474C137.349 74.5667 137.358 75.4212 137.215 76.4109C136.462 81.6381 134.363 86.574 133.528 91.7802C133.435 92.3652 135.444 93.3916 136.409 93.6772ZM87.0381 70.1909C86.4182 70.382 84.1787 86.1009 83.9247 87.7788C83.892 87.9948 83.9363 88.0119 84.0575 87.8301L88.4108 81.2559C88.5378 81.0638 88.5984 80.8355 88.5832 80.6057C88.3378 77.1349 87.8756 73.6951 87.1966 70.2864C87.1931 70.2692 87.186 70.2529 87.1759 70.2385C87.1658 70.2241 87.1529 70.2121 87.1379 70.2031C87.123 70.1941 87.1064 70.1883 87.0892 70.1862C87.072 70.1841 87.0546 70.1857 87.0381 70.1909ZM202.999 81.6544C204.708 81.9713 204.703 83.2741 205.087 84.6397C205.092 84.6546 205.099 84.6685 205.109 84.6806C205.118 84.6926 205.13 84.7027 205.144 84.71C205.157 84.7174 205.172 84.722 205.187 84.7235C205.202 84.7251 205.217 84.7235 205.232 84.7189L206.882 84.2086C206.954 84.1876 207.015 84.1402 207.054 84.0757C208.232 82.1399 209.263 80.1303 210.147 78.0468C210.181 77.9661 210.158 77.9428 210.077 77.9769C207.642 79.0023 205.246 80.1116 202.887 81.3048C202.867 81.3154 202.848 81.3301 202.833 81.3479C202.818 81.3658 202.806 81.3865 202.799 81.4088C202.792 81.4311 202.789 81.4546 202.791 81.478C202.793 81.5014 202.8 81.5241 202.811 81.5449C202.839 81.5992 202.901 81.6358 202.999 81.6544ZM199.497 83.3673C199.107 84.3018 196.25 85.9261 195.313 86.567C195.298 86.578 195.286 86.5923 195.277 86.6088C195.268 86.6254 195.263 86.6438 195.262 86.6626V86.7325C195.262 86.7439 195.264 86.7553 195.268 86.7658C195.273 86.7764 195.279 86.7859 195.288 86.7936C195.296 86.8014 195.306 86.8072 195.317 86.8107C195.328 86.8143 195.339 86.8154 195.351 86.814C197.792 86.539 200.207 86.1157 202.599 85.5439C202.628 85.5367 202.654 85.518 202.67 85.4918C202.687 85.4656 202.692 85.4341 202.685 85.4041L201.988 82.272C201.979 82.2317 201.958 82.1953 201.927 82.1684C201.896 82.1415 201.857 82.1255 201.815 82.1228L196.866 81.7546C196.855 81.754 196.845 81.7555 196.835 81.7591C196.825 81.7627 196.816 81.7683 196.809 81.7755C196.801 81.7828 196.796 81.7915 196.792 81.8011C196.788 81.8108 196.786 81.8211 196.786 81.8315C196.793 81.9737 198.949 82.6681 199.229 82.766C199.529 82.8732 199.618 83.0736 199.497 83.3673ZM146.859 91.2046C149.052 92.265 151.356 92.1275 153.643 91.8641C153.871 91.8377 153.88 91.7779 153.668 91.6847C151.753 90.8387 149.665 90.7385 147.607 90.8317C147.313 90.8442 147.062 90.9048 146.854 91.0135C146.73 91.0788 146.731 91.1425 146.859 91.2046ZM83.9806 94.6514C84.007 94.671 84.038 94.6835 84.0706 94.6877C84.1033 94.6918 84.1364 94.6875 84.1669 94.6751C84.1974 94.6627 84.2241 94.6426 84.2446 94.6168C84.265 94.591 84.2784 94.5603 84.2836 94.5278L84.3372 94.1783C84.3413 94.1515 84.3348 94.1241 84.3192 94.1019C84.3035 94.0798 84.2799 94.0645 84.2533 94.0594C84.0358 94.0175 83.854 94.0827 83.7079 94.2552C83.6947 94.2708 83.6848 94.289 83.6789 94.3086C83.673 94.3282 83.6712 94.3488 83.6736 94.3691C83.676 94.3895 83.6826 94.4091 83.6929 94.4268C83.7032 94.4444 83.717 94.4598 83.7336 94.4719L83.9806 94.6514ZM105.67 148.194C107.39 148.54 108.708 147.978 109.623 146.509C109.644 146.473 109.658 146.434 109.663 146.394C109.668 146.353 109.665 146.312 109.653 146.273C107.49 139.37 104.405 132.75 102.317 125.845C102.142 125.267 102.298 124.698 102.335 124.104C102.34 124.029 102.315 123.955 102.265 123.896L101.645 123.153C101.621 123.125 101.603 123.092 101.592 123.056C101.58 123.021 101.576 122.983 101.58 122.945L103.878 98.0259C103.886 97.9435 103.852 97.9218 103.778 97.9606C101.242 99.2843 98.2756 100.34 95.57 98.7553C94.0202 97.8464 92.4238 96.7488 90.6923 96.8C90.661 96.8012 90.6313 96.8145 90.6096 96.8371C90.5879 96.8597 90.5758 96.8899 90.5758 96.9212C90.5587 98.1284 90.5905 99.529 90.6713 101.123C90.9292 106.166 91.2819 110.919 91.7294 115.383C92.0743 118.811 92.319 122.104 93.5891 124.992C96.4765 131.556 99.3919 138.138 102.834 144.432C103.438 145.54 104.137 146.637 104.931 147.723C105.116 147.976 105.363 148.133 105.67 148.194ZM90.2285 136.182C90.1431 137.031 90.2146 137.866 90.443 138.688C90.6185 141.22 90.8974 143.74 91.2796 146.248C91.4458 147.334 91.7395 148.389 92.1605 149.412C92.1936 149.492 92.2489 149.56 92.3197 149.609C92.3905 149.657 92.4737 149.684 92.559 149.685C96.6808 149.763 100.837 149.865 105.027 149.993C105.731 150.016 106.148 149.65 106.56 149.151C106.61 149.092 106.596 149.064 106.518 149.068C105.432 149.123 104.593 148.701 104.002 147.8C102.224 145.095 100.641 142.28 99.2521 139.354C96.9387 134.48 94.7224 129.562 92.6033 124.598C92.2553 123.787 92.0238 123.046 91.9088 122.374C90.5874 114.647 90.0887 106.304 89.83 98.3288C89.8254 98.1983 89.7951 98.1222 89.7392 98.1004C89.7361 98.0991 89.7328 98.0981 89.7297 98.0974C89.7265 98.0966 89.7235 98.0963 89.7208 98.0963C89.7182 98.0963 89.7159 98.0966 89.7143 98.0974C89.7126 98.0981 89.7115 98.0991 89.7112 98.1004C89.6723 99.9244 89.6747 101.748 89.7182 103.57C89.8425 108.756 90.0079 113.941 90.2146 119.123C90.2588 120.254 90.9207 121.792 89.844 122.61C89.8159 122.631 89.7935 122.66 89.7785 122.692C89.7635 122.725 89.7564 122.76 89.7578 122.796L90.2285 136.182ZM107.003 150.037C108.154 150.056 109.343 150.163 110.49 150.1C110.505 150.099 110.52 150.094 110.533 150.087C110.546 150.079 110.557 150.068 110.565 150.055C110.572 150.041 110.577 150.027 110.578 150.011C110.578 149.996 110.575 149.981 110.569 149.967L109.961 148.62C109.945 148.585 109.918 148.555 109.883 148.537C109.849 148.518 109.81 148.512 109.772 148.518C108.675 148.684 107.74 149.162 106.968 149.953C106.917 150.007 106.929 150.035 107.003 150.037ZM103.03 154.556C105.293 154.8 108.711 153.377 110.872 152.468C110.945 152.437 111.006 152.382 111.045 152.313C111.084 152.243 111.098 152.162 111.086 152.083L110.935 151.081C110.929 151.043 110.909 151.009 110.88 150.983C110.851 150.958 110.815 150.944 110.776 150.944L106.038 150.808C105.961 150.805 105.886 150.827 105.824 150.871C104.603 151.744 103.594 152.813 102.797 154.078C102.618 154.361 102.696 154.52 103.03 154.556ZM122.247 154.696C125.116 154.801 127.969 154.642 130.806 154.218C131.739 154.078 132.328 154.092 132.342 153.02C132.348 152.475 132.317 152.034 132.247 151.699C132.244 151.684 132.238 151.671 132.229 151.659C132.221 151.647 132.21 151.637 132.197 151.63C132.184 151.623 132.17 151.618 132.155 151.617C132.141 151.615 132.126 151.617 132.112 151.622C130.24 152.251 128.145 151.883 126.18 151.428C126.142 151.419 126.103 151.419 126.065 151.427C126.027 151.434 125.991 151.45 125.959 151.473L121.948 154.332C121.921 154.352 121.898 154.378 121.883 154.409C121.869 154.44 121.862 154.474 121.865 154.508C121.867 154.541 121.878 154.574 121.897 154.601C121.916 154.629 121.941 154.651 121.972 154.665C122.006 154.681 122.098 154.691 122.247 154.696ZM81.2819 154.486C83.7817 154.633 86.2668 154.662 88.7371 154.572C89.9256 154.528 90.627 154.043 90.359 152.773C90.3561 152.758 90.3502 152.745 90.3416 152.732C90.3331 152.72 90.3221 152.71 90.3094 152.702C90.2967 152.695 90.2825 152.69 90.2678 152.688C90.2531 152.686 90.2381 152.687 90.2239 152.691C88.807 153.113 87.0475 152.412 85.7937 151.899C85.7612 151.886 85.7257 151.881 85.6908 151.886C85.656 151.891 85.6232 151.905 85.5956 151.927C84.2905 152.973 82.8472 153.774 81.2656 154.332C81.2035 154.354 81.177 154.38 81.1864 154.411C81.1923 154.432 81.2048 154.451 81.2219 154.464C81.2391 154.478 81.2601 154.485 81.2819 154.486Z" fill="#111827"/>
  <path d="M231.226 81.8921L232.027 82.4072C232.177 82.7957 231.448 83.2994 231.557 83.6937C232.508 87.2158 233.54 90.7185 234.654 94.2017C234.741 94.4767 234.654 94.6748 234.393 94.796C233.372 95.2714 231.573 95.3623 230.431 95.5534C230.399 95.5588 230.37 95.5753 230.348 95.6C230.327 95.6246 230.315 95.656 230.315 95.6886C230.203 101.37 230.187 107.047 230.268 112.72C230.282 113.68 230.245 114.892 230.704 115.847C231.321 117.126 231.812 118.083 232.179 118.718C235.438 124.355 238.667 130.008 241.864 135.677C243.081 137.857 244.223 140.074 245.292 142.328C245.516 143.055 245.984 143.901 245.535 144.651C245.516 144.682 245.505 144.717 245.502 144.753C245.5 144.79 245.506 144.826 245.521 144.859C245.637 145.132 245.818 145.622 246.064 146.329C246.5 147.574 245.833 147.86 244.817 148.417C242.619 149.625 239.648 150.811 237.194 150.93C236.803 150.948 236.42 150.899 236.047 150.783C233.575 150.007 237.837 146.891 238.541 146.292C239.035 145.87 239.159 144.738 239.867 144.882C239.908 144.89 239.945 144.911 239.974 144.942C240.003 144.972 240.022 145.011 240.028 145.052L240.133 145.709C240.137 145.736 240.152 145.76 240.174 145.776C240.195 145.792 240.222 145.799 240.249 145.796C241.505 145.633 243.309 145.33 244.346 144.572C244.362 144.561 244.376 144.546 244.386 144.529C244.396 144.512 244.403 144.493 244.406 144.474C244.409 144.454 244.408 144.434 244.403 144.415C244.398 144.396 244.389 144.378 244.376 144.362L243.808 143.642C243.784 143.612 243.751 143.591 243.713 143.582C243.676 143.572 243.636 143.576 243.6 143.591C242.344 144.148 239.991 145.166 238.933 143.994C238.233 143.223 237.602 142.088 237.154 141.459C230.057 131.503 225.375 124.814 223.106 121.391C221.505 118.977 219.553 116.553 219.361 114.225C218.902 108.657 218.595 103.079 218.441 97.4923C218.44 97.4525 218.425 97.4142 218.4 97.3837C218.374 97.3533 218.34 97.3324 218.301 97.3245L217.485 97.1637C217.451 97.1569 217.416 97.1606 217.384 97.1744C217.352 97.1881 217.325 97.2112 217.306 97.2406C216.681 98.2218 215.502 98.6203 214.731 99.119C214.631 99.1827 214.641 99.2192 214.759 99.2285L217.546 99.4476C217.866 99.474 218.115 99.62 218.294 99.8857C218.769 100.59 216.199 102.156 215.828 102.463C215.392 102.825 215.454 102.967 216.015 102.887C218.751 102.507 217.889 104.892 217.448 106.374C216.616 109.168 215.612 111.985 215.022 114.838C215.007 114.916 215.02 114.998 215.059 115.069L215.64 116.078C215.66 116.114 215.672 116.155 215.672 116.197C215.673 116.239 215.664 116.281 215.644 116.318C215.369 116.855 214.931 117.115 214.33 117.096C214.313 117.096 214.296 117.099 214.281 117.105C214.265 117.111 214.251 117.12 214.239 117.132C214.227 117.144 214.217 117.158 214.21 117.173C214.203 117.189 214.2 117.205 214.199 117.222C214.109 126.374 213.992 135.665 214.763 144.789C214.819 145.453 214.98 146.145 215.139 146.765C215.16 146.845 215.206 146.917 215.27 146.969C215.335 147.021 215.415 147.051 215.498 147.054C219.25 147.217 222.985 147.493 226.705 147.881C227.32 147.947 227.911 148.099 228.478 148.338C228.801 148.475 228.863 148.687 228.662 148.974C228.18 149.667 226.782 150.175 226.006 150.485C225.818 150.559 225.824 150.61 226.024 150.638C228.644 150.995 231.841 151.121 233.887 151.149C244.037 151.282 254.187 151.326 264.337 151.279C264.358 151.279 264.38 151.283 264.4 151.292C264.42 151.3 264.438 151.312 264.453 151.327C264.468 151.342 264.48 151.36 264.488 151.38C264.496 151.4 264.5 151.421 264.5 151.442V151.771C264.5 151.812 264.484 151.851 264.455 151.881C264.426 151.91 264.387 151.926 264.346 151.927C253.099 152.095 241.854 152.049 230.611 151.79C229.027 151.754 227.416 151.602 225.777 151.335C225.426 151.278 225.153 151.099 224.959 150.799C224.346 149.855 227.42 149.319 227.562 148.904C227.567 148.89 227.569 148.875 227.567 148.86C227.566 148.845 227.561 148.83 227.553 148.817C227.546 148.804 227.535 148.793 227.523 148.784C227.51 148.775 227.496 148.77 227.481 148.767C223.773 148.138 219.914 148.077 216.162 147.849C215.708 147.821 215.26 147.753 214.817 147.646C214.781 147.637 214.748 147.621 214.719 147.598C214.69 147.575 214.666 147.546 214.649 147.513C214.41 147.052 214.254 146.563 214.181 146.047C213.918 144.177 213.747 142.298 213.668 140.412C213.351 132.752 213.458 125.101 213.372 117.439C213.363 116.598 213.791 116.222 214.656 116.311C214.886 116.336 214.937 116.251 214.81 116.057L214.377 115.402C214.339 115.343 214.318 115.274 214.318 115.204C214.315 114.581 214.415 113.922 214.619 113.228C215.254 111.054 215.905 108.885 216.572 106.721C216.758 106.122 217.278 104.549 217.103 103.668C217.096 103.633 217.077 103.601 217.048 103.58C217.019 103.559 216.983 103.55 216.947 103.554L215.302 103.752C214.878 103.803 214.581 103.632 214.412 103.239C214.304 102.988 214.42 102.709 214.759 102.403C215.613 101.632 216.478 100.961 217.353 100.389C217.598 100.229 217.574 100.145 217.28 100.137C216.5 100.116 213.934 100.156 213.428 99.6014C213.158 99.3078 213.197 99.0638 213.547 98.8696L216.134 97.4317C216.614 97.1645 216.591 96.9486 216.066 96.7839C215.314 96.5462 214.599 96.2386 213.92 95.861C213.833 95.812 213.766 95.7333 213.733 95.6394C213.699 95.5456 213.701 95.443 213.738 95.3507C213.878 95.0011 214.083 95.0034 214.4 95.1502C215.607 95.7095 216.848 96.1733 218.124 96.5415C218.162 96.5529 218.203 96.5539 218.242 96.5445C218.28 96.5351 218.316 96.5156 218.345 96.4879L218.63 96.2176C218.684 96.1666 218.754 96.1376 218.828 96.136C218.929 96.1345 219.014 96.178 219.084 96.2665C219.145 96.3411 219.177 96.4553 219.182 96.6091C219.366 102.787 219.473 109.163 220.287 115.29C220.321 115.539 220.678 116.193 221.359 117.255C227.038 126.11 233.29 134.654 239.347 143.255C240.093 144.313 242.062 143.409 242.964 143.025C244.178 142.507 244.53 143.549 244.801 143.486C244.811 143.484 244.82 143.479 244.828 143.473C244.836 143.467 244.843 143.459 244.847 143.45C244.852 143.441 244.854 143.432 244.855 143.422C244.855 143.412 244.853 143.402 244.85 143.393L244.351 142.26C243.796 140.927 243.142 139.646 242.389 138.415C241.8 137.194 241.17 135.995 240.499 134.817C237.673 129.858 234.843 124.901 232.009 119.946C231.202 118.532 230.446 117.091 229.739 115.621C229.655 115.449 229.609 115.267 229.601 115.076C229.31 108.651 229.45 102.195 229.555 95.7701C229.555 95.7556 229.553 95.7412 229.547 95.7279C229.541 95.7145 229.533 95.7025 229.522 95.6926C229.512 95.6827 229.499 95.6751 229.486 95.6704C229.472 95.6657 229.457 95.6639 229.443 95.6653C225.856 95.9869 221.836 96.376 218.434 95.7072C215.278 95.0896 213.789 90.445 213.514 87.7021C213.493 87.4893 213.413 87.4636 213.274 87.6252C212.407 88.635 211.62 89.7032 210.914 90.8296C210.871 90.8966 210.847 90.9748 210.846 91.0556C210.833 92.0406 210.66 93.261 210.326 94.7168C209.248 99.4134 208.432 102.755 207.879 104.74C207.603 104.926 207.531 105.16 207.665 105.439L207.588 105.672C207.496 105.891 207.48 106.121 207.539 106.362C206.127 111.688 205.329 114.895 205.146 115.985C205.032 116.665 205.097 118.078 205.341 120.224C206.276 128.45 208.233 137.588 209.695 146.234C209.822 146.984 209.641 147.639 209.152 148.198C209.071 148.29 209.091 148.348 209.212 148.371C210.792 148.66 212.631 149.242 214.076 148.184C214.105 148.163 214.139 148.148 214.175 148.141C214.211 148.134 214.248 148.135 214.283 148.145C214.875 148.299 214.726 149.669 214.773 150.191C214.896 151.603 214.871 152.701 213.37 153.106C210.084 153.99 206.743 154.506 203.346 154.654C202.095 154.707 198.296 154.605 201.179 152.638C202.745 151.569 204.358 150.576 206.017 149.66C206.204 149.557 206.368 149.43 206.511 149.28C206.569 149.219 206.559 149.204 206.481 149.233C205.316 149.67 204.484 149.912 203.985 149.96C189.761 151.358 175.522 152.58 161.268 153.624C160.352 153.689 156.968 155.434 156.588 154.069C156.578 154.034 156.557 154.004 156.528 153.983C156.499 153.962 156.463 153.952 156.427 153.952C155.732 153.952 154.94 154.218 154.558 154.232C154.175 154.246 153.709 153.752 154.325 153.554C154.94 153.355 155.732 153.091 156.584 153.137C156.628 153.139 156.671 153.12 156.709 153.097C156.747 153.074 156.778 153.042 156.8 153.004C158.231 150.568 160.12 148.568 162.468 147.005C162.535 146.959 162.529 146.945 162.449 146.963C161.892 147.084 160.993 146.697 160.522 146.465C159.823 146.12 158.611 142.801 158.152 142.067C158.269 141.717 158.098 141.105 158.385 141.251C158.938 142.163 159.812 144.628 160.48 145.462C161.431 146.651 163.09 146.073 164.144 145.702C164.178 145.691 164.209 145.672 164.235 145.646C164.261 145.621 164.282 145.59 164.295 145.556C164.464 145.116 164.496 144.789 164.391 144.575C163.794 143.375 163.116 139.76 162.589 138.513L163.055 137.581C163.323 137.937 164.519 143.437 164.766 143.833C165.008 144.348 165.115 144.888 165.087 145.455C165.085 145.491 165.092 145.527 165.108 145.559C165.123 145.591 165.147 145.619 165.176 145.64C166.131 146.313 166.493 147.322 166.665 148.445C167.04 150.878 164.523 151.72 162.836 152.694C162.769 152.733 162.774 152.749 162.85 152.743C176.522 151.759 190.176 150.579 203.81 149.2C204.399 149.141 205.434 148.822 206.914 148.243C207.649 147.956 208.364 148.343 208.79 147.406C209.159 146.595 208.625 144.402 208.464 143.484C207.185 136.227 205.849 128.991 204.789 121.696C204.453 119.394 204.099 116.966 204.642 114.766C205.817 110.016 207.019 105.276 208.247 100.545L208.338 100.033C208.992 97.4411 209.563 94.8411 210.051 92.2325C210.137 91.7711 209.928 91.2141 210.117 90.7946C210.851 89.1609 212.307 87.511 213.524 86.1896C213.552 86.1586 213.589 86.1352 213.629 86.1215C213.669 86.1078 213.712 86.1043 213.753 86.1112C213.795 86.1182 213.835 86.1353 213.868 86.1612C213.902 86.1871 213.928 86.2209 213.945 86.2595C214.014 86.4149 214.058 86.5749 214.078 86.7396C214.402 89.4523 215.535 94.4045 218.902 95.0081C222.216 95.6 225.766 95.2458 229.431 94.8846C229.464 94.8812 229.493 94.8665 229.516 94.843C229.538 94.8194 229.551 94.7887 229.553 94.7564C229.64 92.4073 229.684 90.8008 229.685 89.937C229.688 88.1542 227.527 88.0726 226.066 88.0284C225.637 88.0726 225.726 87.5296 225.691 87.2779C225.689 87.2649 225.691 87.2517 225.695 87.2393C225.699 87.2269 225.706 87.2158 225.716 87.2069C225.725 87.198 225.736 87.1915 225.749 87.188C225.761 87.1846 225.774 87.1843 225.786 87.1871C227.483 87.5296 230.41 87.2174 230.403 89.8275C230.398 91.4417 230.38 93.0583 230.347 94.6771C230.347 94.691 230.35 94.7046 230.355 94.7173C230.361 94.7299 230.369 94.7411 230.379 94.7502C230.39 94.7593 230.402 94.766 230.415 94.7699C230.427 94.7738 230.441 94.7747 230.454 94.7727L233.703 94.246C233.727 94.2421 233.75 94.2332 233.77 94.2197C233.79 94.2063 233.807 94.1887 233.819 94.1681C233.832 94.1475 233.84 94.1245 233.843 94.1005C233.846 94.0765 233.843 94.0523 233.836 94.0293C232.515 90.0737 232.163 85.9378 231.226 81.8921ZM236.19 150.023C238.604 150.678 243.125 148.553 245.274 147.285C245.342 147.244 245.395 147.182 245.423 147.108C245.451 147.033 245.453 146.952 245.428 146.877L244.943 145.388C244.937 145.369 244.927 145.352 244.914 145.338C244.902 145.324 244.886 145.313 244.868 145.305C244.85 145.298 244.831 145.294 244.812 145.295C244.792 145.295 244.774 145.3 244.756 145.309C243.117 146.124 241.379 146.547 239.541 146.576C239.468 146.578 239.399 146.603 239.345 146.649C238.219 147.578 236.931 148.536 236.087 149.743C236.07 149.767 236.06 149.795 236.056 149.824C236.052 149.853 236.056 149.883 236.066 149.91C236.076 149.937 236.092 149.962 236.114 149.982C236.135 150.001 236.161 150.016 236.19 150.023ZM160.578 149.501C159.497 150.627 158.578 151.619 157.823 152.876C157.817 152.886 157.813 152.898 157.813 152.91C157.812 152.923 157.815 152.935 157.821 152.946C157.826 152.957 157.835 152.966 157.845 152.973C157.855 152.98 157.867 152.984 157.879 152.985C158.541 153.033 159.194 153.012 159.839 152.922C161.629 152.673 163.862 151.237 165.339 150.263C165.74 150.001 165.941 149.629 165.943 149.149C165.947 148.088 165.611 147.156 164.934 146.353C164.924 146.341 164.912 146.332 164.899 146.325C164.886 146.319 164.871 146.315 164.856 146.314C164.842 146.313 164.827 146.315 164.813 146.32C164.799 146.325 164.786 146.333 164.775 146.343C163.463 147.558 161.869 148.159 160.578 149.501ZM201.268 153.801C205.275 153.888 209.068 153.45 212.647 152.486C213.547 152.244 214.097 152.144 214.064 151.121C214.039 150.389 213.988 149.798 213.91 149.347C213.908 149.334 213.903 149.32 213.895 149.309C213.887 149.298 213.877 149.288 213.865 149.281C213.853 149.275 213.839 149.271 213.825 149.27C213.811 149.269 213.797 149.272 213.785 149.277C212.249 149.946 210.51 149.413 208.481 149.044C208.407 149.031 208.331 149.046 208.268 149.086C206.396 150.314 204.488 151.483 202.545 152.594C202.072 152.866 201.575 153.241 201.186 153.565C201.006 153.716 201.033 153.795 201.268 153.801Z" fill="#111827"/>
</svg>
