<?xml version="1.0" encoding="UTF-8" standalone="no"?>
<!-- Generator: Adobe Illustrator 21.0.0, SVG Export Plug-In . SVG Version: 6.00 Build 0)  -->
<svg id="Layer_1" style="enable-background:new 0 0 352 75.3" xmlns="http://www.w3.org/2000/svg" xml:space="preserve" viewBox="0 0 352 75.3" version="1.1" y="0px" x="0px" xmlns:xlink="http://www.w3.org/1999/xlink">
<style type="text/css">
	.st0{fill:#FFFFFF;}
	.st1{fill:#006225;}
	.st2{fill:none;stroke:#006225;}
</style>
<path class="st0" d="m73.2 65.4v-55.8s0-7.6-7.9-7.6h-55.1c-7.9 0-7.9 7.6-7.9 7.6v55.8c0 7.6 7.9 7.6 7.9 7.6h55.1c0-0.1 7.9-0.1 7.9-7.6z"/>
<path class="st1" d="m43.6 17.5c-2.2-1.7-4.3-3.7-5.8-6.8-1.4 3.1-3.5 5.1-5.8 6.8-3.5-3.2-9.5-5-18.4-3.7 3.8 2.8 2.7 10.9 4.2 16.6 1 3.9 3.2 6.8 8.8 6.2 0.9-0.1 1.9-0.4 3-0.6 2.3 2 5 3.5 8.1 4.6h0.1 0.1c3.1-1.1 5.8-2.5 8.1-4.6 1.1 0.3 2 0.5 3 0.6 5.6 0.5 7.8-2.3 8.8-6.2 1.4-5.7 0.3-13.8 4.2-16.6-8.9-1.3-14.8 0.5-18.4 3.7zm-20.2 17.4c-5.3-1.6-4.3-9.2-5.3-15.8-0.1-0.9-0.5-1.7-0.7-2.7h0.1c0-0.1-0.1-0.2-0.1-0.2 8.8 4.6 7.7 8.9 9.4 14.7 0.3 1.2 1.1 2.3 1.8 3.7h-0.1c0 0.1 0.1 0.1 0.1 0.2-2.1 0.4-3.9 0.5-5.2 0.1zm-5.2-19.8c5.9-0.2 11.3 1.4 14.1 4.9 3 3.6 3.2 9-0.6 12.8-0.5 0.5-1 0.8-1.6 1.2-4.4-5.6-0.5-13.5-11.9-18.9zm26.4 20.1c-1.8 1.4-4 2.6-6.7 3.6-2.7-1-4.9-2.2-6.7-3.6 3-1.9 4.8-5.2 4.9-8.7 0-0.8 0-1.6-0.2-2.4-0.3-1.9-1.2-3.8-2.7-5.5 1.5-1.2 3-2.4 4.6-4.7 1.6 2.3 3.1 3.5 4.6 4.7-1.4 1.6-2.3 3.5-2.7 5.5-0.1 0.5-0.2 1.1-0.2 1.6 0 3.8 1.8 7.4 5.1 9.5zm1.1-1.1c-0.6-0.4-1.1-0.7-1.6-1.2-2-2-2.9-4.3-2.9-6.7-0.1-2.3 0.7-4.6 2.2-6.4 2.9-3.5 8.2-5.1 14.1-4.9-0.1 0.1-0.3 0.1-0.4 0.2h0.4c-11.3 5.4-7.4 13.3-11.8 19zm12-15c-1 6.6 0 14.2-5.3 15.8-1.3 0.4-3 0.3-5.2-0.1 0.8-1.3 1.5-2.5 1.8-3.7 1.7-5.8 0.6-10.1 9.4-14.7-0.3 1-0.6 1.7-0.7 2.7z"/>
<path class="st2" d="m73.2 65.4v-55.8s0-7.6-7.9-7.6h-55.1c-7.9 0-7.9 7.6-7.9 7.6v55.8c0 7.6 7.9 7.6 7.9 7.6h55.1c0-0.1 7.9-0.1 7.9-7.6z"/>
<path class="st1" d="m22.8 52.1c0.7 0 1.2-0.6 1.2-1.3 0-0.5-0.2-1-0.8-1.4-0.8-0.6-1.9-1.1-3.8-1.1-5.1 0-8.2 4-8.2 8.3 0 4.6 3 7.8 7.6 7.8 1.9 0 3.4-0.6 4.5-1.4 0.2-0.1 0.2-0.3 0.2-0.5v-1.4c0-0.2-0.1-0.4-0.3-0.4-0.1 0-0.2 0.1-0.3 0.2-1 0.8-2.2 1.2-3.7 1.2-2.8 0-5.1-1.9-5.1-5.7 0-2.9 1.8-5.8 5-5.8 1.2 0 1.9 0.4 2.5 0.9 0.5 0.4 0.7 0.6 1.2 0.6m-3.8-7l-2.8-3c-0.2-0.2-0.4-0.3-0.5-0.3h-1.4c-0.1 0-0.2 0.2-0.1 0.3l3.4 4.5c0.1 0.2 0.3 0.3 0.5 0.3h1.5c0.2 0 0.3-0.2 0.5-0.3l3.4-4.5c0.1-0.1 0-0.3-0.1-0.3h-1.3c-0.1 0-0.3 0.1-0.5 0.3l-2.6 3zm11.9 19.3c3.5 0 5.8-1.8 5.8-4.5 0-2.6-1.7-3.6-4.7-4.7-1.7-0.6-3-0.9-3-2.5 0-1.1 0.8-2.2 2.7-2.2 1 0 1.9 0.3 2.7 1 0.3 0.2 0.5 0.3 0.9 0.3 0.5 0 1.1-0.5 1.1-1.3 0-0.4-0.1-0.7-0.5-1.1-0.8-0.6-2.1-1.2-4-1.2-3.5 0-5.6 2.1-5.6 4.5 0 2.8 2 3.9 4 4.6 2.2 0.8 3.6 1.1 3.6 2.7 0 1.2-1.1 2.2-3.1 2.2-1.5 0-3-0.6-4-1.3-0.1-0.1-0.3-0.2-0.4-0.2-0.2 0-0.2 0.2-0.2 0.4v1.4c0 0.2 0.1 0.4 0.3 0.5 0.9 0.8 2.4 1.4 4.4 1.4m13.4 0c3.5 0 5.8-1.8 5.8-4.5 0-2.6-1.7-3.6-4.7-4.7-1.7-0.6-3-0.9-3-2.5 0-1.1 0.8-2.2 2.7-2.2 1 0 1.9 0.3 2.7 1 0.3 0.2 0.5 0.3 0.9 0.3 0.5 0 1.1-0.5 1.1-1.3 0-0.4-0.1-0.7-0.5-1.1-0.8-0.6-2.1-1.2-4-1.2-3.5 0-5.6 2.1-5.6 4.5 0 2.8 2 3.9 4 4.6 2.2 0.8 3.6 1.1 3.6 2.7 0 1.2-1.1 2.2-3.1 2.2-1.5 0-3-0.6-4-1.3-0.1-0.1-0.2-0.2-0.4-0.2s-0.2 0.2-0.2 0.4v1.4c0 0.2 0.1 0.4 0.3 0.5 0.9 0.8 2.4 1.4 4.4 1.4m20.4-2.6c-1.2 0-2.7 0.1-4.1 0.1-1.5 0-3.1 0-4.6 0.1 0.7-0.8 1.4-1.6 2.2-2.7l7-9.3c0.1-0.1 0.2-0.3 0.2-0.4 0-0.4-0.2-0.7-0.5-0.7h-11.7c-0.2 0-0.2 0.1-0.3 0.3l-0.2 1.7c0 0.2 0.1 0.3 0.3 0.3 1.4 0 2.7-0.1 4.2-0.1 1.4 0 2.9 0 4.3-0.1-0.6 0.7-1.2 1.5-2 2.5l-7.1 9.4c-0.2 0.2-0.2 0.4-0.2 0.6 0 0.4 0.2 0.6 0.5 0.6h11.8c0.3 0 0.3-0.1 0.3-0.3l0.2-1.6c0.1-0.3 0-0.4-0.3-0.4"/>
<path class="st1" d="m98.4 34.2c-0.9 0-1.6-0.1-2.4-0.4s-1.3-0.7-1.9-1.3c-0.5-0.6-0.9-1.3-1.2-2.1s-0.4-1.8-0.4-2.9c0-1.1 0.1-2.1 0.4-2.9s0.7-1.5 1.2-2.1c0.5-0.6 1.1-1 1.9-1.3s1.5-0.5 2.4-0.5c0.4 0 0.9 0 1.2 0.1s0.7 0.1 1.1 0.2c0.3 0.1 0.6 0.2 0.9 0.3s0.6 0.3 0.9 0.4v2.1h-0.1c-0.2-0.1-0.3-0.3-0.6-0.5s-0.5-0.4-0.9-0.6c-0.3-0.2-0.7-0.3-1.1-0.4s-0.8-0.2-1.4-0.2c-0.6 0-1.1 0.1-1.6 0.3s-0.9 0.6-1.3 1c-0.4 0.4-0.7 1-0.9 1.7s-0.3 1.4-0.3 2.3c0 0.9 0.1 1.7 0.3 2.3s0.5 1.2 0.9 1.6c0.4 0.4 0.8 0.8 1.3 1s1 0.3 1.6 0.3c0.5 0 1-0.1 1.4-0.2s0.8-0.3 1.1-0.5c0.3-0.2 0.6-0.4 0.8-0.6s0.4-0.4 0.6-0.5h0.1v2.2c-0.3 0.1-0.6 0.3-0.8 0.4s-0.6 0.2-0.9 0.4c-0.4 0.1-0.7 0.2-1.1 0.3s-0.6 0.1-1.2 0.1zm2.8-18.3l-2 3.3h-2l-2-3.3h1.4l1.6 2.2 1.6-2.2h1.4z"/>
<path class="st1" d="m105.9 33.9v-13.1h8.2v1.5h-6.4v3.7h6v1.5h-6v4.9h6.4v1.5h-8.2z"/>
<path class="st1" d="m121.5 34.2c-0.9 0-1.8-0.1-2.4-0.3s-1.3-0.4-1.9-0.7v-2.2h0.1c0.6 0.5 1.2 1 2 1.3 0.7 0.3 1.4 0.4 2.1 0.4 1 0 1.7-0.2 2.2-0.6s0.7-0.9 0.7-1.6c0-0.5-0.1-0.9-0.4-1.3s-0.7-0.6-1.2-0.7c-0.4-0.1-0.8-0.2-1.1-0.3s-0.8-0.2-1.3-0.3c-0.5-0.1-0.9-0.3-1.2-0.4s-0.7-0.4-0.9-0.7c-0.3-0.3-0.5-0.6-0.6-1s-0.2-0.8-0.2-1.3c0-1.1 0.4-1.9 1.2-2.7s1.9-1.1 3.2-1.1c0.7 0 1.4 0.1 2.1 0.2s1.3 0.4 1.8 0.6v2.1h-0.1c-0.4-0.4-0.9-0.7-1.6-1s-1.3-0.4-2-0.4c-0.8 0-1.5 0.2-2 0.6s-0.7 0.9-0.7 1.5c0 0.6 0.1 1 0.4 1.3s0.7 0.6 1.3 0.7c0.4 0.1 0.8 0.2 1.4 0.3s1 0.2 1.3 0.3c0.9 0.3 1.6 0.7 2 1.2s0.6 1.2 0.6 2.1c0 0.5-0.1 1-0.3 1.5s-0.5 0.9-0.9 1.3-0.9 0.7-1.4 0.9-1.4 0.3-2.2 0.3z"/>
<path class="st1" d="m139.2 33.9h-2.3l-4.8-6.1-0.8 0.9v5.2h-1.7v-13.1h1.7v6l5.4-6h2.1l-5.4 5.8 5.8 7.3z"/>
<path class="st1" d="m140.6 33.9l4.4-13.1h2.1l4.4 13.1h-1.8l-1.2-3.7h-5l-1.2 3.7h-1.7zm7.5-5.1l-2-6.2-2 6.2h4zm0.2-12.9l-2.4 3.3h-1.3l1.6-3.3h2.1z"/>
<path class="st1" d="m165.7 34.2c-0.9 0-1.8-0.1-2.4-0.3s-1.3-0.4-1.9-0.7v-2.2h0.1c0.6 0.5 1.2 1 2 1.3 0.7 0.3 1.4 0.4 2.1 0.4 1 0 1.7-0.2 2.2-0.6s0.7-0.9 0.7-1.6c0-0.5-0.1-0.9-0.4-1.3s-0.7-0.6-1.2-0.7c-0.4-0.1-0.8-0.2-1.1-0.3s-0.8-0.2-1.3-0.3c-0.5-0.1-0.9-0.3-1.2-0.4s-0.7-0.4-0.9-0.7c-0.3-0.3-0.5-0.6-0.6-1-0.2-0.4-0.2-0.8-0.2-1.3 0-1.1 0.4-1.9 1.2-2.7s1.9-1.1 3.2-1.1c0.7 0 1.4 0.1 2.1 0.2s1.3 0.4 1.8 0.6v2.1h-0.1c-0.4-0.4-0.9-0.7-1.6-1s-1.3-0.4-2-0.4c-0.8 0-1.5 0.2-2 0.6s-0.7 0.9-0.7 1.5c0 0.6 0.1 1 0.4 1.3s0.7 0.6 1.3 0.7c0.4 0.1 0.8 0.2 1.4 0.3s1 0.2 1.3 0.3c0.9 0.3 1.6 0.7 2 1.2s0.6 1.2 0.6 2.1c0 0.5-0.1 1-0.3 1.5s-0.5 0.9-0.9 1.3-0.9 0.7-1.4 0.9-1.4 0.3-2.2 0.3z"/>
<path class="st1" d="m182.1 24.8c0 0.6-0.1 1.1-0.3 1.6s-0.5 0.9-0.8 1.3c-0.5 0.4-1 0.8-1.6 1s-1.4 0.3-2.3 0.3h-1.5v4.9h-1.7v-13.1h3.3c0.8 0 1.4 0.1 2 0.2s1 0.3 1.4 0.6c0.5 0.3 0.9 0.8 1.1 1.3s0.4 1.1 0.4 1.9zm-1.8 0c0-0.5-0.1-0.8-0.2-1.2s-0.4-0.6-0.7-0.8c-0.3-0.2-0.6-0.3-1-0.4s-0.8-0.1-1.4-0.1h-1.4v5.2h1.2c0.7 0 1.3-0.1 1.7-0.2s0.8-0.3 1.1-0.6c0.3-0.3 0.4-0.6 0.6-0.9s0.1-0.6 0.1-1z"/>
<path class="st1" d="m195.8 33.9h-2.3l-4.1-5.2h-2v5.2h-1.7v-13.1h3.4c0.8 0 1.4 0 1.9 0.1s1 0.3 1.4 0.6c0.5 0.3 0.8 0.7 1.1 1.1 0.3 0.5 0.4 1 0.4 1.7 0 1-0.2 1.8-0.7 2.4s-1.1 1.1-2 1.4l4.6 5.8zm-3.8-9.4c0-0.4-0.1-0.7-0.2-1s-0.3-0.5-0.6-0.7c-0.2-0.2-0.5-0.3-0.9-0.3s-0.7-0.1-1.2-0.1h-1.7v4.9h1.5c0.5 0 0.9 0 1.3-0.1s0.7-0.3 1-0.5c0.3-0.2 0.4-0.5 0.6-0.9 0.1-0.4 0.2-0.8 0.2-1.3z"/>
<path class="st1" d="m197.2 33.9l4.4-13.1h2.1l4.4 13.1h-1.8l-1.2-3.7h-5l-1.2 3.7h-1.7zm7.4-5.1l-2-6.2-2 6.2h4zm0.2-12.9l-2.4 3.3h-1.3l1.6-3.3h2.1z"/>
<path class="st1" d="m220.7 20.8l-4.5 13.1h-1.9l-4.5-13.1h1.9l3.6 10.9 3.6-10.9h1.8z"/>
<path class="st1" d="m221.8 33.9l4.4-13.1h2.1l4.4 13.1h-1.7l-1.2-3.7h-5l-1.2 3.7h-1.8zm7.5-5.1l-2-6.2-2 6.2h4z"/>
<path class="st1" d="m97 55.8c-0.9 0-1.8-0.1-2.4-0.3-0.7-0.2-1.3-0.4-1.9-0.7v-2.2h0.1c0.6 0.5 1.2 1 2 1.3s1.4 0.4 2.1 0.4c1 0 1.7-0.2 2.2-0.6s0.7-0.9 0.7-1.6c0-0.5-0.1-0.9-0.4-1.3s-0.7-0.6-1.2-0.7c-0.4-0.1-0.8-0.2-1.1-0.3s-0.8-0.2-1.3-0.3c-0.5-0.1-0.9-0.3-1.2-0.4s-0.7-0.4-0.9-0.7c-0.3-0.3-0.5-0.6-0.6-1s-0.2-0.8-0.2-1.3c0-1.1 0.4-1.9 1.2-2.7 0.8-0.7 1.9-1.1 3.2-1.1 0.7 0 1.4 0.1 2.1 0.2s1.3 0.4 1.8 0.6v2.1h-0.1c-0.4-0.4-0.9-0.7-1.6-1s-1.3-0.4-2-0.4c-0.8 0-1.5 0.2-2 0.6s-0.7 0.9-0.7 1.5 0.1 1 0.4 1.3 0.7 0.6 1.3 0.7c0.4 0.1 0.8 0.2 1.4 0.3 0.5 0.1 1 0.2 1.3 0.3 0.9 0.3 1.6 0.7 2 1.2s0.6 1.2 0.6 2.1c0 0.5-0.1 1-0.3 1.5s-0.5 0.9-0.9 1.3c-0.4 0.4-0.9 0.7-1.4 0.9s-1.4 0.3-2.2 0.3z"/>
<path class="st1" d="m114.4 43.9c0.5 0.6 0.9 1.3 1.2 2.1s0.4 1.8 0.4 2.9c0 1.1-0.1 2-0.4 2.9s-0.7 1.6-1.2 2.2c-0.5 0.6-1.2 1.1-1.9 1.3-0.7 0.3-1.5 0.4-2.4 0.4s-1.7-0.1-2.4-0.4-1.3-0.7-1.8-1.3c-0.5-0.6-0.9-1.3-1.2-2.1s-0.4-1.8-0.4-2.9c0-1.1 0.1-2.1 0.4-2.9s0.7-1.5 1.2-2.1c0.5-0.6 1.1-1 1.8-1.3s1.5-0.5 2.4-0.5c0.9 0 1.7 0.2 2.4 0.5s1.4 0.7 1.9 1.2zm-0.2 5.1c0-0.9-0.1-1.6-0.3-2.3s-0.5-1.2-0.8-1.7c-0.3-0.5-0.8-0.8-1.3-1s-1-0.3-1.6-0.3c-0.6 0-1.2 0.1-1.7 0.3s-0.9 0.6-1.3 1c-0.3 0.4-0.6 1-0.8 1.7s-0.3 1.4-0.3 2.3c0 1.7 0.4 3 1.1 3.9s1.7 1.4 2.9 1.4 2.2-0.5 2.9-1.4c0.8-0.9 1.2-2.2 1.2-3.9z"/>
<path class="st1" d="m124.8 55.8c-0.9 0-1.6-0.1-2.4-0.4s-1.3-0.7-1.9-1.3-0.9-1.3-1.2-2.1-0.4-1.8-0.4-2.9c0-1.1 0.1-2.1 0.4-2.9s0.7-1.5 1.2-2.1c0.5-0.6 1.1-1 1.9-1.3 0.7-0.3 1.5-0.5 2.4-0.5 0.4 0 0.9 0 1.2 0.1s0.7 0.1 1.1 0.2c0.3 0.1 0.6 0.2 0.9 0.3s0.6 0.3 0.9 0.4v2.1h-0.1c-0.2-0.1-0.3-0.3-0.6-0.5-0.2-0.2-0.5-0.4-0.9-0.6-0.3-0.2-0.7-0.3-1.1-0.4s-0.8-0.2-1.4-0.2c-0.6 0-1.1 0.1-1.6 0.3s-0.9 0.6-1.3 1c-0.4 0.4-0.7 1-0.9 1.7s-0.3 1.4-0.3 2.3c0 0.9 0.1 1.7 0.3 2.3s0.5 1.2 0.9 1.6 0.8 0.8 1.3 1 1 0.3 1.6 0.3c0.5 0 1-0.1 1.4-0.2s0.8-0.3 1.1-0.5c0.3-0.2 0.6-0.4 0.8-0.6s0.4-0.4 0.6-0.5h0.1v2.1c-0.3 0.1-0.6 0.3-0.8 0.4s-0.6 0.2-0.9 0.4c-0.4 0.1-0.7 0.2-1.1 0.3s-0.7 0.2-1.2 0.2z"/>
<path class="st1" d="m136.9 55.5h-5.1v-1.3h1.7v-10.4h-1.7v-1.3h5.1v1.3h-1.7v10.4h1.7v1.3z"/>
<path class="st1" d="m139.4 55.5l4.4-13.1h2.1l4.4 13.1h-1.8l-1.2-3.7h-5l-1.2 3.7h-1.7zm7.5-5.1l-2-6.2-2 6.2h4zm0.2-12.9l-2.4 3.3h-1.3l1.6-3.3h2.1z"/>
<path class="st1" d="m161 55.5h-7.6v-13.1h1.7v11.6h5.8l0.1 1.5z"/>
<path class="st1" d="m173.5 55.5h-2l-5.8-11.3v11.3h-1.6v-13.1h2.5l5.3 10.4v-10.4h1.6v13.1z"/>
<path class="st1" d="m182.6 55.5h-5.1v-1.3h1.7v-10.4h-1.7v-1.3h5.1v1.3h-1.7v10.4h1.7v1.3zm-0.2-18l-2.4 3.3h-1.3l1.6-3.3h2.1z"/>
<path class="st1" d="m196 55.5h-1.7v-6.4h-6v6.4h-1.7v-13.1h1.7v5.1h6v-5.1h1.7v13.1z"/>
<path class="st1" d="m209.7 43.9c0.5 0.6 0.9 1.3 1.2 2.1s0.4 1.8 0.4 2.9c0 1.1-0.1 2-0.4 2.9s-0.7 1.6-1.2 2.2c-0.5 0.6-1.2 1.1-1.9 1.3-0.7 0.3-1.5 0.4-2.4 0.4s-1.7-0.1-2.4-0.4-1.3-0.7-1.8-1.3c-0.5-0.6-0.9-1.3-1.2-2.1s-0.4-1.8-0.4-2.9c0-1.1 0.1-2.1 0.4-2.9s0.7-1.5 1.2-2.1 1.1-1 1.8-1.3 1.5-0.5 2.4-0.5 1.7 0.2 2.4 0.5 1.4 0.7 1.9 1.2zm-0.2 5.1c0-0.9-0.1-1.6-0.3-2.3s-0.5-1.2-0.8-1.7c-0.3-0.5-0.8-0.8-1.3-1s-1-0.3-1.6-0.3c-0.6 0-1.2 0.1-1.7 0.3s-0.9 0.6-1.3 1c-0.3 0.4-0.6 1-0.8 1.7s-0.3 1.4-0.3 2.3c0 1.7 0.4 3 1.1 3.9s1.7 1.4 2.9 1.4 2.2-0.5 2.9-1.4c0.8-0.9 1.2-2.2 1.2-3.9z"/>
<path class="st1" d="m230.8 55.5h-9.1v-1.6l7-9.9h-6.7v-1.5h8.6v1.5l-7.1 10h7.3v1.5z"/>
<path class="st1" d="m232.9 55.5l4.4-13.1h2.1l4.4 13.1h-1.8l-1.2-3.7h-5l-1.2 3.7h-1.7zm7.4-5.1l-2-6.2-2 6.2h4z"/>
<path class="st1" d="m255.7 51.5c0 0.7-0.1 1.2-0.4 1.7s-0.6 0.9-1 1.2c-0.5 0.4-1 0.7-1.6 0.8-0.6 0.2-1.3 0.2-2.2 0.2h-3.8v-13h3.5c0.9 0 1.6 0 2.1 0.1s0.9 0.2 1.3 0.4c0.5 0.3 0.8 0.6 1 1s0.3 0.9 0.3 1.4c0 0.6-0.2 1.2-0.5 1.7s-0.8 0.9-1.3 1.1v0.1c0.8 0.2 1.4 0.6 1.8 1.2 0.6 0.6 0.8 1.3 0.8 2.1zm-2.4-5.9c0-0.3-0.1-0.6-0.2-0.8s-0.3-0.4-0.5-0.5c-0.3-0.2-0.6-0.3-0.9-0.3s-0.8-0.1-1.4-0.1h-1.7v3.8h2c0.5 0 0.9 0 1.2-0.1s0.5-0.2 0.8-0.3c0.3-0.2 0.5-0.4 0.6-0.7s0.1-0.6 0.1-1zm0.6 6c0-0.5-0.1-0.9-0.2-1.2s-0.4-0.6-0.9-0.8c-0.3-0.1-0.6-0.2-0.9-0.3-0.3 0-0.8-0.1-1.4-0.1h-2v4.8h1.4c0.8 0 1.4 0 1.8-0.1s0.8-0.2 1.2-0.4c0.3-0.2 0.6-0.5 0.7-0.8 0.3-0.3 0.3-0.7 0.3-1.1z"/>
<path class="st1" d="m259.3 55.5v-13.1h8.2v1.6h-6.5v3.6h6v1.5h-6v4.9h6.4v1.5h-8.1z"/>
<path class="st1" d="m279.5 55.5h-9.1v-1.6l7-9.9h-6.7v-1.5h8.6v1.5l-7.1 10h7.3v1.5z"/>
<path class="st1" d="m291.3 46.4c0 0.6-0.1 1.1-0.3 1.6s-0.5 0.9-0.8 1.3c-0.5 0.4-1 0.8-1.6 1s-1.4 0.3-2.3 0.3h-1.5v4.9h-1.8v-13.1h3.3c0.8 0 1.4 0.1 2 0.2s1 0.3 1.4 0.6c0.5 0.3 0.9 0.8 1.1 1.3 0.4 0.5 0.5 1.1 0.5 1.9zm-1.8 0c0-0.5-0.1-0.8-0.2-1.2s-0.4-0.6-0.7-0.8c-0.3-0.2-0.6-0.3-1-0.4s-0.8-0.1-1.4-0.1h-1.4v5.2h1.2c0.7 0 1.3-0.1 1.7-0.2s0.8-0.3 1.1-0.6 0.4-0.6 0.6-0.9 0.1-0.6 0.1-1z"/>
<path class="st1" d="m294.8 55.5v-13.1h8.2v1.6h-6.4v3.6h6v1.5h-6v4.9h6.4v1.5h-8.2z"/>
<path class="st1" d="m311.8 55.8c-0.9 0-1.6-0.1-2.4-0.4s-1.3-0.7-1.9-1.3-0.9-1.3-1.2-2.1-0.4-1.8-0.4-2.9c0-1.1 0.1-2.1 0.4-2.9s0.7-1.5 1.2-2.1 1.1-1 1.9-1.3c0.7-0.3 1.5-0.5 2.4-0.5 0.4 0 0.9 0 1.2 0.1s0.7 0.1 1.1 0.2c0.3 0.1 0.6 0.2 0.9 0.3s0.6 0.3 0.9 0.4v2.1h-0.1c-0.2-0.1-0.3-0.3-0.6-0.5s-0.5-0.4-0.9-0.6c-0.3-0.2-0.7-0.3-1.1-0.4s-0.8-0.2-1.4-0.2c-0.6 0-1.1 0.1-1.6 0.3s-0.9 0.6-1.3 1c-0.4 0.4-0.7 1-0.9 1.7s-0.3 1.4-0.3 2.3c0 0.9 0.1 1.7 0.3 2.3s0.5 1.2 0.9 1.6 0.8 0.8 1.3 1 1 0.3 1.6 0.3c0.5 0 1-0.1 1.4-0.2s0.8-0.3 1.1-0.5c0.3-0.2 0.6-0.4 0.8-0.6s0.4-0.4 0.6-0.5h0.1v2.1c-0.3 0.1-0.6 0.3-0.8 0.4-0.3 0.1-0.6 0.2-0.9 0.4-0.4 0.1-0.7 0.2-1.1 0.3-0.3 0.1-0.7 0.2-1.2 0.2zm2.7-18.3l-2 3.3h-2l-2-3.3h1.4l1.6 2.2 1.6-2.2h1.4z"/>
<path class="st1" d="m319.3 55.5v-13.1h8.2v1.6h-6.5v3.6h6v1.5h-6v4.9h6.4v1.5h-8.1z"/>
<path class="st1" d="m340.5 55.5h-2l-5.8-11.3v11.3h-1.6v-13.1h2.5l5.3 10.4v-10.4h1.6v13.1z"/>
<path class="st1" d="m349.5 55.5h-5.1v-1.3h1.7v-10.4h-1.7v-1.3h5.1v1.3h-1.7v10.4h1.7v1.3zm-0.1-18l-2.4 3.3h-1.3l1.6-3.3h2.1z"/>
</svg>