<?xml version="1.0" encoding="UTF-8"?>
<svg width="375px" height="116px" viewBox="0 0 375 116" version="1.1" xmlns="http://www.w3.org/2000/svg" xmlns:xlink="http://www.w3.org/1999/xlink">
    <title>Group 56</title>
    <defs>
        <polygon id="path-1" points="0 0.061 123.9648 0.061 123.9648 115 0 115"></polygon>
    </defs>
    <g id="Symbols" stroke="none" stroke-width="1" fill="none" fill-rule="evenodd">
        <g id="icons/logo" transform="translate(0.000000, 0.000000)">
            <g id="Group-56">
                <path d="M121.3125,3.6528 L121.3125,113.2858 L10.2565,113.2858 C8.2245,113.2858 6.3165,112.4958 4.8795,111.0588 C3.4455,109.6248 2.6525,107.7158 2.6525,105.6828 L2.6525,11.2568 C2.6525,9.2248 3.4455,7.3148 4.8795,5.8798 C6.3165,4.4438 8.2245,3.6528 10.2565,3.6528 L121.3125,3.6528" id="Fill-1" fill="#FFFFFF"></path>
                <g id="Group-5" transform="translate(0.000000, 0.939000)">
                    <mask id="mask-2" fill="white">
                        <use xlink:href="#path-1"></use>
                    </mask>
                    <g id="Clip-4"></g>
                    <path d="M123.9648,0.061 L10.2568,0.061 C7.5158,0.061 4.9418,1.128 3.0038,3.063 C1.0668,5.001 -0.0002,7.578 -0.0002,10.317 L-0.0002,104.744 C-0.0002,107.483 1.0668,110.06 3.0038,111.996 C4.9418,113.934 7.5158,115 10.2568,115 L123.9648,115 L123.9648,0.061 Z M121.3128,2.714 L121.3128,112.347 L10.2568,112.347 C8.2248,112.347 6.3168,111.557 4.8798,110.12 C3.4448,108.686 2.6518,106.776 2.6518,104.744 L2.6518,10.317 C2.6518,8.286 3.4448,6.376 4.8798,4.94 C6.3168,3.504 8.2248,2.714 10.2568,2.714 L121.3128,2.714 L121.3128,2.714 Z" id="Fill-3" fill="#18481C" mask="url(#mask-2)"></path>
                </g>
                <path d="M364.4668,1 C367.2078,1 369.7798,2.067 371.7188,4.002 C373.6568,5.94 374.7238,8.517 374.7238,11.256 L374.7238,105.683 C374.7238,108.422 373.6568,110.999 371.7188,112.936 C369.7798,114.873 367.2078,115.939 364.4668,115.939 L130.0248,115.939 L130.0248,1 L364.4668,1 Z" id="Fill-6" fill="#18481C"></path>
                <path d="M190.0078,88.1318 C188.2248,88.1318 187.3338,89.7938 187.3338,93.1188 C187.3338,96.4238 188.2248,98.0758 190.0078,98.0758 C191.8128,98.0758 192.7158,96.4238 192.7158,93.1188 C192.7158,89.7938 191.8128,88.1318 190.0078,88.1318 M194.6588,86.8548 C196.1018,88.2948 196.8218,90.3828 196.8218,93.1188 C196.8218,94.3348 196.6658,95.4358 196.3638,96.4178 C196.0618,97.4028 195.6208,98.2378 195.0408,98.9258 C194.4638,99.6168 193.7498,100.1488 192.8968,100.5238 C192.0458,100.8988 191.0818,101.0868 190.0078,101.0868 C188.9358,101.0868 187.9778,100.8988 187.1368,100.5238 C186.2918,100.1488 185.5838,99.6168 185.0058,98.9258 C184.4278,98.2378 183.9868,97.4028 183.6858,96.4178 C183.3798,95.4358 183.2278,94.3348 183.2278,93.1188 C183.2278,90.6668 183.8158,88.7248 184.9908,87.2958 C186.1668,85.8668 187.8388,85.1528 190.0078,85.1528 C191.9138,85.1528 193.4638,85.7188 194.6588,86.8548" id="Fill-8" fill="#FFFFFF"></path>
                <path d="M212.5723,90.5039 L212.5723,97.1329 C212.5723,98.4309 212.7853,99.3939 213.2113,100.0229 C212.5603,100.5899 211.7803,100.8739 210.8703,100.8739 C209.9993,100.8739 209.3983,100.6759 209.0753,100.2809 C208.7513,99.8849 208.5903,99.2629 208.5903,98.4099 L208.5903,91.3249 C208.5903,90.4139 208.4773,89.7739 208.2553,89.4089 C208.0313,89.0459 207.6153,88.8619 207.0093,88.8619 C205.9333,88.8619 204.9283,89.3479 203.9983,90.3219 L203.9983,100.6609 C203.6933,100.7209 203.3723,100.7619 203.0393,100.7829 C202.7043,100.8009 202.3653,100.8129 202.0203,100.8129 C201.6763,100.8129 201.3353,100.8009 201.0023,100.7829 C200.6683,100.7619 200.3493,100.7209 200.0433,100.6609 L200.0433,85.6079 L200.2273,85.3949 L201.7463,85.3949 C202.8823,85.3949 203.5903,86.0029 203.8763,87.2179 C205.3543,85.9419 206.8253,85.3039 208.2843,85.3039 C209.7433,85.3039 210.8233,85.7759 211.5233,86.7179 C212.2223,87.6609 212.5723,88.9229 212.5723,90.5039" id="Fill-10" fill="#FFFFFF"></path>
                <path d="M221.7559,97.7412 L222.6969,97.7412 C222.9219,98.3102 223.0349,98.8552 223.0349,99.3842 C223.0349,99.9112 223.0029,100.2952 222.9419,100.5392 C221.7089,100.7212 220.7229,100.8122 219.9929,100.8122 C218.8169,100.8122 217.9559,100.5142 217.4099,99.9142 C216.8599,99.3182 216.5859,98.3812 216.5859,97.1022 L216.5859,78.4932 L216.7989,78.2782 L218.3179,78.2782 C219.1099,78.2782 219.6669,78.4672 219.9929,78.8432 C220.3159,79.2172 220.4799,79.8522 220.4799,80.7422 L220.4799,96.3432 C220.4799,97.2752 220.9049,97.7412 221.7559,97.7412" id="Fill-12" fill="#FFFFFF"></path>
                <path d="M225.832,79.7095 C226.298,79.4455 226.966,79.3135 227.839,79.3135 C228.345,79.3135 228.756,79.3545 229.069,79.4345 C229.383,79.5175 229.611,79.6135 229.754,79.7225 C229.896,79.8355 229.986,80.0425 230.027,80.3475 C230.067,80.6505 230.088,80.9655 230.088,81.2885 C230.027,82.3245 229.9,82.8925 229.707,82.9925 C229.517,83.0935 228.88,83.1955 227.808,83.2975 C226.674,83.2565 226.007,83.1055 225.816,82.8415 C225.622,82.5785 225.527,82.0615 225.527,81.2885 C225.527,80.7035 225.628,80.1755 225.832,79.7095 M230.422,88.6495 L230.422,100.6615 C230.119,100.7215 229.802,100.7625 229.465,100.7835 C229.129,100.8015 228.793,100.8125 228.445,100.8125 C228.1,100.8125 227.761,100.8015 227.425,100.7835 C227.091,100.7625 226.761,100.7215 226.436,100.6615 L226.436,90.0785 C226.436,88.9625 225.985,88.4045 225.072,88.4045 L224.675,88.4045 C224.554,87.9615 224.493,87.4935 224.493,87.0065 C224.493,86.5615 224.554,86.0945 224.675,85.6085 C225.142,85.5675 225.573,85.5315 225.969,85.5015 C226.364,85.4715 226.701,85.4555 226.986,85.4555 L227.503,85.4555 C228.415,85.4555 229.129,85.7395 229.647,86.3075 C230.163,86.8745 230.422,87.6555 230.422,88.6495" id="Fill-14" fill="#FFFFFF"></path>
                <path d="M247.0859,90.5039 L247.0859,97.1329 C247.0859,98.4309 247.3009,99.3939 247.7239,100.0229 C247.0759,100.5899 246.2969,100.8739 245.3829,100.8739 C244.5139,100.8739 243.9139,100.6759 243.5899,100.2809 C243.2659,99.8849 243.1039,99.2629 243.1039,98.4099 L243.1039,91.3249 C243.1039,90.4139 242.9899,89.7739 242.7679,89.4089 C242.5449,89.0459 242.1289,88.8619 241.5219,88.8619 C240.4469,88.8619 239.4419,89.3479 238.5109,90.3219 L238.5109,100.6609 C238.2079,100.7209 237.8899,100.7619 237.5539,100.7829 C237.2199,100.8009 236.8779,100.8129 236.5339,100.8129 C236.1879,100.8129 235.8499,100.8009 235.5179,100.7829 C235.1799,100.7619 234.8619,100.7209 234.5609,100.6609 L234.5609,85.6079 L234.7399,85.3949 L236.2609,85.3949 C237.3959,85.3949 238.1059,86.0029 238.3909,87.2179 C239.8689,85.9419 241.3389,85.3039 242.7999,85.3039 C244.2579,85.3039 245.3379,85.7759 246.0369,86.7179 C246.7349,87.6609 247.0859,88.9229 247.0859,90.5039" id="Fill-16" fill="#FFFFFF"></path>
                <path d="M256.7568,88.0107 C255.1758,88.0107 254.3248,89.2077 254.2028,91.5987 L259.2518,91.5987 L259.2518,91.2337 C259.2518,90.2607 259.0468,89.4807 258.6418,88.8927 C258.2348,88.3047 257.6088,88.0107 256.7568,88.0107 M262.6248,94.3947 L254.2328,94.3947 C254.2928,95.5107 254.5518,96.3867 255.0068,97.0257 C255.4628,97.6647 256.2598,97.9857 257.3968,97.9857 C258.5708,97.9857 259.9188,97.6397 261.4398,96.9517 C262.0268,97.5597 262.4028,98.3607 262.5658,99.3537 C260.9438,100.5087 258.9958,101.0867 256.7288,101.0867 C254.5768,101.0867 252.9498,100.4237 251.8458,99.0947 C250.7398,97.7677 250.1898,95.7967 250.1898,93.1787 C250.1898,91.9627 250.3288,90.8647 250.6158,89.8797 C250.8998,88.8977 251.3148,88.0557 251.8628,87.3567 C252.4078,86.6567 253.0778,86.1147 253.8688,85.7297 C254.6578,85.3437 255.5618,85.1527 256.5738,85.1527 C257.6088,85.1527 258.5218,85.3087 259.3118,85.6227 C260.1028,85.9387 260.7708,86.3847 261.3188,86.9627 C261.8638,87.5377 262.2758,88.2227 262.5498,89.0127 C262.8228,89.8057 262.9608,90.6667 262.9608,91.5987 C262.9608,92.1057 262.9298,92.5867 262.8678,93.0447 C262.8078,93.4987 262.7268,93.9517 262.6248,94.3947" id="Fill-18" fill="#FFFFFF"></path>
                <path d="M271.6553,99.5957 C271.6763,99.1507 271.8043,98.6587 272.0353,98.1217 C272.2693,97.5837 272.5393,97.1627 272.8423,96.8607 C274.4453,97.7317 275.8523,98.1667 277.0693,98.1667 C277.7393,98.1667 278.2793,98.0347 278.6973,97.7717 C279.1113,97.5097 279.3203,97.1547 279.3203,96.7067 C279.3203,95.9987 278.7713,95.4297 277.6773,95.0047 L275.9763,94.3647 C273.4213,93.4337 272.1433,91.9447 272.1433,89.8967 C272.1433,89.1667 272.2803,88.5117 272.5523,87.9337 C272.8273,87.3567 273.2133,86.8607 273.7083,86.4447 C274.2063,86.0297 274.7983,85.7097 275.4883,85.4867 C276.1773,85.2637 276.9473,85.1527 277.8003,85.1527 C278.1833,85.1527 278.6153,85.1817 279.0913,85.2427 C279.5663,85.3037 280.0513,85.3907 280.5353,85.5007 C281.0233,85.6137 281.4873,85.7397 281.9343,85.8827 C282.3803,86.0237 282.7653,86.1767 283.0893,86.3377 C283.0893,86.8457 282.9883,87.3727 282.7883,87.9197 C282.5833,88.4667 282.3103,88.8727 281.9673,89.1367 C280.3633,88.4257 278.9743,88.0717 277.8003,88.0717 C277.2733,88.0717 276.8553,88.1987 276.5513,88.4517 C276.2503,88.7057 276.0963,89.0337 276.0963,89.4387 C276.0963,90.0687 276.6043,90.5647 277.6153,90.9297 L279.4723,91.5987 C280.8103,92.0647 281.8013,92.7047 282.4523,93.5137 C283.1013,94.3267 283.4243,95.2687 283.4243,96.3437 C283.4243,97.7827 282.8873,98.9327 281.8133,99.7947 C280.7383,100.6557 279.1973,101.0867 277.1903,101.0867 C275.2253,101.0867 273.3783,100.5897 271.6553,99.5957" id="Fill-20" fill="#FFFFFF"></path>
                <path d="M291.4834,97.7412 L292.4264,97.7412 C292.6494,98.3102 292.7594,98.8552 292.7594,99.3842 C292.7594,99.9112 292.7314,100.2952 292.6684,100.5392 C291.4324,100.7212 290.4484,100.8122 289.7184,100.8122 C288.5434,100.8122 287.6824,100.5142 287.1344,99.9142 C286.5864,99.3182 286.3134,98.3812 286.3134,97.1022 L286.3134,78.4932 L286.5254,78.2782 L288.0464,78.2782 C288.8374,78.2782 289.3934,78.4672 289.7184,78.8432 C290.0454,79.2172 290.2074,79.8522 290.2074,80.7422 L290.2074,96.3432 C290.2074,97.2752 290.6324,97.7412 291.4834,97.7412" id="Fill-22" fill="#FFFFFF"></path>
                <path d="M295.1016,95.7339 L295.1016,89.0749 C295.1016,87.8189 294.8906,86.8549 294.4636,86.1859 C295.1316,85.6199 295.9076,85.3339 296.7906,85.3339 C297.6726,85.3339 298.2746,85.5419 298.5996,85.9589 C298.9216,86.3729 299.0846,86.9979 299.0846,87.8269 L299.0846,94.9129 C299.0846,95.7839 299.1956,96.4089 299.4196,96.7829 C299.6436,97.1589 300.0586,97.3449 300.6666,97.3449 C301.7426,97.3449 302.7456,96.8799 303.6786,95.9469 L303.6786,85.5789 C304.1236,85.4769 304.7756,85.4239 305.6366,85.4239 C306.5006,85.4239 307.1766,85.4769 307.6596,85.5789 L307.6596,96.3739 C307.6596,97.5699 307.9436,98.4099 308.5126,98.8969 C308.4106,99.2629 308.2336,99.6369 307.9786,100.0229 C307.7256,100.4069 307.4596,100.7019 307.1766,100.9029 C305.6956,100.7619 304.6696,100.0429 304.1016,98.7449 C302.5416,100.2049 300.9286,100.9329 299.2686,100.9329 C297.9126,100.9329 296.8746,100.4589 296.1636,99.5049 C295.4556,98.5529 295.1016,97.2949 295.1016,95.7339" id="Fill-24" fill="#FFFFFF"></path>
                <path d="M313.7432,78.1582 L316.5402,80.8642 L319.5802,77.9452 C320.3912,78.2482 320.9882,78.7762 321.3732,79.5272 L318.1192,83.6612 C317.6532,83.8032 317.1052,83.8702 316.4782,83.8602 C315.8492,83.8492 315.3022,83.7842 314.8362,83.6612 L311.9482,79.8302 C312.1092,79.4452 312.3652,79.1012 312.7212,78.7962 C313.0782,78.4932 313.4172,78.2782 313.7432,78.1582 M311.2802,97.1332 L315.5342,91.3862 C315.8412,90.9802 316.6512,90.0082 317.9702,88.4672 L317.8772,88.3452 C316.7002,88.4872 315.3932,88.5592 313.9562,88.5592 L311.2162,88.5592 C311.1152,88.1132 311.0652,87.6502 311.0652,87.1752 C311.0652,86.6992 311.1452,86.1662 311.3082,85.5782 L321.7072,85.5782 C322.0532,86.6102 322.2242,87.3562 322.2242,87.8132 C322.2242,88.2692 322.0852,88.6802 321.8002,89.0452 L317.5142,94.8522 C316.6192,96.0082 315.8412,96.9512 315.1722,97.6802 L315.2612,97.8322 C316.0532,97.7322 316.9242,97.6802 317.8772,97.6802 L319.1252,97.6802 C320.4822,97.6802 321.4972,97.5182 322.1662,97.1942 C322.4282,97.8432 322.5582,98.4022 322.5582,98.8662 C322.5582,100.0622 321.8002,100.6612 320.2792,100.6612 L311.1852,100.6612 C310.8612,99.7682 310.7022,99.0902 310.7022,98.6242 C310.7022,98.1582 310.8922,97.6612 311.2802,97.1332" id="Fill-26" fill="#FFFFFF"></path>
                <path d="M332.0312,88.5278 C331.5102,88.5278 331.0352,88.6358 330.6102,88.8468 C330.1862,89.0618 329.7722,89.4028 329.3712,89.8698 L329.3712,97.8008 C330.0582,97.9648 330.6932,98.0458 331.2772,98.0458 C332.2632,98.0458 333.0232,97.6138 333.5572,96.7488 C334.0942,95.8848 334.3582,94.6288 334.3582,92.9828 C334.3582,90.0118 333.5842,88.5278 332.0312,88.5278 M325.5122,99.9008 L325.5122,78.4938 L325.6922,78.2778 L327.1812,78.2778 C327.9742,78.2778 328.5352,78.4618 328.8692,78.8268 C329.2052,79.1918 329.3712,79.8308 329.3712,80.7428 L329.3712,86.5498 C330.4882,85.6998 331.7442,85.2738 333.1422,85.2738 C334.8862,85.2738 336.2122,85.9838 337.1102,87.4028 C338.0122,88.8218 338.4652,90.7678 338.4652,93.2408 C338.4652,94.3948 338.2852,95.4458 337.9322,96.3868 C337.5772,97.3308 337.0852,98.1368 336.4582,98.8058 C335.8272,99.4748 335.0742,99.9918 334.1932,100.3558 C333.3102,100.7208 332.3412,100.9028 331.2882,100.9028 C329.1602,100.9028 327.2322,100.5698 325.5122,99.9008" id="Fill-28" fill="#FFFFFF"></path>
                <path d="M354.0029,85.9424 L350.1119,100.2354 C349.4429,102.6474 348.5949,104.4314 347.5709,105.5864 C346.5469,106.7414 345.0129,107.3204 342.9659,107.3204 C341.8289,107.3204 340.7249,107.1284 339.6499,106.7414 C339.6099,106.2954 339.6709,105.7904 339.8339,105.2224 C339.9929,104.6534 340.2089,104.2184 340.4729,103.9134 C341.3639,104.1974 342.2019,104.3394 342.9959,104.3394 C344.5549,104.3394 345.6509,103.3054 346.2779,101.2384 L346.4009,100.8434 C345.6309,100.8234 345.0209,100.6804 344.5749,100.4184 C344.1319,100.1544 343.8159,99.7084 343.6339,99.0794 L339.8629,85.8824 C340.6899,85.4964 341.4229,85.3044 342.0659,85.3044 C342.7119,85.3044 343.1889,85.4314 343.5009,85.6844 C343.8139,85.9384 344.0619,86.3904 344.2439,87.0374 L345.9839,93.4544 C346.1079,93.9214 346.4029,95.3304 346.8709,97.6804 C346.8919,97.8224 346.9829,97.8934 347.1459,97.8934 L350.1429,85.5784 C350.6079,85.4554 351.1959,85.3944 351.9059,85.3944 C352.6149,85.3944 353.2639,85.4964 353.8509,85.6994 L354.0029,85.9424 Z" id="Fill-30" fill="#FFFFFF"></path>
                <path d="M193.0645,25.4971 L193.0645,42.6491 C194.8035,42.6051 196.2835,42.5801 197.5145,42.5801 C198.7415,42.5801 199.7905,42.5031 200.6585,42.3471 C201.5285,42.1901 202.2605,41.8991 202.8635,41.4731 C203.4665,41.0451 204.0125,40.4081 204.5045,39.5541 C204.9535,38.7951 205.2835,37.9321 205.5085,36.9651 C205.7305,36.0001 205.8425,35.0261 205.8425,34.0401 C205.8425,33.0081 205.7305,31.9891 205.5085,30.9801 C205.2835,29.9701 204.9045,29.0611 204.3715,28.2551 C203.8355,27.4501 203.1225,26.8001 202.2285,26.3061 C201.3355,25.8131 200.2225,25.5651 198.8855,25.5651 L195.5055,25.5651 C194.5465,25.5651 193.7315,25.5441 193.0645,25.4971 M199.2325,49.5091 L193.0645,49.5091 L193.0645,64.7771 C191.7975,64.9991 190.2865,65.1141 188.5215,65.1141 C186.7595,65.1141 185.2475,64.9991 183.9855,64.7771 L183.9855,19.1751 L184.4585,18.7711 C188.0875,18.6821 191.1255,18.6161 193.5695,18.5711 C196.0125,18.5251 197.8835,18.5031 199.1835,18.5031 C204.0275,18.5031 207.8935,19.8261 210.7885,22.4711 C213.6795,25.1201 215.1225,28.9511 215.1225,33.9721 C215.1225,36.4861 214.7435,38.7041 213.9845,40.6311 C213.2245,42.5591 212.1525,44.1751 210.7655,45.4741 C209.3815,46.7741 207.7115,47.7741 205.7715,48.4651 C203.8245,49.1621 201.6475,49.5091 199.2325,49.5091" id="Fill-32" fill="#FFFFFF"></path>
                <path d="M231.5947,37.0679 C227.6477,37.0679 225.6747,40.7409 225.6747,48.0939 C225.6747,55.4039 227.6477,59.0619 231.5947,59.0619 C235.5887,59.0619 237.5817,55.4039 237.5817,48.0939 C237.5817,40.7409 235.5887,37.0679 231.5947,37.0679 M241.8827,34.2409 C245.0687,37.4239 246.6597,42.0419 246.6597,48.0939 C246.6597,50.7869 246.3227,53.2199 245.6547,55.3959 C244.9807,57.5699 244.0027,59.4199 242.7267,60.9429 C241.4457,62.4679 239.8687,63.6439 237.9857,64.4749 C236.0997,65.3049 233.9707,65.7189 231.5947,65.7189 C229.2187,65.7189 227.0997,65.3049 225.2397,64.4749 C223.3787,63.6439 221.8077,62.4679 220.5297,60.9429 C219.2557,59.4199 218.2777,57.5699 217.6057,55.3959 C216.9337,53.2199 216.5987,50.7869 216.5987,48.0939 C216.5987,42.6719 217.8957,38.3779 220.4967,35.2159 C223.0987,32.0579 226.7987,30.4759 231.5947,30.4759 C235.8087,30.4759 239.2407,31.7319 241.8827,34.2409" id="Fill-34" fill="#FFFFFF"></path>
                <path d="M250.2842,35.4512 C250.4612,34.6442 250.8342,33.7932 251.3962,32.8982 C251.9562,32.0002 252.5232,31.3262 253.1092,30.8782 C256.7412,31.3262 259.2302,33.3452 260.5772,36.9322 C262.2772,32.9392 265.1262,30.9472 269.1192,30.9472 C270.5962,30.9472 271.9432,31.1042 273.1522,31.4182 C273.1522,34.5552 272.4352,37.2902 270.9992,39.6192 C270.3262,39.3982 269.2972,39.2422 267.9082,39.1502 C265.3052,39.1502 263.1982,40.5412 261.5892,43.3232 L261.5892,64.7772 C260.2372,64.9992 258.7942,65.1142 257.2432,65.1142 C255.6992,65.1142 254.2082,64.9992 252.7732,64.7772 L252.7732,42.3802 C252.7732,39.1962 251.9412,36.8902 250.2842,35.4512" id="Fill-36" fill="#FFFFFF"></path>
                <path d="M298.748,31.3491 C299.016,32.4251 299.151,33.4801 299.151,34.5101 C299.151,35.5421 299.016,36.5951 298.748,37.6731 L290.609,37.5361 L290.609,55.2261 C290.609,57.2891 291.573,58.3211 293.502,58.3211 L297.67,58.3211 C298.119,59.6641 298.343,60.9421 298.343,62.1531 C298.343,63.3631 298.275,64.1501 298.142,64.5091 C295.404,64.9121 292.716,65.1141 290.071,65.1141 C284.69,65.1141 282.001,62.3781 282.001,56.9081 L282.001,37.6041 L276.888,37.6731 C276.664,36.7741 276.552,35.7241 276.552,34.5101 C276.552,33.3001 276.664,32.2461 276.888,31.3491 L282.001,31.4181 L282.001,26.5731 C282.001,24.6021 282.355,23.2111 283.076,22.4041 C283.795,21.5971 285.024,21.1941 286.775,21.1941 L290.138,21.1941 L290.609,21.5971 L290.609,31.4831 L298.748,31.3491 Z" id="Fill-38" fill="#FFFFFF"></path>
                <path d="M315.3623,59.0615 C317.5993,59.0615 319.7073,58.0735 321.6813,56.0995 L321.6813,50.2505 C320.9633,50.2065 320.2693,50.1615 319.5993,50.1145 C318.9233,50.0695 318.2723,50.0465 317.6463,50.0465 C315.6693,50.0465 314.1683,50.4165 313.1403,51.1585 C312.1093,51.8965 311.5933,53.1175 311.5933,54.8225 C311.5933,56.1675 311.9273,57.2105 312.6003,57.9515 C313.2723,58.6895 314.1913,59.0615 315.3623,59.0615 M311.4553,25.0275 L321.5463,13.9965 C322.7113,14.3545 323.8423,15.0515 324.9443,16.0835 C326.0383,17.1145 326.7933,18.2125 327.1973,19.3785 L315.1573,28.5245 C313.3633,27.9425 312.1293,26.7765 311.4553,25.0275 M332.3093,60.7405 C332.0833,61.5475 331.6743,62.4005 331.0973,63.2975 C330.5113,64.1955 329.9293,64.8665 329.3493,65.3145 C326.4333,64.9545 324.3063,63.6795 322.9603,61.4805 C320.0443,64.3055 316.8613,65.7185 313.4083,65.7185 C311.6613,65.7185 310.1213,65.4375 308.8013,64.8765 C307.4763,64.3175 306.3803,63.5635 305.5053,62.6255 C304.6333,61.6835 303.9803,60.6055 303.5533,59.3965 C303.1313,58.1865 302.9143,56.9295 302.9143,55.6275 C302.9143,53.7455 303.2413,52.0975 303.8913,50.6855 C304.5423,49.2735 305.4593,48.0945 306.6493,47.1565 C307.8363,46.2135 309.2253,45.4965 310.8183,45.0035 C312.4103,44.5085 314.1473,44.2635 316.0303,44.2635 C318.4543,44.2635 320.3373,44.3305 321.6813,44.4635 L321.6813,42.6495 C321.6813,39.2415 320.0193,37.5365 316.7053,37.5365 C314.4613,37.5365 311.0553,38.3235 306.4803,39.8925 C305.2233,38.5025 304.4633,36.4165 304.1913,33.6355 C308.9443,31.6185 313.8543,30.6095 318.9233,30.6095 C322.2863,30.6095 325.0453,31.5505 327.1973,33.4355 C329.3493,35.3165 330.4243,38.1655 330.4243,41.9775 L330.4243,55.7635 C330.4243,58.1415 331.0553,59.7995 332.3093,60.7405" id="Fill-40" fill="#FFFFFF"></path>
                <path d="M350.7363,58.3208 L352.8183,58.3208 C353.3153,59.5758 353.5593,60.7858 353.5593,61.9518 C353.5593,63.1188 353.4933,63.9708 353.3613,64.5088 C350.6243,64.9128 348.4473,65.1138 346.8353,65.1138 C344.2363,65.1138 342.3273,64.4518 341.1193,63.1268 C339.9103,61.8058 339.3033,59.7318 339.3033,56.9078 L339.3033,15.7458 L339.7713,15.2758 L343.1383,15.2758 C344.8843,15.2758 346.1203,15.6908 346.8353,16.5188 C347.5493,17.3498 347.9103,18.7508 347.9103,20.7238 L347.9103,55.2268 C347.9103,57.2888 348.8533,58.3208 350.7363,58.3208" id="Fill-42" fill="#FFFFFF"></path>
                <path d="M157.5869,47.4809 C165.8189,46.9979 170.0369,42.7079 170.0369,39.4569 C170.0369,37.3119 168.9319,36.0659 166.3019,36.0659 C162.0139,36.0659 159.0399,41.5309 157.5869,47.4809 M167.8929,30.7429 C175.0179,30.7429 177.8519,33.6469 177.8519,38.2109 C177.8519,46.2339 169.0669,51.8359 156.7579,52.4589 C156.6899,53.2879 156.6899,54.1179 156.6899,54.8809 C156.6899,59.1699 158.6939,60.6199 161.7369,60.6199 C165.3329,60.6199 172.2479,57.7829 172.2479,57.7829 L173.8399,62.7619 C173.8399,62.7619 166.8559,66.2209 160.1479,66.2209 C151.4319,66.2209 148.5989,60.5489 148.5989,54.6719 C148.5989,41.6019 155.5139,30.7429 167.8929,30.7429" id="Fill-44" fill="#FFFFFF"></path>
                <path d="M62.8057,66.9873 C68.2037,65.1233 72.9027,62.5533 76.9007,59.0553 C78.8477,59.5413 80.4677,60.0073 82.0787,60.1603 C91.8477,61.0993 95.7027,56.1593 97.4117,49.3143 C99.9037,39.3063 97.9827,25.3203 104.6577,20.3953 C89.1997,17.9983 78.8377,21.2623 72.6797,26.7663 C68.7657,23.7273 65.1207,20.2703 62.6647,14.9333 C60.2117,20.2703 56.5587,23.7273 52.6527,26.7663 C46.4927,21.2623 36.1277,17.9983 20.6777,20.3953 C27.3497,25.3203 25.4257,39.3063 27.9207,49.3143 C29.6237,56.1593 33.4807,61.0993 43.2567,60.1603 C44.8617,60.0073 46.4817,59.5413 48.4337,59.0553 C52.4217,62.5533 57.1227,65.1233 62.5307,66.9873 L62.6757,67.0273 L62.8057,66.9873 Z M98.3837,24.8603 C97.9037,26.5113 97.3317,27.8613 97.0757,29.5133 C95.3127,40.9853 97.1107,54.2023 87.8537,56.9973 C85.6087,57.6753 82.5677,57.5333 78.8267,56.8413 C80.1657,54.5453 81.4197,52.5133 82.0147,50.4543 C84.9977,40.2933 83.0287,32.8463 98.3837,24.8603 L98.3837,24.8603 Z M96.8917,22.5713 C86.6187,22.1403 77.2807,25.0783 72.3157,31.0913 C67.1547,37.3603 66.6777,46.7913 73.4207,53.4663 C74.2537,54.2833 75.1887,54.8413 76.2437,55.5773 C83.9387,45.7493 77.0887,32.0143 96.8917,22.5713 L96.8917,22.5713 Z M28.4377,22.5713 C38.7107,22.1403 48.0507,25.0783 53.0077,31.0913 C58.1767,37.3603 58.6537,46.7913 51.9017,53.4663 C51.0767,54.2833 50.1397,54.8413 49.0897,55.5773 C41.3967,45.7493 48.2437,32.0143 28.4377,22.5713 L28.4377,22.5713 Z M26.9457,24.8603 C27.4207,26.5113 27.9977,27.8613 28.2457,29.5133 C30.0207,40.9853 28.2187,54.2023 37.4757,56.9973 C39.7257,57.6753 42.7637,57.5333 46.5017,56.8413 C45.1667,54.5453 43.9127,52.5133 43.3107,50.4543 C40.3317,40.2933 42.3017,32.8463 26.9457,24.8603 L26.9457,24.8603 Z M62.6647,63.9703 C67.3777,62.1783 71.1307,60.1353 74.2917,57.6383 C67.7647,53.4723 64.7017,45.7393 66.0327,38.3303 C66.6387,34.9633 68.2117,31.6633 70.6817,28.7973 C68.0437,26.6353 65.4287,24.5633 62.6647,20.6023 C59.9007,24.5633 57.2787,26.6353 54.6477,28.7973 C57.1157,31.6633 58.6927,34.9633 59.2967,38.3303 C60.6287,45.7393 57.5647,53.4723 51.0357,57.6383 C54.1987,60.1353 57.9557,62.1783 62.6647,63.9703 L62.6647,63.9703 Z" id="Fill-46" fill="#18481C"></path>
                <path d="M29.7422,69.3262 L33.7572,71.9102 L37.8802,68.9772 C38.2552,69.1172 38.6452,69.3662 39.0522,69.7282 C39.4592,70.0892 39.7222,70.4672 39.8352,70.8642 L35.7142,74.9882 C34.5502,75.2902 33.2462,75.3022 31.8002,75.0222 L27.8532,71.2472 C27.9942,70.8052 28.2552,70.4032 28.6382,70.0412 C29.0242,69.6802 29.3912,69.4422 29.7422,69.3262 M38.1272,86.0282 L38.1272,85.6772 C38.1272,84.9092 38.0432,84.2042 37.8802,83.5632 C37.7212,82.9252 37.4622,82.3642 37.1112,81.8872 C36.7612,81.4102 36.3132,81.0362 35.7652,80.7682 C35.2192,80.5022 34.5612,80.3662 33.7932,80.3662 C32.0922,80.3662 30.8592,81.1302 30.0892,82.6562 C29.3202,84.1812 28.9362,86.4922 28.9362,89.5922 C28.9362,92.0602 29.4052,93.9762 30.3532,95.3382 C31.2962,96.7012 32.5812,97.3832 34.2122,97.3832 C35.0732,97.3832 36.0122,97.1792 37.0252,96.7722 C38.0392,96.3652 39.1282,95.7182 40.2932,94.8322 C40.7842,95.1592 41.2472,95.6132 41.6882,96.1952 C42.1322,96.7782 42.4112,97.3382 42.5272,97.8722 C42.0152,98.3842 41.4162,98.8562 40.7272,99.2852 C40.0432,99.7182 39.3022,100.0972 38.5112,100.4232 C37.7212,100.7492 36.8902,101.0042 36.0292,101.1912 C35.1662,101.3792 34.3062,101.4732 33.4432,101.4732 C31.7192,101.4732 30.2622,101.1392 29.0782,100.4732 C27.8892,99.8122 26.9142,98.9142 26.1592,97.7842 C25.4022,96.6562 24.8562,95.3472 24.5152,93.8532 C24.1802,92.3632 24.0112,90.7912 24.0112,89.1362 C24.0112,87.0412 24.2642,85.2062 24.7782,83.6332 C25.2872,82.0602 25.9832,80.7592 26.8572,79.7222 C27.7322,78.6842 28.7592,77.9042 29.9302,77.3812 C31.1062,76.8542 32.3612,76.5942 33.6902,76.5942 C35.0612,76.5942 36.3042,76.7802 37.4092,77.1502 C38.5162,77.5242 39.4532,78.0322 40.2202,78.6732 C40.9882,79.3122 41.5862,80.0582 42.0042,80.9092 C42.4232,81.7592 42.6322,82.6712 42.6322,83.6512 C42.6322,85.3972 41.7502,86.2712 39.9772,86.2712 C39.7222,86.2712 39.4412,86.2552 39.1362,86.2192 C38.8362,86.1862 38.4972,86.1202 38.1272,86.0282" id="Fill-48" fill="#18481C"></path>
                <path d="M44.6563,98.8857 C44.7313,98.2327 44.9423,97.5747 45.3043,96.9107 C45.6683,96.2467 46.0793,95.7187 46.5433,95.3207 C48.9443,96.8597 51.2973,97.6267 53.6033,97.6267 C54.7193,97.6267 55.6073,97.3657 56.2583,96.8417 C56.9083,96.3167 57.2353,95.6577 57.2353,94.8687 C57.1873,93.5167 56.2963,92.4567 54.5493,91.6867 L50.4243,89.9407 C48.7923,89.2667 47.5693,88.3977 46.7563,87.3377 C45.9413,86.2787 45.5313,85.0607 45.5313,83.6867 C45.5313,82.6377 45.7353,81.6827 46.1443,80.8217 C46.5523,79.9617 47.1343,79.2187 47.8883,78.6037 C48.6483,77.9847 49.5453,77.5017 50.5813,77.1507 C51.6163,76.8037 52.7653,76.6287 54.0213,76.6287 C56.5853,76.6287 59.1003,77.2697 61.5693,78.5507 C61.5013,79.9707 60.9533,81.1597 59.9263,82.1147 C57.5723,81.0207 55.5243,80.4727 53.7803,80.4727 C52.6613,80.4727 51.8023,80.7267 51.2103,81.2347 C50.6153,81.7437 50.3193,82.3697 50.3193,83.1107 C50.3193,84.1737 51.1443,85.0527 52.7993,85.7477 L56.9223,87.4967 C58.5993,88.1927 59.8943,89.1137 60.7993,90.2547 C61.7103,91.3977 62.1623,92.7127 62.1623,94.2037 C62.1623,95.2527 61.9753,96.2247 61.6033,97.1227 C61.2283,98.0197 60.6673,98.7867 59.9083,99.4277 C59.1533,100.0687 58.2093,100.5667 57.0783,100.9287 C55.9483,101.2887 54.6173,101.4727 53.0793,101.4727 C50.0943,101.4727 47.2913,100.6097 44.6563,98.8857" id="Fill-50" fill="#18481C"></path>
                <path d="M64.0869,98.8857 C64.1529,98.2327 64.3689,97.5747 64.7329,96.9107 C65.0919,96.2467 65.5059,95.7187 65.9729,95.3207 C68.3729,96.8597 70.7209,97.6267 73.0299,97.6267 C74.1499,97.6267 75.0329,97.3657 75.6839,96.8417 C76.3399,96.3167 76.6659,95.6577 76.6659,94.8687 C76.6159,93.5167 75.7189,92.4567 73.9729,91.6867 L69.8489,89.9407 C68.2209,89.2667 66.9979,88.3977 66.1819,87.3377 C65.3649,86.2787 64.9599,85.0607 64.9599,83.6867 C64.9599,82.6377 65.1629,81.6827 65.5709,80.8217 C65.9769,79.9617 66.5579,79.2187 67.3189,78.6037 C68.0729,77.9847 68.9729,77.5017 70.0079,77.1507 C71.0419,76.8037 72.1909,76.6287 73.4459,76.6287 C76.0119,76.6287 78.5249,77.2697 80.9979,78.5507 C80.9249,79.9707 80.3779,81.1597 79.3549,82.1147 C76.9989,81.0207 74.9509,80.4727 73.2019,80.4727 C72.0869,80.4727 71.2299,80.7267 70.6369,81.2347 C70.0409,81.7437 69.7439,82.3697 69.7439,83.1107 C69.7439,84.1737 70.5709,85.0527 72.2249,85.7477 L76.3479,87.4967 C78.0249,88.1927 79.3179,89.1137 80.2299,90.2547 C81.1359,91.3977 81.5909,92.7127 81.5909,94.2037 C81.5909,95.2527 81.4039,96.2247 81.0309,97.1227 C80.6589,98.0197 80.0929,98.7867 79.3379,99.4277 C78.5789,100.0687 77.6359,100.5667 76.5059,100.9287 C75.3749,101.2887 74.0439,101.4727 72.5049,101.4727 C69.5239,101.4727 66.7159,100.6097 64.0869,98.8857" id="Fill-52" fill="#18481C"></path>
                <path d="M84.8037,96.2637 L93.0837,84.3207 C93.9217,83.1327 94.8557,81.9527 95.8807,80.7867 L95.7747,80.6807 C94.2867,80.8677 92.4787,80.9607 90.3587,80.9607 L85.0497,80.9607 C84.9317,80.4997 84.8747,79.9457 84.8747,79.2997 C84.8747,78.6527 84.9797,77.9267 85.1887,77.1177 L100.1437,77.1177 C100.5827,78.6177 100.8077,79.6277 100.8077,80.1457 C100.8077,80.6657 100.6207,81.1957 100.2437,81.7297 L92.0037,93.6387 C91.0937,94.8987 90.1697,96.0657 89.2407,97.1387 L89.3447,97.2427 C91.3467,97.1037 92.9337,97.0337 94.0987,97.0337 L96.8607,97.0337 C98.4887,97.0337 99.8277,96.7887 100.8747,96.2997 C101.1097,96.9537 101.2257,97.6797 101.2257,98.4827 C101.2257,99.2857 100.9467,99.9057 100.3877,100.3357 C99.8277,100.7677 99.0597,100.9817 98.0817,100.9817 L84.7657,100.9817 C84.3977,99.4217 84.2117,98.3957 84.2117,97.9077 C84.2117,97.4187 84.4077,96.8687 84.8037,96.2637" id="Fill-54" fill="#18481C"></path>
            </g>
        </g>
    </g>
</svg>