<svg width="531" height="301" viewBox="0 0 531 301" fill="none" xmlns="http://www.w3.org/2000/svg">
<path d="M270.391 91.4064C269.169 91.0997 270.085 85.2822 269.169 80.9931C268.253 76.7067 267.947 78.2377 265.194 76.3999C262.444 74.5621 264.278 71.1933 264.582 68.1312C264.888 65.0691 266.416 64.1488 265.804 60.4759C265.191 56.8003 265.191 59.2516 259.691 56.1895C254.187 53.1274 252.965 62.0096 251.131 61.7029C249.297 61.3961 250.215 61.0894 247.768 59.8651C245.321 58.6408 241.655 56.4962 236.764 56.1895C231.873 55.8827 233.402 50.0653 232.789 45.1654C232.676 44.2531 219.338 46.3897 219.338 46.3897C219.338 46.3897 216.892 53.7408 215.363 54.6584C215.363 54.6584 202.828 58.9448 200.997 58.9448C199.165 58.9448 196.106 58.3314 195.187 58.0273C194.271 57.7205 193.965 58.0273 186.627 62.3137C179.289 66.6001 188.156 71.5027 187.543 75.4824C186.931 79.4647 186.931 80.9957 186.015 84.6713C185.099 88.3469 183.874 91.1023 176.843 97.2292C169.811 103.353 185.709 101.211 185.709 101.211C185.709 101.211 189.071 109.48 191.822 118.056C194.572 126.631 192.128 121.731 188.765 129.08C185.403 136.428 191.822 137.349 194.575 138.573C197.325 139.797 202.522 135.204 202.522 135.204C202.522 135.204 211.694 137.959 216.279 140.411C220.864 142.862 219.03 143.78 220.254 145.924C221.479 148.069 221.476 151.744 221.476 151.744C221.476 151.744 229.73 152.358 232.48 151.744C235.231 151.131 234.621 140.413 234.621 140.413C234.621 140.413 254.185 134.289 256.938 134.289C259.691 134.289 261.523 137.965 262.747 138.882C263.972 139.8 265.804 137.351 267.026 136.431C268.248 135.511 271.305 131.224 272.619 129.791C273.933 128.358 265.498 124.487 264.582 122.956C263.666 121.425 265.194 119.28 266.722 113.767C268.251 108.253 269.473 105.498 269.473 105.498L278.339 103.353C278.339 103.353 279.255 96.3089 279.561 92.3293C279.867 88.3469 271.613 91.7158 270.389 91.4117L270.391 91.4064ZM226.37 129.381C209.823 129.381 196.412 115.671 196.412 98.7549C196.412 81.8393 209.826 68.1285 226.37 68.1285C242.914 68.1285 256.328 81.8393 256.328 98.7549C256.328 115.671 242.914 129.381 226.37 129.381Z" fill="#4FD4D1"/>
<path d="M414.375 55.5731C412.234 48.222 411.012 50.0598 411.012 50.0598C411.012 50.0598 403.065 49.753 400.924 49.1422C398.784 48.5287 397.561 43.3221 393.586 38.4222C389.611 33.5222 396.949 29.5399 398.477 25.8643C400.006 22.1887 386.249 16.3713 381.052 13.0024C375.854 9.63356 378.301 20.6577 377.076 21.8846C375.852 23.1116 359.957 15.4537 357.816 14.5335C355.675 13.6159 355.066 11.4714 353.231 9.02008C351.397 6.5688 351.397 3.19995 351.397 3.19995C351.397 3.19995 340.696 3.81343 333.667 3.81343C326.639 3.81343 330.611 11.4687 328.47 14.2267C326.33 16.9821 314.713 23.7198 314.713 23.7198L311.351 26.7819C311.351 26.7819 305.238 23.7198 295.453 22.4955C285.671 21.2712 293.925 27.7021 289.644 34.4398C285.365 41.1775 295.453 41.4843 294.841 44.5464C294.228 47.6085 289.644 60.4731 287.503 64.146C285.362 67.8216 278.637 64.146 273.746 64.4527C268.855 64.7595 272.83 72.108 272.524 76.3971C272.218 80.6835 282.612 84.3591 282.612 84.3591C282.612 84.3591 295.45 101.817 299.119 108.248C302.788 114.679 294.228 122.03 294.228 122.03C294.228 122.03 308.595 131.83 312.264 129.381C315.933 126.93 320.211 126.319 323.268 126.319C326.324 126.319 338.247 131.526 338.247 131.526L346.807 139.794C346.807 139.794 354.145 139.488 361.786 136.426C369.427 133.363 363.927 125.401 363.927 125.401C363.927 125.401 373.099 121.419 376.155 119.888C379.212 118.357 385.021 121.112 388.69 121.726C392.359 122.339 396.028 125.708 397.25 124.481C398.472 123.257 402.753 117.13 403.06 113.761C403.366 110.392 402.753 105.799 402.144 104.268C401.531 102.737 398.462 99.429 398.781 97.2237C399.1 95.0183 404.659 82.1035 404.659 82.1035L411.007 76.0903C411.007 76.0903 417.732 71.1904 418.648 70.577C419.564 69.9635 416.508 62.9217 414.37 55.5705L414.375 55.5731ZM347.427 100.288C330.711 100.288 317.163 87.5376 317.163 71.8066C317.163 56.0756 330.714 43.3247 347.427 43.3247C364.14 43.3247 377.691 56.0756 377.691 71.8066C377.691 87.5376 364.14 100.288 347.427 100.288Z" fill="#7A9CA8"/>
<path d="M1.67871 267.197C1.67871 267.197 49.2633 266.84 51.0001 265.968C52.7369 265.098 50.7098 261.615 50.4221 263.067C50.1317 264.519 54.4763 270.32 59.1112 270.611C63.7462 270.902 63.4558 268.869 63.4558 268.869C63.4558 268.869 71.8547 285.409 67.5101 284.539C63.1655 283.669 49.8414 273.221 49.8414 270.899C49.8414 268.578 82.1407 222.842 82.1407 222.842V221.102C82.1407 221.102 82.1407 222.553 82.1407 219.941C82.1407 217.328 88.0611 156.136 87.7707 158.167C87.4804 160.198 92.9837 163.681 100.514 164.841C108.045 166.002 119.904 162.313 119.035 162.893C118.167 163.472 132.827 212.106 132.827 221.681C132.827 231.256 132.27 290.02 128.794 290.602C125.317 291.184 121.844 288.571 121.263 289.441C120.685 290.311 118.655 294.955 121.553 296.695C124.449 298.435 138.063 300.756 137.483 298.146C136.902 295.534 130.243 289.729 125.898 288.571C121.553 287.41 118.946 287.989 119.526 286.25C120.107 284.51 118.056 228.937 117.766 228.937C117.475 228.937 94.1055 177.468 93.2371 168.763C92.3687 160.058 90.3786 161.359 90.9566 166.872C91.5346 172.386 104.418 196.126 104.13 199.318C103.84 202.51 98.3604 226.615 94.3061 229.519C90.2492 232.419 62.8751 268.583 63.4532 265.682C64.0312 262.779 87.9344 229.809 87.3537 227.199C86.773 224.59 86.4853 222.847 87.3537 222.847C88.2221 222.847 88.8028 226.33 88.2221 222.847C87.6414 219.364 85.4533 176.453 86.034 172.388C86.612 168.324 99.3581 164.553 95.3038 164.553C91.2496 164.553 86.6146 164.262 88.3514 156.718C90.0882 149.174 101.222 93.7491 117.367 92.6464C124.328 92.1705 131.269 98.7389 130.982 97.2898C130.694 95.8381 127.506 90.9065 124.61 90.0365C121.712 89.1665 116.499 90.0365 119.687 90.3274C122.873 90.6183 120.68 87.3446 120.68 87.3446C120.68 87.3446 110.542 70.8044 112.569 65.2911C114.596 59.7777 116.913 60.6503 117.782 59.7777C118.65 58.9077 119.809 53.1034 127.049 51.6517C134.292 50.2026 147.613 53.1034 144.427 56.8742C141.241 60.6476 131.393 59.775 131.393 61.2267C131.393 62.6785 133.421 64.1276 131.103 67.031C128.786 69.9318 127.917 71.0927 127.337 71.9653C126.756 72.8353 122.992 68.4827 122.124 71.6744C121.255 74.8661 124.731 76.3178 123.282 78.6395C121.833 80.9612 114.593 74.8687 118.069 67.3219C121.546 59.7777 136.897 54.8434 139.792 58.3259C142.688 61.8085 148.009 84.0022 141.059 86.3239C134.107 88.6456 133.421 86.472 132.552 88.5055C131.684 90.5363 133.006 91.7791 133.006 93.8099C133.006 95.8408 152.412 97.0016 157.047 95.259C161.679 93.5191 178.189 76.1089 179.638 76.1089C181.087 76.1089 185.432 77.8489 183.405 78.4306C181.377 79.0097 180.219 72.9172 181.377 72.0473C182.536 71.1773 185.141 70.0164 185.141 70.0164C185.141 70.0164 187.749 74.0781 186.878 72.9172C186.01 71.759 182.243 63.6331 183.983 61.8905C185.719 60.1505 195.567 54.928 195.567 54.928L199.624 57.8288C199.624 57.8288 215.553 50.8637 216.422 50.8637C217.29 50.8637 216.712 48.542 217.581 46.5112C218.449 44.4803 215.553 43.8986 219.317 43.6104C223.084 43.3195 234.378 42.7404 234.378 43.6104C234.378 44.4803 232.612 52.0246 234.088 52.0246C239.882 52.0246 250.888 58.117 252.047 59.2779C253.206 60.4387 252.628 63.0487 253.206 60.4387C253.786 57.8262 258.999 52.6037 260.446 53.1854C261.895 53.7672 269.425 59.2805 269.716 61.3114C270.006 63.3422 267.108 71.1773 265.371 70.5955C263.634 70.0164 261.895 68.5647 263.634 70.0164C265.371 71.4682 273.482 81.0432 272.033 85.3957C270.584 89.7483 275.219 86.8475 276.958 87.1357C278.698 87.4266 280.722 86.5566 280.722 88.5874C280.722 90.6183 281.303 104.837 281.303 104.837C281.303 104.837 272.033 106.868 271.745 105.128C271.455 103.388 272.904 99.9051 272.326 102.515C271.745 105.128 270.009 112.672 268.272 116.152C266.535 119.634 263.927 121.086 265.086 121.086C266.245 121.086 273.485 127.181 272.616 129.791C271.748 132.404 266.823 140.527 262.768 140.527C258.714 140.527 257.843 134.144 256.397 135.593C254.948 137.044 239.596 141.685 237.86 141.976C236.123 142.264 238.15 152.133 235.833 153.294C233.515 154.455 219.903 155.904 219.032 152.712C218.164 149.52 219.901 143.428 217.874 142.846C215.846 142.264 205.998 136.463 203.681 137.042C201.364 137.623 196.729 142.846 193.833 140.524C190.935 138.203 184.854 134.141 185.432 130.658C186.012 127.176 189.489 124.854 189.198 122.242C188.908 119.632 186.012 107.732 183.985 107.153C181.958 106.574 174.715 108.893 174.137 104.831C173.559 100.77 170.951 93.8046 172.979 92.3556C175.006 90.9038 180.799 91.1947 183.405 86.5513C186.012 81.9079 183.983 76.6854 190.067 75.2337C196.148 73.7819 205.996 75.8154 203.969 81.9079C201.942 88.003 192.381 113.536 210.05 121.081C227.716 128.625 244.229 127.176 250.31 109.766C256.392 92.3556 251.759 75.2337 230.324 72.3329C208.889 69.432 200.49 89.743 203.388 88.2939C206.284 86.8422 204.547 72.912 197.304 72.3329C190.064 71.7538 186.297 77.2671 181.084 84.8114C175.871 92.3556 161.098 106.574 155.885 107.153C150.672 107.735 142.273 107.735 138.797 105.701C135.321 103.671 130.976 98.7363 134.162 100.479C137.348 102.221 142.851 110.345 146.618 111.215C150.382 112.085 178.479 107.441 179.348 108.893C180.216 110.345 182.243 116.146 181.084 116.437C179.926 116.728 184.27 117.307 184.561 115.276C184.848 113.246 180.794 109.763 181.953 109.181C183.112 108.602 190.642 99.3154 190.352 103.377C190.061 107.439 184.848 108.6 187.744 108.6C190.639 108.6 197.301 105.117 195.565 109.47C193.828 113.822 182.531 117.014 175.291 118.465C168.051 119.917 149.801 123.979 143.72 122.527C137.639 121.075 122.865 115.853 120.548 112.082C118.23 108.311 117.652 102.798 117.362 105.408C117.074 108.02 118.23 111.503 119.97 113.825C121.707 116.146 126.632 114.986 121.419 117.016C116.206 119.047 102.882 121.369 111.281 121.657C119.682 121.948 128.081 118.175 127.791 119.917C127.5 121.657 123.446 119.335 126.342 130.365C129.237 141.392 135.252 164.923 135.252 164.923C135.252 164.923 131.486 171.016 130.617 170.437C129.749 169.855 126.851 167.824 126.851 165.505C126.851 163.186 121.994 144.874 121.704 137.912C121.416 130.947 126.049 115.279 126.917 117.598C127.785 119.92 122.504 156.218 121.345 157.379C120.186 158.54 98.4791 154.685 103.114 157.297C107.749 159.907 116.422 158.54 113.236 159.413C110.051 160.283 108.602 160.573 112.946 160.573C117.291 160.573 119.608 160.864 119.608 160.864C119.608 160.864 131.95 216.752 130.214 219.364C128.477 221.974 125.001 219.943 127.028 224.587C129.055 229.228 125.312 287.413 128.788 287.992C178.252 293.003 422.584 292.683 423.112 290.451C423.864 288.563 421.227 281.014 421.227 281.014L411.873 279.023C411.873 279.023 394.104 288.185 397.116 288.939C400.13 289.695 419.72 290.827 420.098 287.807C420.098 287.807 423.341 227.876 423.022 226.478C422.703 225.076 446.471 201.753 446.849 197.224C447.226 192.694 445.719 187.411 445.719 189.674C445.719 191.938 446.096 225.909 447.226 230.061C448.356 234.212 468.954 285.189 473.803 287.061C478.655 288.934 485.652 286.297 485.652 286.297C485.652 286.297 487.159 291.205 485.652 293.469C484.145 295.732 464.177 297.998 465.307 296.11C466.436 294.222 475.857 286.297 478.494 285.541C481.13 284.785 484.145 285.541 484.145 284.409C484.145 283.277 464.623 226.24 464.623 226.24C464.623 226.24 474.724 184.766 473.972 176.46C473.217 168.157 473.595 167.404 472.087 167.026C470.58 166.647 467.943 168.914 454.757 168.914C441.57 168.914 434.412 165.138 436.296 164.762C438.181 164.384 443.454 165.894 453.249 165.894C463.045 165.894 470.58 164.006 470.58 164.006C470.58 164.006 483.089 112.267 472.689 105.112C462.29 97.9536 432.904 92.6702 430.645 91.1603C428.386 89.6504 409.17 68.1363 406.911 68.5145C404.651 68.8926 402.767 74.1759 401.637 74.5541C400.507 74.9322 398.245 73.0442 399 71.1561C399.752 69.2681 405.781 66.2483 405.781 66.2483C405.781 66.2483 404.274 52.6592 401.637 55.3035C399 57.9452 401.26 62.4749 399.752 62.4749C398.245 62.4749 388.828 47.754 388.073 53.04C387.318 58.3233 402.767 77.9494 404.649 82.1036C406.533 86.2551 427.253 106.259 432.527 109.279C437.801 112.299 459.275 119.848 463.422 117.204C467.566 114.562 471.71 109.655 467.566 113.431C463.422 117.204 448.351 116.072 448.351 119.47C448.351 122.868 443.077 142.494 441.192 148.534C439.31 154.574 431.02 162.877 431.02 162.877L424.239 165.518L425.746 157.215C425.746 157.215 432.704 153.968 437.801 142.119C442.903 130.267 445.54 119.193 444.12 118.201C442.699 117.207 425.746 113.811 421.225 110.792C416.703 107.772 407.286 98.3344 407.286 97.2052C407.286 96.0761 407.006 87.3737 406.531 88.524C406.531 88.524 386.072 59.6904 377.502 57.1466C368.934 54.6028 377.502 55.24 378.138 63.8235C378.771 72.4069 372.743 98.1598 341.327 93.0722C309.91 87.9845 316.258 50.787 338.788 48.5632C361.322 46.3393 376.235 59.0558 370.206 76.2226C364.177 93.3921 359.416 89.2564 364.811 84.4887C370.206 79.7211 375.284 71.7723 374.648 67.0019C374.015 62.2342 369.889 59.6904 373.695 60.6424C377.504 61.597 381.63 65.41 390.514 72.7242C399.399 80.0357 404.794 83.2142 403.841 88.9365C402.888 94.6588 397.179 103.245 398.446 99.4291C399.715 95.6134 403.215 97.1973 403.215 97.1973C403.991 97.2846 409.917 103.996 409.917 106.64C409.917 109.284 399.787 127.662 396.564 127.908C393.341 128.154 386.259 120.232 383.583 122.305C380.907 124.378 366.144 127.943 366.611 128.593C367.078 129.244 369.604 137.211 367.72 139.099C365.835 140.987 341.723 144.004 340.594 142.119C339.464 140.231 337.202 132.684 336.072 132.684C334.943 132.684 318.39 127.475 318.609 128.194C318.829 128.913 313.845 135.326 310.079 134.194C306.309 133.062 291.291 123.122 292.748 120.983C294.205 118.844 297.269 113.811 296.14 111.923C295.01 110.035 285.199 89.973 282.953 89.2776C280.709 88.5821 270.898 91.1656 270.521 89.2776C270.143 87.3922 270.521 60.9703 273.158 60.5921C275.794 60.214 285.212 63.9901 287.097 60.9703C288.981 57.9504 293.125 43.9859 293.125 43.9859C293.125 43.9859 281.445 37.1926 282.953 34.9291C284.46 32.6656 296.139 14.9249 299.906 16.4348C303.673 17.9447 311.208 23.228 313.845 20.9645C316.485 18.701 327.407 13.7931 328.162 10.0197C328.917 6.24627 327.032 3.9801 329.669 2.4702C332.306 0.960295 354.158 2.09206 354.158 2.09206C354.158 2.09206 353.406 10.0171 356.42 11.9051C359.434 13.7931 371.866 18.3202 374.126 17.5666C376.385 16.8129 376.763 9.26343 382.039 11.1515C387.313 13.0395 400.877 25.8723 400.877 27.3822C400.877 28.8921 394.848 34.1755 395.981 36.0635C397.11 37.9515 400.502 47.7646 404.646 47.7646C408.79 47.7646 412.934 44.7448 414.064 47.3864C415.193 50.0281 421.222 67.0125 420.467 68.9005C419.712 70.7886 412.179 74.562 412.179 76.0719C412.179 77.5818 426.87 92.6782 426.87 94.9443C426.87 97.2105 425.741 100.606 427.625 99.0959C429.51 97.586 426.118 94.5662 431.395 96.4542C436.668 98.3423 466.434 100.984 466.809 106.267C467.186 111.551 464.549 110.797 466.434 109.287C468.318 107.777 471.153 103.562 470.628 102.216C470.103 100.87 464.05 98.6887 465.259 98.6887C467.437 98.6887 466.954 99.6591 469.374 96.991C471.794 94.3229 484.139 90.2004 482.688 83.8964C481.236 77.5924 478.816 78.3196 478.816 77.5924C478.816 76.8652 475.184 66.4387 469.617 64.9817C464.05 63.5247 457.615 65.7168 458.726 68.377C459.838 71.0371 467.439 71.7723 467.199 72.4994C466.956 73.2266 463.778 72.1266 467.062 75.9503C470.345 79.7739 468.408 87.0484 469.137 86.8052C469.862 86.5645 472.436 81.6012 473.207 84.8087C473.977 88.0163 470.105 90.6844 470.831 90.925C471.557 91.1683 478.335 91.8955 478.092 85.5914C477.849 79.2874 469.62 68.8582 465.747 69.1015C461.875 69.3448 445.793 84.3909 448.213 89.7245C450.634 95.058 455.968 92.9743 455.34 96.2612C455.097 98.9293 468.168 102.809 471.074 110.57C473.977 118.328 454.614 133.12 456.551 135.304C458.486 137.486 468.896 134.818 465.507 138.7C462.118 142.582 441.786 147.915 450.742 150.097C459.698 152.278 472.528 151.794 465.024 155.917C457.52 160.039 451.953 159.069 446.87 160.039C441.786 161.01 436.462 161.737 435.008 163.919C433.556 166.1 407.415 213.388 406.929 219.936C406.444 226.483 411.77 274.982 411.77 275.709C411.77 276.437 409.35 281.043 417.337 282.257C425.324 283.47 435.731 281.286 435.005 284.438C434.28 287.59 422.418 289.288 431.859 289.288C441.301 289.288 529.304 289.864 529.304 289.864" stroke="#332C2B" stroke-width="3" stroke-linecap="round" stroke-linejoin="round"/>
</svg>
